<svg width="100" height="100" viewBox="0 0 100 100" fill="none" xmlns="http://www.w3.org/2000/svg">
<path fill-rule="evenodd" clip-rule="evenodd" d="M25 54.6526C25 60.1003 27.9536 65.1198 32.7159 67.7653L42.7159 73.3203C47.246 75.8367 52.754 75.8367 57.2841 73.3203L67.2841 67.7653C72.0464 65.1198 75 60.1003 75 54.6526V45.3472C75 39.8995 72.0464 34.88 67.2841 32.2346L57.2841 26.6796C52.754 24.1631 47.246 24.1631 42.7159 26.6796L32.7159 32.2346C27.9536 34.88 25 39.8995 25 45.3472V54.6526ZM57.2846 12.3803C52.7543 9.86343 47.2457 9.86342 42.7154 12.3803L20.2154 24.8803C15.4534 27.5258 12.5 32.5451 12.5 37.9926V62.0072C12.5 67.4547 15.4534 72.474 20.2154 75.1196L42.7153 87.6196C47.2457 90.1364 52.7543 90.1364 57.2846 87.6196L79.7846 75.1196C84.5466 72.474 87.5 67.4547 87.5 62.0072V37.9926C87.5 32.5451 84.5466 27.5258 79.7846 24.8803L57.2846 12.3803Z" fill="#FFDBBB"/>
</svg>
