<svg width="100" height="100" viewBox="0 0 100 100" fill="none" xmlns="http://www.w3.org/2000/svg">
<path d="M72.917 58.1663C81.1243 58.1664 87.6668 64.709 87.667 72.9163C87.667 81.1237 81.1244 87.6661 72.917 87.6663C64.7095 87.6663 58.167 81.1238 58.167 72.9163C58.1672 64.7089 64.7096 58.1663 72.917 58.1663ZM22.5 60.2502H35.833C39.1467 60.2502 41.833 62.9365 41.833 66.2502V79.5833C41.833 82.897 39.1467 85.5833 35.833 85.5833H22.5C19.1863 85.5833 16.5 82.897 16.5 79.5833V66.2502C16.5 62.9365 19.1863 60.2502 22.5 60.2502ZM44.8799 24.3821C47.2195 20.5537 52.7805 20.5537 55.1201 24.3821L60.2061 32.7043C62.6493 36.7025 59.7715 41.8333 55.0859 41.8333H44.9141C40.2285 41.8333 37.3506 36.7025 39.7939 32.7043L44.8799 24.3821Z" stroke="#FFDBBB" stroke-width="8"/>
</svg>
