<svg width="80" height="80" viewBox="0 0 80 80" fill="none" xmlns="http://www.w3.org/2000/svg">
<g clip-path="url(#clip0_47_7955)">
<path fill-rule="evenodd" clip-rule="evenodd" d="M33.8286 11.12C27.13 11.12 20.7057 13.781 15.9691 18.5177C11.2324 23.2543 8.57143 29.6785 8.57143 36.3772V40C8.57143 47.6595 11.6141 55.0052 17.0302 60.4213C22.4462 65.8373 29.792 68.88 37.4514 68.88H40C44.1273 68.88 48.2141 68.0671 52.0272 66.4877C55.8403 64.9082 59.3049 62.5932 62.2234 59.6748C65.1418 56.7564 67.4568 53.2917 69.0362 49.4786C70.6156 45.6656 71.4286 41.5787 71.4286 37.4514V34.8972C71.4286 33.7605 71.8801 32.6704 72.6838 31.8667C73.4876 31.063 74.5776 30.6114 75.7143 30.6114C76.8509 30.6114 77.941 31.063 78.7447 31.8667C79.5485 32.6704 80 33.7605 80 34.8972V37.4514C80 48.0601 75.7857 58.2343 68.2843 65.7357C60.7828 73.2372 50.6087 77.4514 40 77.4514H37.4514C27.5187 77.4514 17.9928 73.5057 10.9693 66.4822C3.94576 59.4587 0 49.9328 0 40L0 36.3772C0 27.4053 3.56407 18.8008 9.90816 12.4567C16.2522 6.11266 24.8567 2.54858 33.8286 2.54858C37.8827 2.54858 41.8971 3.34748 45.6424 4.89963C49.3876 6.45177 52.7903 8.72674 55.656 11.5945C58.5216 14.4623 60.794 17.8666 62.3434 21.613C63.8928 25.3594 64.6887 29.3744 64.6857 33.4286V35.8857C64.6857 42.8511 61.9187 49.5311 56.9935 54.4564C52.0683 59.3816 45.3882 62.1486 38.4229 62.1486H37.4457C34.5379 62.1478 31.6587 61.5744 28.9724 60.4609C26.2862 59.3474 23.8456 57.7157 21.79 55.6591C19.7344 53.6024 18.104 51.1609 16.9919 48.4742C15.8798 45.7874 15.3078 42.9079 15.3086 40V37.4514C15.3101 32.2562 17.3742 27.274 21.0473 23.5999C24.7203 19.9257 29.7019 17.8602 34.8971 17.8572C42.8971 17.8572 49.3886 24.3429 49.3886 32.3486V33.8057C49.3886 37.2611 48.0159 40.575 45.5726 43.0183C43.1293 45.4617 39.8154 46.8343 36.36 46.8343H34.8971C33.7605 46.8343 32.6704 46.3828 31.8667 45.579C31.063 44.7753 30.6114 43.6852 30.6114 42.5486C30.6114 41.4119 31.063 40.3219 31.8667 39.5181C32.6704 38.7144 33.7605 38.2629 34.8971 38.2629H36.3543C36.9396 38.2629 37.5192 38.1476 38.06 37.9236C38.6007 37.6996 39.0921 37.3713 39.506 36.9574C39.9198 36.5435 40.2482 36.0522 40.4721 35.5114C40.6961 34.9706 40.8114 34.391 40.8114 33.8057V32.3429C40.8114 29.0743 38.1657 26.4229 34.8971 26.4229C31.9752 26.4274 29.1744 27.5914 27.1098 29.6591C25.0453 31.7269 23.8857 34.5295 23.8857 37.4514V40C23.8857 43.5994 25.3156 47.0513 27.8607 49.5965C30.4058 52.1416 33.8578 53.5714 37.4571 53.5714H38.4343C43.1263 53.5714 47.6262 51.7075 50.944 48.3897C54.2618 45.072 56.1257 40.5721 56.1257 35.88V33.4229C56.128 30.4939 55.5528 27.5931 54.4331 24.8866C53.3135 22.18 51.6713 19.7208 49.6004 17.6494C47.5296 15.578 45.0707 13.9351 42.3644 12.8148C39.6582 11.6944 36.7576 11.1185 33.8286 11.12Z" fill="#FFDBBB"/>
</g>
<defs>
<clipPath id="clip0_47_7955">
<rect width="80" height="80" fill="white"/>
</clipPath>
</defs>
</svg>
