<svg width="230" height="417" viewBox="0 0 230 417" fill="none" xmlns="http://www.w3.org/2000/svg">
<path d="M169.478 266.459C167.798 256.715 166.014 246.986 164.218 237.263C160.631 217.895 156.973 198.539 153.896 179.082C150.803 159.531 157.732 144.221 156.463 124.459C155.82 114.487 146.014 100.158 145.565 90.1801C145.349 85.4185 145.371 80.5571 144.772 75.8287C144.528 73.9274 144.046 72.0206 142.959 70.413C141.873 68.811 140.348 67.6026 138.796 66.4884C126.086 57.3477 110.227 53.5783 94.7225 53.9386C86.7791 54.1216 78.8579 55.3466 71.1972 57.4641C63.3758 59.626 55.4767 62.5971 48.6309 67.004C41.9513 71.2999 36.7851 77.2977 33.304 84.4207C29.895 91.3996 28.0435 99.0326 27.0402 106.704C24.5236 125.889 26.6466 145.457 28.6865 164.581C30.6931 183.422 32.6943 202.297 33.1876 221.249C33.681 240.107 32.6942 259.098 28.631 277.563C27.6887 281.847 26.5745 286.088 25.2995 290.284C23.9803 292.79 23.2209 295.595 23.2597 298.682C23.2708 299.53 24.5901 299.53 24.579 298.682C24.5458 296.055 25.1444 293.638 26.1921 291.443C26.2974 291.365 26.386 291.271 26.4304 291.116C26.4636 290.999 26.497 290.888 26.5303 290.772C29.3462 285.478 34.8284 281.576 40.3549 279.298C44.7285 277.49 49.3571 276.332 53.9469 275.229C58.9468 274.026 63.9911 272.995 69.0687 272.141C88.869 268.804 109.329 268.006 129.295 270.295C139.495 271.465 149.789 273.876 158.403 279.708C158.652 279.874 158.996 279.796 159.201 279.602C161.49 277.474 164.938 277.601 167.549 276.044C171.108 273.926 170.082 269.891 169.489 266.471L169.478 266.459Z" fill="#13091C"/>
<path d="M115.515 4.59317C114.944 3.81158 114.251 3.1353 113.708 2.71956C110.726 0.435762 106.657 -0.0465019 103.004 0.00338691C97.3389 0.0754485 91.2746 1.77168 88.115 6.94903C84.0019 13.6951 86.125 21.4556 89.2458 27.9023C89.7502 28.9389 90.2602 29.9755 90.7646 31.0121C91.1693 31.8435 91.5462 32.7138 92.1726 33.4067C92.9099 34.2216 94.1239 34.665 95.1327 34.338C95.1993 34.6817 95.4874 34.9588 95.9032 34.787C97.3721 34.1772 98.8799 33.5065 99.7668 32.1152C100.704 30.6462 100.992 28.6839 101.391 27.0154C102.289 23.2793 103.054 19.388 104.955 16.0011C106.518 13.2184 108.952 10.6519 112.078 9.69291C112.832 9.4601 113.575 9.36586 114.356 9.31043C115.038 9.26054 115.709 9.14968 116.147 8.57318C117.039 7.40357 116.435 5.85701 115.509 4.58762L115.515 4.59317Z" fill="#FFDBBB"/>
<path d="M110.637 50.8565C110.637 50.6902 110.637 50.5184 110.631 50.3576C110.62 49.6259 110.609 49.0051 110.603 48.5117C110.598 48.229 110.598 47.9851 110.598 47.7856C110.598 46.81 110.576 45.8344 110.542 44.8532C110.537 44.6758 110.531 44.4985 110.52 44.3211C110.515 44.1326 110.509 43.9386 110.493 43.739C110.459 42.7579 110.398 41.7712 110.343 40.7734V40.7402C110.226 38.8555 110.077 36.9597 109.927 35.0362C109.85 33.9775 110.027 32.2702 109.583 31.2668C107.228 26.3556 101.912 23.6338 96.568 24.4044C96.3186 23.911 95.3818 24.0052 95.3097 24.7148C94.9826 28.1405 94.0847 42.7357 93.8131 45.5849C93.7909 45.7734 93.7798 45.984 93.7742 46.2224C93.6744 48.9386 94.201 54.3654 95.0103 56.2667C95.4372 57.27 96.5513 61.0338 97.915 65.8564C101.025 76.8819 105.415 93.4449 105.814 95.1245C106.052 96.1112 106.668 95.5181 107.854 89.7088C109.523 81.5326 110.227 72.5859 110.504 65.0138C110.72 59.1103 110.675 54.0494 110.631 50.8399L110.637 50.8565Z" fill="#B35034"/>
<path d="M120.326 22.154C120.326 25.1973 120.043 28.2516 119.417 31.2393C119.101 32.7582 118.696 34.2604 118.203 35.7293C117.77 37.0154 117.349 38.695 116.423 39.7149C114.666 41.6717 110.62 40.8069 108.397 40.3524C105.659 39.787 103.009 38.7725 100.537 37.481C98.8793 36.6107 97.7761 34.9921 96.7173 33.5342C95.8304 32.3314 95.2428 30.9178 94.7606 29.5099C94.2783 29.6872 93.7463 29.7482 93.1919 29.6429C90.5257 29.1496 88.7573 26.5609 88.4192 24.0165C88.0921 21.5665 88.8017 18.4068 91.4624 17.592C92.5489 17.2594 93.8238 17.2538 94.7828 17.9357C95.5865 18.5066 96.1186 19.3824 96.5344 20.2583C96.7672 20.7516 96.9446 21.3724 97.3714 21.7383C98.1696 22.4257 98.4135 21.2339 98.4689 20.6407C98.6463 18.8614 98.4469 17.0266 98.4358 15.2417C98.4247 13.0077 98.4801 10.3636 99.9047 8.50112C101.701 6.15635 105.326 6.71621 107.909 6.71621C108.757 6.71621 109.611 6.67742 110.453 6.53329C111.396 6.37254 112.31 6.10646 113.253 5.96234C114.09 5.83484 114.899 5.85702 115.658 6.26721C115.714 6.29493 115.764 6.33374 115.819 6.367C116.002 6.51112 116.174 6.66078 116.34 6.83262C117.31 7.82486 118.242 9.3437 118.801 10.8016C118.935 11.1452 119.04 11.4778 119.123 11.8104C119.151 11.9047 119.167 11.9878 119.184 12.0765C119.223 12.2372 119.256 12.3869 119.278 12.531C119.35 13.0077 119.345 13.4623 119.317 13.8947C119.295 14.1386 119.278 14.3825 119.245 14.6264C119.245 14.6707 119.239 14.7261 119.234 14.7705C119.14 15.5798 119.051 16.3891 119.267 17.2926C119.649 18.878 120.331 20.4911 120.331 22.154H120.326Z" fill="#B35034"/>
<path d="M110.498 43.7447C110.398 43.8112 110.282 43.85 110.16 43.8389C108.902 43.7114 107.61 43.4287 106.557 42.6915C106.058 42.3367 105.62 41.921 105.271 41.411C104.922 40.9066 104.567 40.2248 104.899 39.6261C105.082 39.288 105.482 39.2436 105.798 39.3877C106.596 39.7647 107.399 40.1305 108.236 40.3911C108.636 40.5075 109.051 40.6128 109.467 40.6682C109.75 40.707 110.066 40.6793 110.343 40.7458V40.7791C110.404 41.7713 110.459 42.7635 110.493 43.7447H110.498Z" fill="#13091C"/>
<path d="M94.3673 25.8681C94.1899 25.4302 94.4061 25.4191 94.6333 25.081C94.6611 25.0367 94.6777 24.9923 94.6999 24.9424C94.4948 24.6486 94.3618 24.2939 94.2897 23.9502C94.2066 23.5677 94.1788 23.1464 94.2564 22.7584C94.1123 22.6143 93.9515 22.4979 93.7686 22.4258C93.2697 22.2318 92.7376 22.4258 92.4272 22.8415C92.0114 23.4014 92.1333 23.9502 92.3717 24.5433C92.9648 26.0233 93.6024 27.4812 94.2897 28.9224C94.4394 29.2384 94.7608 29.3992 95.0602 29.1386C95.2597 28.9668 95.4261 28.6231 95.3706 28.3515C95.2875 27.9358 95.0491 27.52 94.8883 27.1264C94.7109 26.7052 94.5336 26.2894 94.3617 25.8681H94.3673Z" fill="white"/>
<path d="M111.551 13.623C110.664 12.3259 108.58 12.3868 107.239 12.6862C106.052 12.9522 104.8 13.6341 103.896 14.4323C103.48 14.7981 102.965 15.3913 102.915 15.9955C102.848 16.8159 103.591 17.2981 104.328 16.9489C104.766 16.7438 105.188 16.4999 105.614 16.2782C106.368 15.8846 107.117 15.4023 107.981 15.3081C108.841 15.2139 109.705 15.3635 110.565 15.2915C110.919 15.2638 111.274 15.1806 111.523 14.909C111.856 14.5431 111.823 14.0165 111.557 13.6285L111.551 13.623Z" fill="#FFDBBB"/>
<path d="M119.311 13.8947C119.289 14.1386 119.273 14.3825 119.239 14.6264C118.668 14.3437 118.02 14.3049 117.388 14.4435C116.834 14.5599 116.19 14.9091 115.703 14.4102C115.42 14.1164 115.392 13.5787 115.52 13.2129C115.847 12.2705 116.883 11.9102 117.87 11.888C118.336 11.8825 118.785 11.9435 119.178 12.0765C119.217 12.2373 119.25 12.3869 119.272 12.5311C119.345 13.0078 119.339 13.4623 119.311 13.8947Z" fill="#FFDBBB"/>
<path d="M91.2299 19.5708C91.9339 19.3823 92.6046 19.7094 93.1423 20.1418C93.6356 20.5409 94.3008 21.0896 94.3008 21.777C94.3008 22.1484 94.1566 22.4976 94.079 22.8579C94.007 23.2071 93.9682 23.5675 93.9904 23.9222C94.007 24.2604 94.0734 24.5874 94.1677 24.9089C94.2785 25.2914 94.4282 25.6683 94.3063 26.0674C94.1788 26.4721 94.8108 26.6439 94.9438 26.2448C95.2154 25.3912 94.6389 24.5431 94.65 23.6783C94.6611 22.8191 95.1767 21.9932 94.8496 21.1451C94.578 20.4411 93.9239 19.8868 93.3308 19.4544C92.6767 18.9777 91.8673 18.7227 91.0691 18.9333C90.6589 19.0442 90.8363 19.6761 91.2465 19.5708H91.2299Z" fill="#13091C"/>
<path d="M111.512 18.7227C110.504 18.3236 109.412 18.2016 108.342 18.3568C107.815 18.4344 107.311 18.5785 106.823 18.7892C106.296 19.0165 105.814 19.3269 105.249 19.4544C104.833 19.5486 105.01 20.1805 105.426 20.0918C105.942 19.9754 106.396 19.7204 106.867 19.4932C107.327 19.2714 107.81 19.1162 108.314 19.0275C109.334 18.8446 110.382 18.9777 111.341 19.3601C111.734 19.5153 111.906 18.8779 111.518 18.7227H111.512Z" fill="#13091C"/>
<path d="M109.461 16.5165C109.556 17.3314 109.788 18.113 110.171 18.8391C110.254 18.9943 110.47 19.0442 110.62 18.9555C110.781 18.8613 110.82 18.6618 110.736 18.5065C110.415 17.8968 110.193 17.1817 110.115 16.5165C110.099 16.3447 109.977 16.1784 109.789 16.1895C109.628 16.195 109.439 16.3336 109.461 16.5165Z" fill="#13091C"/>
<path d="M117.638 15.8179C117.727 16.6106 117.971 17.3756 118.375 18.0685C118.464 18.2181 118.675 18.2847 118.824 18.1849C118.974 18.0906 119.035 17.8911 118.941 17.7359C118.846 17.5751 118.763 17.4144 118.686 17.2481C118.625 17.115 118.569 16.9765 118.514 16.8102C118.458 16.6494 118.414 16.4831 118.375 16.3113C118.336 16.1339 118.309 15.9621 118.292 15.8179C118.275 15.6461 118.154 15.4798 117.965 15.4909C117.804 15.4964 117.616 15.635 117.638 15.8179Z" fill="#13091C"/>
<path d="M116.169 18.9334C117.056 18.6063 118.131 18.2016 119.007 18.7781C119.157 18.8779 119.373 18.8059 119.456 18.6617C119.55 18.501 119.489 18.307 119.34 18.2127C118.303 17.5309 117.056 17.9079 115.992 18.3014C115.825 18.3624 115.709 18.5232 115.759 18.7061C115.803 18.8668 115.997 18.9999 116.163 18.9334H116.169Z" fill="#13091C"/>
<path d="M115.548 15.3027C115.199 16.1785 115.116 17.132 115.288 18.0632C115.482 19.0832 116.08 19.8703 116.546 20.7683C117.023 21.6829 117.566 22.8193 117.372 23.878C117.206 24.776 116.363 25.2029 115.842 25.8736C115.581 26.2062 116.047 26.6718 116.308 26.3392C116.807 25.7017 117.555 25.2749 117.871 24.4989C118.275 23.5122 117.987 22.4479 117.599 21.5111C117.388 21.0067 117.167 20.5078 116.89 20.0366C116.607 19.5543 116.285 19.0887 116.097 18.5566C115.737 17.5532 115.787 16.4668 116.175 15.4801C116.33 15.0865 115.692 14.9147 115.537 15.3027H115.548Z" fill="#13091C"/>
<path d="M112.1 25.7682C112.482 26.3779 113.314 26.6163 113.957 26.2781C114.256 26.1174 114.467 25.8458 114.672 25.5852C114.838 25.3691 115.021 25.1362 115.282 25.0198C115.443 24.9478 115.481 24.7094 115.398 24.5708C115.298 24.4045 115.11 24.3824 114.949 24.4544C114.395 24.6983 114.195 25.2693 113.769 25.624C113.702 25.6795 113.608 25.7349 113.508 25.7571C113.43 25.7792 113.425 25.7792 113.369 25.7792C113.336 25.7792 113.297 25.7792 113.264 25.7792C113.248 25.7792 113.186 25.7737 113.225 25.7792C113.087 25.7626 112.998 25.7238 112.904 25.6684C112.804 25.6074 112.726 25.5354 112.671 25.4411C112.449 25.0808 111.878 25.4134 112.1 25.7737V25.7682Z" fill="#13091C"/>
<path d="M112.05 30.9619C112.699 30.6237 113.442 30.5295 114.157 30.4242C114.972 30.3022 115.787 30.1969 116.601 30.1027C116.779 30.0805 116.928 29.9641 116.928 29.7756C116.928 29.6149 116.773 29.4264 116.601 29.4486C115.726 29.5483 114.85 29.6647 113.98 29.7922C113.198 29.9086 112.422 30.0306 111.718 30.3964C111.341 30.5905 111.673 31.1614 112.05 30.9674V30.9619Z" fill="#13091C"/>
<path d="M113.824 33.5398C114.467 33.562 115.082 33.3403 115.581 32.9467C115.72 32.8414 115.703 32.592 115.581 32.4811C115.437 32.3481 115.26 32.3647 115.116 32.4811C115.182 32.4312 115.094 32.4977 115.082 32.5088C115.055 32.531 115.027 32.5476 114.999 32.5642C114.949 32.5975 114.899 32.6252 114.844 32.6529C114.816 32.6696 114.783 32.6862 114.755 32.6973C114.739 32.7028 114.639 32.7527 114.717 32.7139C114.661 32.7416 114.595 32.7583 114.534 32.7804C114.412 32.8192 114.284 32.8469 114.162 32.8691C114.134 32.8691 114.146 32.8691 114.184 32.8691C114.168 32.8691 114.151 32.8691 114.134 32.8691C114.101 32.8691 114.068 32.8747 114.035 32.8747C113.968 32.8747 113.896 32.8747 113.83 32.8747C113.658 32.8691 113.492 33.0299 113.503 33.2017C113.508 33.3846 113.647 33.5232 113.83 33.5288L113.824 33.5398Z" fill="#13091C"/>
<path d="M110.282 18.9057C110.182 18.6951 109.983 18.5786 109.755 18.5565C109.628 18.5454 109.456 18.6673 109.439 18.8004C109.439 18.8059 109.439 18.817 109.434 18.8226C109.417 18.8059 109.401 18.7893 109.378 18.7727C109.295 18.7283 109.212 18.7228 109.129 18.7339C109.007 18.5676 108.813 18.49 108.613 18.5398C108.486 18.5676 108.392 18.6563 108.308 18.7505C108.259 18.7228 108.209 18.7006 108.148 18.7006C107.976 18.7061 107.81 18.8447 107.821 19.0277C107.837 19.388 107.932 19.7372 108.103 20.0531C108.259 20.3414 108.491 20.613 108.813 20.7128C109.168 20.8236 109.55 20.6629 109.8 20.4024C109.916 20.2804 110.01 20.1363 110.094 19.9922C110.177 19.8425 110.26 19.6873 110.315 19.5265C110.387 19.3214 110.382 19.1053 110.287 18.9057H110.282Z" fill="#13091C"/>
<path d="M118.508 18.5456C118.464 18.2795 118.192 18.08 117.926 18.1742C117.91 18.1798 117.898 18.1908 117.882 18.1964C117.832 18.1853 117.788 18.1853 117.743 18.2075C117.654 18.2463 117.571 18.2906 117.499 18.3461C117.461 18.3128 117.422 18.2795 117.366 18.2685C117.2 18.2297 117 18.3183 116.962 18.4957C116.873 18.8837 116.917 19.2773 117.078 19.6432C117.156 19.8205 117.272 20.0201 117.449 20.1143C117.699 20.2474 117.97 20.1365 118.164 19.9591C118.419 19.7208 118.503 19.3605 118.519 19.0279C118.53 18.8671 118.53 18.7008 118.503 18.5401L118.508 18.5456Z" fill="#13091C"/>
<path d="M95.5589 30.2689C95.7419 30.1747 95.8139 30.8344 95.8306 30.9231C95.8749 31.1891 95.9359 31.4552 96.0135 31.7102C96.1687 32.2423 96.385 32.7578 96.6511 33.2456C97.1888 34.2212 97.9371 35.0638 98.8295 35.7235C99.1676 35.9784 99.5002 35.4075 99.162 35.1525C98.1809 34.4208 97.3994 33.423 96.9171 32.2978C96.6788 31.7434 96.5346 31.1614 96.4348 30.5683C96.3794 30.2579 96.2851 29.9419 96.0135 29.7479C95.7696 29.576 95.487 29.5594 95.2209 29.6925C94.8439 29.8865 95.1765 30.4574 95.5534 30.2634L95.5589 30.2689Z" fill="#13091C"/>
<path d="M174.766 205.828C174.261 200.811 173.607 195.817 172.909 190.828C172.233 185.983 173.812 184.991 176.484 181.321C179.383 177.347 175.98 171.599 174.976 167.319C171.523 152.574 167.964 134.293 163.336 119.858C162.693 117.846 162.344 119.276 161.64 117.286C161.102 115.779 160.531 114.276 159.162 113.328C156.756 111.671 153.491 112.464 151.091 110.834C151.285 111.46 151.451 112.092 151.579 112.735C151.883 114.238 151.961 115.762 152.033 117.286C152.116 118.971 152.172 120.662 152.211 122.353C152.36 129.265 152.294 136.183 152.211 143.09C152.133 150.036 152 156.987 151.917 163.932C151.834 170.845 151.778 177.746 152.066 184.653C152.266 189.381 152.543 194.115 152.704 198.843C153.314 204.464 153.912 210.085 154.328 215.722C154.827 222.469 155.076 229.231 155.143 235.999C155.27 249.603 154.633 263.2 153.696 276.77C153.48 279.868 153.081 283 153.064 286.104C153.053 288.255 153.469 290.689 155.409 291.953C157.676 293.427 161.013 292.834 163.391 291.969C167.881 290.34 172.654 287.84 174.816 283.344C177.621 277.507 176.213 269.137 176.229 262.806C176.29 243.788 176.662 224.592 174.766 205.833V205.828Z" fill="#5C5263"/>
<path d="M158.757 131.543C160.642 138.761 162.477 145.995 164.206 153.256C165.863 160.213 167.421 167.197 168.884 174.198C169.755 178.384 170.592 182.58 171.401 186.776C171.479 187.192 172.116 187.014 172.039 186.599C170.631 179.27 169.128 171.965 167.515 164.681C165.969 157.696 164.311 150.734 162.582 143.794C161.545 139.642 160.481 135.501 159.4 131.366C159.295 130.956 158.657 131.128 158.763 131.543H158.757Z" fill="#13091C"/>
<path d="M155.936 133.306C156.113 143.301 156.169 153.295 156.096 163.284C156.024 173.251 155.825 183.217 155.503 193.178C155.32 198.788 155.099 204.398 154.838 210.002C154.816 210.423 155.476 210.423 155.498 210.002C155.963 200.019 156.307 190.03 156.518 180.041C156.734 170.074 156.817 160.108 156.784 150.146C156.762 144.531 156.701 138.921 156.601 133.306C156.595 132.885 155.936 132.879 155.941 133.306H155.936Z" fill="#13091C"/>
<path d="M158.585 110.596C157.139 104.725 158.929 104.919 156.124 99.6146C155.985 99.3486 155.664 98.5891 155.221 97.4805C154.627 95.9783 153.813 93.8442 152.937 91.4828C150.631 85.2744 147.876 77.4418 147.466 75.1802C146.828 71.6381 146.102 67.8798 144.345 64.6925C142.826 61.9375 140.26 59.6592 137.122 59.1991C137.05 59.0218 136.978 58.8444 136.906 58.6615C136.801 58.3898 136.59 58.1792 136.274 58.1792C135.016 58.1847 134.301 59.2324 133.874 60.3022C133.253 61.8654 132.782 63.4951 132.338 65.1082C131.457 68.3621 130.831 71.6824 130.409 75.025C129.539 81.7932 129.522 88.6502 129.849 95.4628C130.032 99.2432 130.038 103.262 131.313 106.871C131.446 107.242 131.778 107.358 132.083 107.303C133.935 111.959 136.435 116.311 139.544 120.252C141.257 122.419 143.142 124.448 145.182 126.305C147.139 128.085 148.94 130.141 151.468 131.056C152.837 131.549 154.677 131.521 156.008 130.906C157.399 130.263 158.458 129.088 159.444 127.946C159.733 127.602 159.611 127.187 159.345 126.965C160.143 121.51 159.916 115.945 158.596 110.59L158.585 110.596Z" fill="#F4C8CC"/>
<path d="M154.966 96.8264C154.406 95.3852 153.691 93.5227 152.937 91.4828C152.355 90.8619 151.756 90.2633 151.213 89.6757C149.334 87.6469 147.443 85.6402 145.537 83.6447C143.624 81.6491 141.701 79.6647 139.761 77.6968C138.874 76.7877 138.003 75.8011 137.039 74.9696C136.329 74.3543 135.431 74.26 134.661 74.831C133.624 75.596 133.647 76.8931 133.785 78.046C133.962 79.5981 134.112 81.1613 134.212 82.7245C134.4 85.8509 134.4 88.9939 134.234 92.1258C133.314 92.4417 132.438 92.8741 131.651 93.4839C130.986 93.9938 131.64 95.1357 132.316 94.6147C134.24 93.1457 136.645 92.7965 139.007 92.8298C141.451 92.863 143.874 93.2732 146.207 94.0105C146.518 94.1102 146.823 94.2266 147.127 94.3375C148.402 95.9173 149.251 98.0681 150.464 99.5315C150.941 100.108 151.811 100.657 152.006 101.4C152.022 101.466 152.028 101.538 152.033 101.61C151.762 102.303 151.551 103.018 151.39 103.739C151.329 103.866 151.274 103.988 151.23 104.105C150.697 105.413 147.765 112.431 148.042 114.87C148.109 115.468 148.502 116.882 148.901 117.353C149.278 117.796 149.644 117.253 150.221 117.098C151.529 116.754 151.351 114.925 151.429 113.899L151.817 108.766C151.823 108.683 151.812 108.617 151.789 108.55C152.094 107.525 152.249 106.466 152.41 105.396C152.477 104.936 152.56 104.487 152.66 104.038C152.754 103.805 152.848 103.578 152.937 103.345C153.131 102.857 153.297 102.353 153.336 101.849C153.441 101.594 153.558 101.344 153.68 101.1C153.779 101.056 153.874 100.984 153.951 100.878C154.5 100.125 154.849 99.2821 154.993 98.3841C154.993 98.3785 155.004 98.373 155.004 98.3674C155.365 97.8519 155.282 97.3087 154.949 96.8319L154.966 96.8264Z" fill="#13091C"/>
<path d="M136.945 93.1902C137.787 90.8454 138.303 88.4064 137.92 85.8787C137.676 84.2656 137.333 82.8465 136.612 81.3887C136.834 79.9807 136.983 78.5672 137.139 77.2313C137.66 72.7801 137.771 68.279 137.477 63.8056C137.416 62.9076 137.41 61.9265 137.067 61.0839C136.751 60.3079 136.152 59.7979 135.442 59.3822C133.53 58.2846 131.518 57.3256 129.555 56.3057C125.814 54.3489 122.094 52.1206 117.882 51.3999C116.529 51.1671 115.16 51.0119 113.785 50.9011C113.159 49.3822 112.909 47.6583 112.66 46.0286C112.516 45.0585 112.516 43.7614 111.884 42.9466C111.119 41.9654 109.899 42.9577 108.985 43.2293C106.191 44.0608 103.453 43.6505 100.653 43.1018C98.17 42.614 95.3706 41.9543 94.1733 39.4654C94.0291 39.1606 93.752 39.0885 93.5025 39.1606C93.181 39.0608 92.8097 39.1716 92.721 39.604C91.8563 43.7004 91.0525 47.8634 89.7 51.8323C86.108 52.9299 82.527 54.0939 78.9461 55.2248C77.0503 55.8234 75.3099 56.533 73.913 58.0019C72.5882 59.3988 71.5792 61.095 70.8032 62.8411C69.8997 64.8755 69.2621 67.0096 68.6746 69.1604C68.0149 71.5495 67.3665 73.9442 66.8454 76.3665C65.7867 81.2723 65.4097 86.3 65.7257 91.311C65.7589 91.8376 66.2911 92.0372 66.668 91.9041C67.2334 93.2788 67.8543 94.6258 68.525 95.9396C69.4396 97.7578 70.4429 99.5371 71.4961 101.289C74.0293 105.535 76.8453 109.642 79.3785 113.9C79.6667 115.79 79.8719 117.691 79.9772 119.604C80.0548 121.139 80.0825 122.674 80.0492 124.21C80.0159 125.54 79.7 127.037 79.9162 128.351C80.1157 129.52 81.1523 130.391 82.0226 131.095C83.0148 131.904 84.1013 132.591 85.2155 133.218C87.7432 134.626 90.3651 135.901 92.9982 137.092C95.9693 138.428 98.9904 139.642 102.056 140.734C102.488 140.884 102.782 140.585 102.837 140.23C111.74 141.216 119.118 134.376 127.272 131.86C127.61 131.76 127.732 131.483 127.726 131.217C129.445 129.504 131.146 127.713 132.349 125.59C133.752 123.112 132.898 122.286 132.671 119.476C132.327 115.247 132.155 110.696 132.676 105.025C134.101 101.073 135.52 97.1258 136.945 93.1846V93.1902Z" fill="#F4C8CC"/>
<path d="M74.2791 89.5536C73.1317 93.4172 72.2059 97.3362 71.4798 101.3C70.4266 99.548 69.4842 97.8905 68.5696 96.0723C69.5729 94.1877 70.7759 92.3418 72.2559 90.7952C72.2615 90.7952 72.2615 90.7897 72.2615 90.7897C72.5165 90.2021 74.2403 88.1068 74.5285 87.5303C74.8722 86.854 74.4787 88.8496 74.2736 89.5536H74.2791Z" fill="#13091C"/>
<path d="M90.3261 52.7136C93.1309 55.1249 96.6177 56.5551 100.232 57.2203C102.017 57.5473 103.829 57.7081 105.642 57.7247C107.582 57.7413 109.627 57.6471 111.39 56.738C113.014 55.901 114.311 54.2491 114.273 52.3644C114.267 51.9431 113.608 51.9376 113.613 52.3644C113.646 54.0052 112.51 55.4021 111.108 56.1394C109.467 57.0041 107.521 57.0761 105.708 57.0651C102.305 57.0429 98.857 56.5218 95.6919 55.2192C93.918 54.4875 92.2496 53.4952 90.7918 52.2425C90.4703 51.9653 90.0046 52.4309 90.3261 52.7081V52.7136Z" fill="#13091C"/>
<path d="M115.631 51.4054C115.537 51.167 115.354 51.0451 115.154 50.9952C115.038 50.6071 114.916 50.2191 114.794 49.8422C114.533 49.0384 113.258 49.3821 113.524 50.1914C114.594 53.473 115.542 57.004 114.966 60.4796C114.483 63.3842 112.97 66.1669 110.259 67.525C104.528 70.3964 98.4081 66.3609 95.2651 61.627C93.1255 58.4009 91.8615 54.7091 90.6199 51.0728C90.3538 50.2967 89.1509 50.6071 89.3449 51.3665C89.223 51.5495 89.1731 51.7823 89.2785 52.0262C91.3184 56.7545 92.5212 61.7822 94.0955 66.6769C95.4813 70.9784 97.0388 75.8675 100.836 78.6613C104.267 81.1834 109.672 82.6468 113.375 79.9196C117.15 77.1424 117.926 72.0205 118.186 67.658C118.513 62.1425 117.626 56.5661 115.625 51.4164L115.631 51.4054ZM116.296 72.2034C115.858 74.3043 115.099 76.3941 113.596 77.9684C110.381 81.3386 105.143 80.0914 101.717 77.669C98.0588 75.0859 96.6176 70.2356 95.3149 66.1724C94.8992 64.8698 94.5057 63.5616 94.1121 62.2534C95.7972 64.8532 97.9479 67.0815 100.858 68.4895C103.696 69.8642 107.122 70.2079 110.093 69.0272C113.075 67.841 115.082 65.2246 115.936 62.1758C116.207 61.2002 116.357 60.2135 116.412 59.2268C116.75 61.2168 116.933 63.2345 116.939 65.2634C116.944 67.5804 116.773 69.9307 116.296 72.2034Z" fill="white"/>
<path d="M71.1529 93.4726C74.0575 88.456 77.472 83.7498 81.3523 79.4372C81.635 79.1212 81.1693 78.6556 80.8866 78.9716C76.9731 83.323 73.5142 88.0735 70.5874 93.14C70.3768 93.5058 70.9422 93.8384 71.1584 93.4726H71.1529Z" fill="#13091C"/>
<path d="M81.9566 127.148C83.5974 127.802 84.8168 129.315 85.1604 131.039C85.2436 131.455 85.8811 131.277 85.798 130.862C85.4044 128.899 83.9798 127.247 82.1339 126.51C81.9676 126.444 81.7736 126.582 81.7292 126.738C81.6793 126.926 81.7958 127.076 81.9566 127.142V127.148Z" fill="#13091C"/>
<path d="M120.98 131.66C122.959 128.123 125.758 124.115 130.232 123.91C130.653 123.894 130.659 123.234 130.232 123.251C125.503 123.467 122.521 127.563 120.415 131.327C120.21 131.699 120.775 132.031 120.986 131.66H120.98Z" fill="#13091C"/>
<path d="M116.119 127.685C116.667 128.323 117.011 129.149 117.083 129.991C117.122 130.401 117.111 130.817 117.028 131.222C116.989 131.432 116.928 131.637 116.856 131.837C116.817 131.942 116.778 132.042 116.728 132.142C116.706 132.186 116.678 132.231 116.662 132.275C116.656 132.292 116.645 132.308 116.634 132.319C116.562 132.397 116.645 132.43 116.895 132.414C116.678 132.053 116.108 132.38 116.324 132.746C116.479 133.007 116.773 133.018 117.006 132.857C117.233 132.696 117.333 132.397 117.432 132.147C117.649 131.604 117.748 131.017 117.754 130.435C117.759 129.254 117.344 128.106 116.573 127.208C116.296 126.887 115.83 127.353 116.108 127.674L116.119 127.685Z" fill="#13091C"/>
<path d="M136.629 82.0648C138.053 85.2411 137.771 88.9273 136.679 92.1479C135.426 95.8397 133.73 99.3929 131.679 102.713C130.526 104.576 129.251 106.366 127.843 108.046C127.571 108.367 128.037 108.838 128.308 108.511C130.919 105.402 133.098 101.926 134.866 98.2731C135.742 96.466 136.518 94.6146 137.177 92.7188C137.743 91.1002 138.153 89.4982 138.231 87.7798C138.325 85.7233 138.048 83.628 137.2 81.7378C137.028 81.3497 136.457 81.6879 136.629 82.0704V82.0648Z" fill="#13091C"/>
<path d="M133.252 100.319C132.959 102.885 132.46 105.424 132.288 108.002C132.26 108.423 132.92 108.423 132.948 108.002C133.119 105.424 133.618 102.88 133.912 100.319C133.962 99.8974 133.302 99.9029 133.252 100.319Z" fill="#13091C"/>
<path d="M115.476 90.5067C112.239 96.255 107.694 101.244 102.267 104.997C100.748 106.05 99.157 107.003 97.5162 107.851C97.1392 108.045 97.4719 108.616 97.8488 108.422C103.769 105.351 108.952 100.934 112.948 95.5954C114.085 94.0766 115.116 92.4912 116.047 90.8393C116.258 90.4679 115.687 90.1353 115.476 90.5067Z" fill="#13091C"/>
<path d="M76.302 106.438C77.5825 108.572 78.5748 110.856 79.2677 113.245C79.3841 113.65 80.0215 113.478 79.9051 113.068C79.2011 110.623 78.1812 108.284 76.873 106.1C76.6568 105.734 76.0858 106.067 76.302 106.433V106.438Z" fill="#13091C"/>
<path d="M68.4524 96.6432C69.1176 98.1122 69.9768 99.4758 70.836 100.839C71.0633 101.194 71.6343 100.867 71.407 100.507C70.5478 99.1488 69.6886 97.7796 69.0234 96.3107C68.9513 96.1499 68.713 96.1111 68.5744 96.1942C68.4081 96.294 68.3804 96.4825 68.458 96.6432H68.4524Z" fill="#5D607D"/>
<path d="M172.166 393.432C172.022 393.565 171.878 393.692 171.723 393.814C169.772 395.355 167.377 396.098 164.938 396.392C160.01 397.002 154.91 396.154 150.032 395.167C148.197 395.161 146.357 394.978 144.55 394.613C141.557 394.003 139.14 392.523 136.812 390.682C136.69 390.61 136.568 390.544 136.44 390.477C135.509 391.575 134.412 392.257 132.909 392.312C131.241 392.373 129.528 392.135 127.871 392.018C126.407 391.919 124.761 391.985 123.392 391.375C120.892 390.25 119.994 387.151 119.672 384.668C118.813 378.149 121.801 372.046 124.645 366.387C124.667 366.337 124.7 366.292 124.728 366.254C124.75 366.226 124.777 366.198 124.805 366.181C125.044 365.622 125.587 365.228 126.241 364.979C127.582 364.458 129.162 364.297 130.576 364.075C132.643 363.759 134.722 363.565 136.806 363.487C136.424 363.316 136.041 363.127 135.642 362.966C134.938 362.678 135.249 361.525 135.958 361.813C137.128 362.285 138.264 362.833 139.362 363.449C139.572 363.454 139.777 363.443 139.988 363.449C140.249 363.454 140.42 363.593 140.498 363.77C140.476 363.859 140.487 363.953 140.559 364.025C140.565 364.075 140.559 364.114 140.554 364.158C141.307 364.624 142.05 365.106 142.771 365.633C144.206 366.686 145.559 367.828 146.856 369.031H146.862C147.327 369.469 147.787 369.901 148.242 370.35C148.314 370.428 148.392 370.505 148.469 370.583C149.301 371.459 150.138 372.34 151.002 373.183C151.052 373.238 151.102 373.288 151.152 373.343L151.169 373.354C151.474 373.648 151.779 373.936 152.089 374.214C153.386 375.394 154.788 376.381 156.263 377.329C158.087 378.493 159.91 379.657 161.762 380.788C163.275 381.702 164.822 382.545 166.363 383.415C167.782 384.23 169.212 385.1 170.354 386.287C171.213 387.185 171.712 388.194 171.994 389.391C172.249 390.483 172.432 392.052 172.172 393.41L172.166 393.432Z" fill="#5C5263"/>
<path d="M142.848 365.666C142.127 365.139 141.379 364.652 140.625 364.186C140.631 364.142 140.636 364.103 140.631 364.053C140.559 363.981 140.548 363.887 140.57 363.798C140.492 363.621 140.326 363.482 140.06 363.477C139.849 363.471 139.638 363.482 139.433 363.477C138.33 362.861 137.194 362.307 136.019 361.836C135.304 361.547 134.993 362.706 135.703 362.994C136.102 363.155 136.49 363.343 136.872 363.515C134.783 363.593 132.698 363.787 130.62 364.103C129.201 364.325 127.615 364.485 126.268 365.006C125.614 365.25 125.071 365.649 124.833 366.209C124.805 366.226 124.777 366.254 124.755 366.281C124.738 366.486 124.777 366.697 124.86 366.88C124.711 368.82 124.877 371.403 126.989 371.886C129.312 372.418 131.933 372.362 134.295 372.224C138.668 371.952 142.964 370.882 146.95 369.086C145.647 367.883 144.289 366.73 142.854 365.677L142.848 365.666Z" fill="#13091C"/>
<path d="M150.204 244.154C149.444 230.684 148.097 217.253 146.174 203.899C145.16 196.87 143.979 189.869 142.649 182.896C143.014 180.95 143.43 178.982 142.881 177.031C142.299 174.975 141.335 172.996 140.614 170.983C139.101 166.787 137.82 162.502 136.778 158.168C135.925 154.62 135.221 151.028 134.034 147.569C133.159 145.025 131.994 142.563 130.376 140.435C130.359 138.606 130.348 136.771 130.332 134.942C130.321 133.511 130.503 131.932 130.248 130.529C130.149 129.997 129.866 129.554 129.461 129.299C128.741 129.831 127.948 130.263 127.161 130.634C125.609 131.366 123.968 131.837 122.261 132.042C122.194 132.048 122.144 132.037 122.1 132.015C121.884 132.054 121.668 132.092 121.457 132.126C118.447 132.569 115.382 132.73 112.355 133.013C108.746 133.351 105.132 133.683 101.524 134.021C100.686 134.099 100.681 135.418 101.524 135.341C101.834 135.313 102.144 135.285 102.455 135.252C103.458 139.997 102.322 144.947 101.79 149.681C101.235 154.625 100.847 159.587 100.631 164.559C100.21 174.393 100.454 184.254 101.368 194.054C101.418 194.603 101.479 195.152 101.535 195.701C101.379 199.365 101.324 203.034 101.474 206.704C101.801 214.708 103.303 222.574 104.739 230.44C106.196 238.45 107.66 246.46 109.118 254.47C109.855 258.5 110.587 262.535 111.324 266.565C112.034 270.445 112.948 274.364 113.375 278.289C121.097 292.175 121.756 291.376 132.737 290.888C138.219 290.645 144.81 286.82 149.644 276.11C149.788 272.053 149.932 268.261 150.082 265.201C150.548 255.745 150.73 253.605 150.198 244.165L150.204 244.154Z" fill="#5C5263"/>
<path d="M149.738 358.266C149.594 356.42 149.461 354.574 149.339 352.723C149.095 349.025 148.885 345.328 148.713 341.631C148.114 328.388 147.471 314.84 148.48 301.609C148.984 294.979 149.323 284.907 149.639 276.099C147.449 271.565 144.273 267.767 139.317 265.406C128.181 260.506 118.857 268.261 113.369 278.272C113.386 278.427 113.408 278.588 113.425 278.743C113.647 281.016 113.403 283.2 113.114 285.456C112.832 287.668 112.771 289.879 112.937 292.102C113.103 294.286 113.453 296.442 113.89 298.582C113.009 301.526 112.311 304.508 112.211 307.601C112.089 311.298 112.593 314.996 112.97 318.665C113.735 326.121 114.495 333.571 115.26 341.026C116.019 348.427 116.773 355.827 117.532 363.227C117.627 364.153 117.721 365.078 117.815 366.004C117.887 366.691 117.837 367.578 118.209 368.194C118.514 368.698 119.073 368.914 119.594 369.125C120.409 369.452 121.224 369.773 122.05 370.078C125.337 371.276 128.652 371.88 132.144 371.409C135.531 370.949 138.746 369.707 141.834 368.277C144.65 366.974 147.576 365.505 149.694 363.171C150.232 362.578 150.027 361.952 149.966 361.198C149.882 360.223 149.805 359.241 149.733 358.266H149.738Z" fill="#5C5263"/>
<path d="M136.645 185.285C140.038 196.222 142.194 207.496 143.475 218.866C144.761 230.268 145.198 241.748 145.243 253.217C145.287 264.785 144.927 276.343 144.627 287.906C144.323 299.669 144.09 311.443 144.411 323.205C144.733 334.835 145.603 346.47 147.488 357.956C147.732 359.425 147.987 360.894 148.264 362.357C148.341 362.773 148.979 362.595 148.901 362.18C146.728 350.567 145.642 338.782 145.193 326.98C144.744 315.168 144.91 303.338 145.193 291.52C145.47 279.924 145.869 268.328 145.902 256.731C145.936 245.312 145.62 233.877 144.517 222.507C143.425 211.288 141.562 200.118 138.513 189.259C138.125 187.868 137.71 186.488 137.283 185.107C137.155 184.703 136.523 184.875 136.645 185.285Z" fill="#13091C"/>
<path d="M114.622 284.037C116.873 279.497 118.702 274.758 120.077 269.88C120.193 269.47 119.556 269.298 119.439 269.702C118.076 274.525 116.274 279.209 114.051 283.699C113.863 284.076 114.434 284.414 114.622 284.032V284.037Z" fill="#13091C"/>
<path d="M115.786 297.108C117.721 291.548 121.933 287.191 126.496 283.644C127.865 282.579 129.273 281.581 130.697 280.595C131.047 280.356 130.714 279.785 130.365 280.024C125.381 283.461 120.448 287.274 117.244 292.513C116.39 293.904 115.686 295.384 115.149 296.925C115.01 297.324 115.647 297.496 115.786 297.102V297.108Z" fill="#13091C"/>
<path d="M120.382 385.722C125.864 385.999 131.241 387.579 135.997 390.312C136.33 390.506 136.634 389.99 136.296 389.796C131.446 387.013 125.964 385.406 120.382 385.129C119.999 385.112 119.999 385.705 120.382 385.727V385.722Z" fill="#13091C"/>
<path d="M119.894 382.773C123.575 383.549 127.266 384.331 130.858 385.451C132.649 386.005 134.412 386.648 136.125 387.413C137.826 388.172 139.473 389.059 141.141 389.885C142.782 390.694 144.45 391.437 146.196 391.986C147.92 392.529 149.689 392.906 151.479 393.161C155.093 393.677 158.757 393.715 162.405 393.654C165.614 393.599 169.661 393.815 172.017 391.199C172.272 390.916 171.85 390.489 171.595 390.778C169.517 393.089 166.008 392.984 163.153 393.045C159.556 393.117 155.941 393.122 152.366 392.684C148.741 392.241 145.298 391.238 142.011 389.647C140.354 388.843 138.73 387.967 137.061 387.191C135.443 386.437 133.774 385.783 132.078 385.218C128.153 383.909 124.096 383.05 120.049 382.197C119.672 382.119 119.512 382.696 119.888 382.773H119.894Z" fill="#13091C"/>
<path d="M149.711 392.313C149.522 387.707 153.402 384.12 157.305 382.407C158.613 381.831 159.999 381.437 161.407 381.204C161.784 381.143 161.623 380.567 161.246 380.628C156.584 381.398 151.706 384.153 149.794 388.671C149.306 389.824 149.057 391.06 149.112 392.313C149.129 392.695 149.727 392.695 149.711 392.313Z" fill="#13091C"/>
<path d="M136.418 371.653C137.892 371.476 139.395 371.298 140.88 371.464C142.338 371.631 143.635 372.229 144.827 373.072C146.052 373.937 147.177 374.957 148.33 375.916C149.583 376.963 150.836 378.005 152.089 379.053C153.497 380.223 154.899 381.398 156.307 382.567C156.601 382.811 157.022 382.39 156.728 382.146C154.145 379.99 151.562 377.839 148.979 375.683C147.793 374.691 146.628 373.66 145.387 372.745C144.239 371.897 142.976 371.221 141.557 370.966C139.855 370.655 138.12 370.849 136.418 371.054C136.041 371.099 136.035 371.697 136.418 371.653Z" fill="#13091C"/>
<path d="M152.72 382.85C154.262 381.381 155.553 379.657 156.534 377.767C156.712 377.429 156.196 377.124 156.019 377.468C155.06 379.319 153.807 380.993 152.299 382.429C152.022 382.695 152.443 383.116 152.72 382.85Z" fill="#13091C"/>
<path d="M150.326 379.685C152.887 378.965 155.553 378.726 158.203 378.976C158.585 379.015 158.585 378.416 158.203 378.377C155.503 378.122 152.776 378.377 150.17 379.109C149.799 379.214 149.96 379.791 150.331 379.685H150.326Z" fill="#13091C"/>
<path d="M147.554 377.191C148.203 376.348 148.735 375.422 149.145 374.441C149.35 373.959 149.522 373.46 149.66 372.95C149.777 372.523 150.004 371.958 149.66 371.586C149.4 371.304 148.979 371.731 149.239 372.008C149.322 372.096 149.162 372.512 149.134 372.617C149.084 372.823 149.023 373.022 148.962 373.222C148.823 373.671 148.657 374.109 148.458 374.535C148.075 375.367 147.598 376.154 147.039 376.88C146.806 377.185 147.321 377.484 147.554 377.18V377.191Z" fill="#13091C"/>
<path d="M144.145 373.987C146.351 373.355 148.652 373.161 150.935 373.4C151.318 373.438 151.312 372.845 150.935 372.801C148.602 372.552 146.24 372.762 143.99 373.405C143.618 373.51 143.779 374.087 144.15 373.982L144.145 373.987Z" fill="#13091C"/>
<path d="M100.604 408.748C100.022 407.534 99.1347 406.503 98.2589 405.488C97.2833 404.357 96.28 403.26 95.249 402.179C94.0184 400.899 92.7545 399.668 91.4519 398.465C89.739 394.358 88.0262 390.25 86.3188 386.143C84.9829 382.944 83.647 379.74 82.3167 376.542C82.3499 376.436 82.361 376.326 82.3278 376.204C81.8732 374.396 80.3322 373.665 78.5639 373.41C76.8289 373.16 74.8721 373.354 73.5196 373.421C71.5185 373.51 69.523 373.687 67.5275 373.881C67.1505 373.92 66.5296 373.942 65.9254 374.036C65.6483 373.898 65.3046 373.936 65.155 374.219C64.4122 374.474 63.9243 374.945 64.3955 375.877C64.4842 376.043 64.6062 376.126 64.7392 376.159C64.318 377.756 63.6582 379.275 63.0041 380.799C62.1062 382.878 61.3135 384.973 60.9754 387.229C60.6262 389.59 60.6373 391.98 60.7315 394.358C60.8091 396.464 60.9976 397.606 62.6383 399.13C63.8357 400.244 65.0774 401.381 66.5741 402.035C68.359 402.816 68.3367 403.703 69.013 405.383C71.9786 412.805 76.9287 416.165 84.8444 416.181C88.0207 416.181 92.7767 416.602 95.9141 416.104C99.811 415.483 102.616 412.9 100.598 408.748H100.604Z" fill="#5C5263"/>
<path d="M82.3221 376.547C82.3553 376.442 82.3664 376.331 82.3332 376.209C81.8786 374.402 80.3376 373.67 78.5693 373.415C78.3144 373.465 78.0594 373.526 77.8044 373.576C75.2601 374.114 72.7269 374.646 70.1881 375.184C68.9243 375.444 67.6548 375.71 66.3799 375.982C65.9863 376.07 65.4375 376.137 65.299 376.597C65.2158 376.869 65.3267 377.162 65.565 377.296C70.9087 382.462 78.0926 385.616 85.5094 386.104C85.781 386.126 86.0526 386.137 86.3243 386.148C84.9884 382.95 83.6525 379.746 82.3221 376.547Z" fill="#13091C"/>
<path d="M117.671 162.613L116.651 141.593C116.574 139.975 116.579 138.328 116.385 136.721C116.252 135.612 115.903 134.426 114.911 133.783C113.669 132.979 111.873 133.19 110.471 133.267C110.465 133.267 110.454 133.267 110.448 133.267C110.41 133.267 110.382 133.245 110.338 133.251C104.927 133.428 99.5116 133.561 94.1015 133.522C91.6459 133.506 89.1404 133.384 86.8122 132.536C85.1271 131.926 81.4963 130.23 81.6182 133.478C81.8344 139.16 79.9607 144.226 77.688 149.365C75.2934 154.786 72.749 160.13 70.4819 165.607C68.1537 171.233 65.9033 176.926 64.0852 182.746C62.3058 188.456 61.186 194.27 60.8201 200.24C60.4432 206.344 60.6484 212.469 60.7592 218.572C60.8646 224.564 60.9809 230.551 61.1583 236.543C61.5186 248.511 62.1228 260.484 63.3756 272.391C70.6039 287.984 73.0207 286.809 82.4608 286.809C88.2645 286.809 90.5816 286.831 98.5582 275.961C101.862 257.579 104.7 239.098 106.917 220.556C107.843 212.807 108.53 204.924 107.982 197.136C109.451 195.08 110.842 192.968 112.145 190.806C113.78 188.095 115.31 185.296 116.38 182.308C118.641 175.983 117.982 169.187 117.666 162.613H117.671Z" fill="#5C5263"/>
<path d="M87.954 264.092C78.4585 258.771 70.0551 264.192 63.3811 272.385C63.3922 272.496 63.4032 272.607 63.4143 272.718C63.4697 273.222 63.5252 273.726 63.5862 274.231C62.4664 277.357 61.3411 280.478 60.2214 283.604C59.135 286.637 58.1206 289.608 58.2315 292.873C58.298 294.879 58.564 296.892 58.8578 298.898C58.8966 299.896 58.9576 300.888 59.0186 301.886C58.2037 309.491 58.0928 317.157 58.697 324.779C58.7691 329.563 59.1295 334.352 59.379 339.125L60.5707 361.802C60.6705 363.665 60.7647 365.527 60.8645 367.39C60.9587 369.208 60.9699 371.06 61.1694 372.872C61.3468 374.463 62.084 375.555 63.3423 376.509C64.6228 377.479 66.0252 378.293 67.4664 378.997C70.3988 380.433 73.5196 381.431 76.6349 382.401C78.1814 382.883 79.7003 383.266 81.2746 382.673C82.7823 382.102 84.157 381.093 85.432 380.123C86.6681 379.18 88.0261 378.155 88.9574 376.891C89.9385 375.555 89.8721 373.948 89.8388 372.368C89.7667 368.704 89.689 365.045 89.617 361.381C89.4729 353.948 90.2379 343.294 90.8089 335.877C91.5461 326.376 95.2766 293.826 97.6324 281.093C97.9484 279.381 98.2534 277.662 98.5638 275.949C96.4296 271.032 93.0538 266.864 87.954 264.081V264.092Z" fill="#5C5263"/>
<path d="M97.383 137.425C96.108 136.421 94.3564 136.344 92.8265 136.66C88.9795 137.453 86.2745 140.673 84.3233 143.86C83.0872 145.873 81.9896 147.968 80.7036 149.947C79.3233 152.075 77.81 154.115 76.1747 156.061C76.014 156.255 75.9918 156.471 76.0417 156.665C76.0084 156.687 75.9752 156.71 75.9475 156.732C75.2546 157.209 75.3321 160.418 76.0306 159.936C80.0051 157.22 85.4762 150.878 91.7511 149.448C93.9241 148.955 92.2279 147.242 93.9851 145.878C95.4817 144.72 98.475 143.799 99.3619 142.081C100.121 140.612 98.7355 138.495 97.3719 137.425H97.383Z" fill="#13091C"/>
<path d="M121.063 187.662C125.636 184.087 130.67 180.866 136.296 179.248C137.87 178.793 139.483 178.477 141.119 178.311C141.534 178.272 141.54 177.613 141.119 177.651C135.143 178.239 129.628 180.866 124.7 184.192C123.297 185.14 121.934 186.149 120.598 187.197C120.265 187.457 120.731 187.923 121.063 187.662Z" fill="#13091C"/>
<path d="M132.399 175.961C128.624 178.488 124.949 181.155 121.385 183.965C119.611 185.362 117.871 186.792 116.152 188.256C115.293 188.987 114.445 189.73 113.602 190.478C112.821 191.171 111.984 191.848 111.341 192.679C109.983 194.431 110.26 196.709 110.249 198.788C110.243 200.922 110.16 203.056 110.01 205.185C109.711 209.503 109.135 213.799 108.37 218.056C107.449 223.189 106.258 228.266 104.966 233.316C104.861 233.726 105.498 233.904 105.604 233.494C107.799 224.902 109.7 216.204 110.498 207.357C110.692 205.234 110.82 203.106 110.875 200.977C110.903 199.93 110.914 198.887 110.908 197.84C110.903 196.798 110.842 195.722 111.086 194.702C111.346 193.605 112.028 192.807 112.837 192.058C113.658 191.299 114.5 190.567 115.343 189.835C117.045 188.355 118.774 186.903 120.531 185.489C124.467 182.324 128.541 179.337 132.737 176.532C133.087 176.299 132.76 175.728 132.405 175.961H132.399Z" fill="#13091C"/>
<path d="M72.1449 181.853C77.677 181.227 83.2923 181.382 88.7745 182.347C90.321 182.618 91.851 182.957 93.3698 183.35C93.78 183.455 93.9574 182.823 93.5472 182.713C88.1315 181.305 82.5163 180.667 76.9177 180.845C75.3212 180.894 73.7303 181.011 72.1505 181.194C71.7347 181.244 71.7292 181.898 72.1505 181.853H72.1449Z" fill="#13091C"/>
<path d="M77.6217 174.209C86.064 175.191 93.6027 179.542 100.449 184.331C102.383 185.684 104.285 187.092 106.18 188.505C106.518 188.76 106.851 188.189 106.513 187.934C99.7113 182.862 92.6548 177.713 84.5008 175.057C82.2614 174.331 79.961 173.816 77.6217 173.544C77.2005 173.494 77.206 174.154 77.6217 174.204V174.209Z" fill="#13091C"/>
<path d="M114.833 133.495C116.103 133.289 117.172 134.381 117.566 135.485C118.026 136.782 117.91 138.223 117.899 139.575C117.876 142.552 117.849 145.534 117.788 148.511C117.671 154.487 117.439 160.468 116.862 166.416C116.535 169.769 116.103 173.117 115.521 176.438C115.448 176.853 116.08 177.031 116.158 176.615C117.239 170.434 117.821 164.182 118.137 157.923C118.459 151.626 118.514 145.318 118.564 139.016C118.575 137.53 118.636 135.9 117.865 134.564C117.211 133.434 115.986 132.646 114.661 132.863C114.246 132.929 114.423 133.567 114.839 133.5L114.833 133.495Z" fill="#13091C"/>
<path d="M97.6709 143.395C102.732 143.677 107.798 143.921 112.865 143.694C115.348 143.583 117.82 143.361 120.276 142.99C121.889 142.746 123.513 142.53 125.115 142.225C126.751 141.915 128.646 141.565 129.971 140.485C130.298 140.218 129.833 139.753 129.505 140.019C128.364 140.945 126.667 141.244 125.271 141.527C123.768 141.826 122.25 142.014 120.742 142.253C115.869 143.029 110.936 143.201 106.013 143.095C103.231 143.034 100.448 142.89 97.6709 142.735C97.2497 142.713 97.2497 143.373 97.6709 143.395Z" fill="#13091C"/>
<path d="M64.3231 273.488C65.731 270.706 66.9062 267.812 67.8264 264.83C67.9539 264.425 67.3163 264.248 67.1888 264.653C66.2798 267.579 65.1323 270.417 63.7521 273.15C63.5636 273.527 64.129 273.86 64.3231 273.483V273.488Z" fill="#13091C"/>
<path d="M60.8978 289.89C62.9875 285.694 66.4077 282.219 70.5595 280.04C71.7347 279.419 72.9596 278.915 74.229 278.521C74.6337 278.394 74.4619 277.762 74.0517 277.884C69.4564 279.32 65.3932 282.219 62.4941 286.054C61.6627 287.152 60.9421 288.327 60.3268 289.558C60.1383 289.935 60.7037 290.273 60.8978 289.89Z" fill="#13091C"/>
<path d="M97.3218 191.011C98.6744 203.466 96.1854 215.955 94.1899 228.205C92.1888 240.517 90.1157 252.823 88.1867 265.145C86.2632 277.429 84.4671 289.741 83.0148 302.091C81.5625 314.43 80.4428 326.808 79.8719 339.219C79.3065 351.608 79.2843 364.031 80.016 376.414C80.1102 377.966 80.2099 379.518 80.3263 381.065C80.3596 381.486 81.0138 381.486 80.9861 381.065C80.0714 368.687 79.9161 356.265 80.343 343.864C80.7698 331.453 81.7731 319.07 83.1423 306.725C84.5337 294.181 86.2963 281.675 88.2198 269.203C90.1211 256.869 92.1832 244.563 94.1954 232.252C95.1987 226.121 96.2519 219.99 97.1111 213.832C97.9537 207.806 98.5523 201.715 98.3251 195.623C98.2696 194.082 98.1533 192.541 97.987 191.005C97.9427 190.589 97.283 190.584 97.3274 191.005L97.3218 191.011Z" fill="#13091C"/>
<path d="M100.36 410.999C100.11 411.68 99.4062 412.007 98.7576 412.201C97.9705 412.434 97.1336 412.512 96.3242 412.617C94.3841 412.867 92.4329 413.016 90.4817 413.066C88.5305 413.122 86.5737 413.072 84.6225 412.933C82.7434 412.795 80.8421 412.595 79.0295 412.03C77.4663 411.542 75.9752 410.76 74.8222 409.585C73.6359 408.377 73.0317 406.808 72.555 405.211C72.0949 403.682 71.6903 402.141 70.9586 400.716C70.2768 399.391 69.3787 398.199 68.4087 397.074C66.1748 394.48 63.5196 392.24 61.6959 389.319C61.4853 388.987 60.9698 389.314 61.1805 389.646C62.8767 392.362 65.288 394.508 67.4165 396.869C68.4587 398.016 69.4341 399.236 70.1991 400.588C71.0472 402.096 71.4797 403.754 71.9786 405.394C72.4608 406.991 73.0706 408.56 74.207 409.812C75.2879 411.004 76.718 411.841 78.2202 412.395C80.0384 413.066 81.9785 413.316 83.902 413.482C85.9253 413.659 87.9541 413.726 89.9829 413.687C92.2611 413.648 94.5394 413.471 96.7955 413.166C98.2977 412.961 100.354 412.8 100.958 411.137C101.091 410.766 100.493 410.633 100.36 410.999Z" fill="#13091C"/>
<path d="M68.8415 402.961C68.5865 402.019 68.326 401.076 67.8825 400.201C67.428 399.308 66.7517 398.61 65.9591 398C65.1608 397.385 64.3404 396.808 63.5866 396.132C62.7883 395.417 62.0456 394.641 61.3693 393.804C61.1254 393.499 60.6044 393.826 60.8538 394.131C62.1343 395.711 63.6143 397.008 65.2384 398.216C66.0311 398.804 66.7573 399.43 67.2451 400.3C67.7385 401.182 67.9989 402.174 68.2594 403.138C68.3592 403.521 68.9468 403.332 68.8415 402.956V402.961Z" fill="#13091C"/>
<path d="M74.257 408.543C74.8335 406.143 76.4577 404.164 78.4533 402.767C80.7592 401.154 83.5031 400.367 86.2526 399.946C87.9322 399.685 89.6283 399.546 91.3245 399.408C91.7181 399.375 91.6959 398.765 91.3023 398.798C85.6815 399.253 79.3013 399.923 75.5209 404.663C74.6451 405.766 73.9909 407.03 73.6639 408.399C73.5696 408.781 74.1683 408.925 74.2626 408.537L74.257 408.543Z" fill="#13091C"/>
<path d="M64.2959 378.781C65.1329 380.394 66.3136 381.825 67.7382 382.95C69.2071 384.108 70.8424 384.834 72.6162 385.383C73.6251 385.699 74.6117 386.043 75.4875 386.647C76.247 387.168 76.9122 387.833 77.4887 388.548C78.6971 390.04 79.6283 391.769 80.5042 393.471C81.0751 394.579 81.5241 395.716 81.9288 396.896C82.3057 398.005 82.6993 399.114 83.3423 400.095C83.5363 400.389 83.9798 400.173 83.8911 399.84C83.8578 399.718 83.83 399.602 83.7968 399.48C83.697 399.097 83.1095 399.286 83.2149 399.663C83.2481 399.784 83.2758 399.901 83.309 400.023C83.492 399.94 83.6749 399.851 83.8578 399.768C83.2647 398.864 82.8988 397.855 82.5496 396.836C82.2114 395.843 81.8568 394.873 81.4078 393.925C80.5652 392.152 79.5951 390.372 78.4366 388.781C77.3445 387.285 75.9864 385.993 74.2459 385.3C73.2869 384.918 72.278 384.685 71.3135 384.313C70.482 383.992 69.6839 383.571 68.9356 383.077C67.195 381.919 65.7703 380.311 64.8058 378.46C64.6229 378.111 64.1074 378.438 64.2903 378.787L64.2959 378.781Z" fill="#13091C"/>
<path d="M86.9785 399.263C85.9419 396.409 84.9054 393.554 83.8689 390.694C83.6139 389.99 83.3533 389.28 83.0983 388.576C82.8599 387.911 82.6327 387.235 82.5606 386.531C82.4331 385.217 82.7879 383.914 83.5251 382.822C83.7469 382.495 83.2036 382.212 82.9874 382.534C82.2391 383.637 81.8622 384.973 81.9287 386.303C82.0064 387.745 82.6382 389.114 83.126 390.455C84.218 393.454 85.3046 396.453 86.391 399.452C86.5241 399.823 87.1116 399.64 86.973 399.269L86.9785 399.263Z" fill="#13091C"/>
<path d="M76.4241 386.525C76.6569 386.109 76.8786 385.794 77.3442 385.644C77.832 385.483 78.342 385.367 78.8464 385.272C79.883 385.073 80.9417 385.006 81.9949 385.04C82.3885 385.051 82.3663 384.441 81.9727 384.43C80.7865 384.391 79.6058 384.491 78.4418 384.735C77.9096 384.846 77.3276 384.956 76.8343 385.189C76.3853 385.405 76.1246 385.816 75.8863 386.237C75.6923 386.581 76.2356 386.869 76.4241 386.525Z" fill="#13091C"/>
<path d="M78.9185 395.694C80.587 395.477 82.2388 395.777 83.8353 396.281C84.639 396.536 85.4317 396.835 86.2133 397.151C86.9505 397.445 87.7376 397.711 88.3806 398.182C88.6966 398.415 89.1179 397.966 88.7964 397.733C88.1367 397.251 87.3829 396.963 86.629 396.664C85.7976 396.325 84.9605 395.998 84.1069 395.727C82.4273 395.184 80.6591 394.856 78.8963 395.084C78.5083 395.134 78.5249 395.749 78.9185 395.694Z" fill="#13091C"/>
<path d="M81.0862 399.779C83.1649 397.346 84.922 394.646 86.3023 391.753C86.4741 391.398 85.9309 391.11 85.7646 391.465C84.4065 394.308 82.6881 396.964 80.6372 399.364C80.3822 399.663 80.8312 400.079 81.0862 399.779Z" fill="#13091C"/>
<path d="M76.0139 389.047C79.0849 389.036 82.1281 389.518 85.0494 390.466C85.4263 390.588 85.5649 389.99 85.1879 389.868C82.2168 388.909 79.1127 388.426 75.9919 388.437C75.5983 388.437 75.6204 389.053 76.0139 389.047Z" fill="#13091C"/>
<path d="M78.708 393.111C79.6448 391.924 80.5872 390.733 81.3965 389.452C82.2169 388.155 82.8543 386.758 83.3089 385.289C83.4253 384.912 82.8266 384.774 82.7102 385.15C81.8233 388.022 80.0993 390.367 78.2534 392.695C78.0095 393 78.4586 393.421 78.7025 393.111H78.708Z" fill="#13091C"/>
<path d="M198.064 80.8674C198.064 80.8674 198.058 80.8453 198.058 80.8397C197.349 78.4617 196.484 75.9118 194.915 73.9551C193.579 72.281 191.523 71.2555 189.422 72.1314C188.352 72.5804 187.488 73.3897 186.723 74.2378C185.753 75.3132 184.838 76.444 183.879 77.5249C179.954 81.9262 175.73 86.1335 171.168 89.8696C167.953 92.4971 163.912 94.3485 160.997 97.3585C160.93 97.303 160.864 97.2476 160.791 97.1922C160.137 96.7155 159.295 96.211 158.48 96.1057C157.543 95.9893 157.005 96.6656 156.44 97.292C155.719 98.0791 155.01 98.8884 154.345 99.7254C153.402 101.072 153.025 102.63 152.471 104.16C151.795 106.022 151.379 107.907 151.457 109.858C151.523 111.516 151.601 113.206 151.423 114.858C151.351 115.518 151.235 116.183 150.936 116.776C150.697 117.247 150.254 117.785 149.688 117.824C149.544 117.835 149.411 117.813 149.289 117.769C149.289 118.822 149.311 119.875 149.361 120.917C149.511 123.894 149.849 126.876 150.442 129.803C150.509 130.113 150.581 130.424 150.664 130.723C152.366 131.527 154.228 131.848 156.113 131.66C158.375 131.427 160.531 130.535 162.482 129.409C166.584 127.042 170.154 123.694 173.308 120.196C177.781 115.252 181.556 109.709 185.597 104.421C188.125 101.117 190.675 97.8296 193.258 94.5592C194.976 92.3918 197.421 90.2133 198.485 87.6302H198.491C198.834 86.8153 199.028 85.9617 199.028 85.0637C198.823 83.6501 198.469 82.2366 198.058 80.8674H198.064Z" fill="#F4C8CC"/>
<path d="M198.064 80.8676C197.826 80.6514 197.56 80.4574 197.249 80.3188C196.966 80.1913 196.717 80.463 196.75 80.6791C196.639 80.6736 196.534 80.6681 196.423 80.6681C196.396 80.5738 196.329 80.4907 196.213 80.4519C195.553 80.2412 194.86 80.5184 194.228 80.7013C193.53 80.9009 192.837 81.0949 192.149 81.2944C192.033 81.3332 191.966 81.4109 191.933 81.4995C191.828 81.433 191.684 81.433 191.579 81.5661C191.512 81.6437 191.44 81.7157 191.368 81.7822C191.251 81.8044 191.135 81.8765 191.085 81.9929C191.057 82.0151 191.041 82.0317 191.013 82.0483C190.697 82.2257 190.88 82.6303 191.174 82.647C191.479 83.7889 192.094 84.8088 192.876 85.6957C193.724 86.6713 194.843 87.7135 196.141 88.035C196.878 88.2179 197.682 88.1403 198.336 87.7412C198.386 87.7079 198.441 87.6747 198.48 87.6303C198.53 87.5749 198.557 87.5028 198.585 87.4308C198.846 86.7489 199.151 85.8066 199.04 85.0638C198.835 83.6503 198.48 82.2368 198.07 80.8676H198.064Z" fill="#13091C"/>
<path d="M154.849 98.6281C153.946 99.9363 153.236 101.389 152.626 102.852C152.028 104.293 151.496 105.818 151.329 107.381C151.102 109.554 151.241 111.749 151.036 113.922C150.952 114.809 150.936 116.089 150.315 116.804C150.027 117.131 149.517 117.364 149.112 117.098C148.757 116.865 148.641 116.372 148.58 115.984C148.231 113.739 148.818 111.278 149.855 109.293C150.049 108.916 149.483 108.584 149.284 108.961C148.258 110.928 147.743 113.157 147.865 115.38C147.909 116.183 148.02 117.203 148.774 117.674C149.55 118.162 150.515 117.719 150.98 117.015C151.551 116.15 151.595 114.936 151.69 113.938C151.806 112.713 151.834 111.477 151.861 110.247C151.889 109.166 151.861 108.057 152.039 106.987C152.183 106.122 152.432 105.274 152.721 104.443C153.386 102.536 154.267 100.64 155.415 98.9717C155.659 98.6225 155.088 98.2899 154.844 98.6391L154.849 98.6281Z" fill="#13091C"/>
<path d="M160.093 97.5801C156.684 101.045 154.943 106.022 155.486 110.856C155.531 111.272 156.19 111.277 156.146 110.856C155.625 106.183 157.26 101.399 160.564 98.0458C160.863 97.7409 160.398 97.2753 160.098 97.5801H160.093Z" fill="#13091C"/>
<path d="M211.834 71.3554C211.451 71.5549 210.747 71.3609 210.315 71.3554C207.931 71.3221 205.542 71.2944 203.153 71.2667C202.449 71.2556 202.471 70.7456 202.926 70.3798C203.951 69.5538 205.343 69.2379 206.49 68.6004C208.098 67.6969 209.91 65.3853 208.53 63.5395C207.765 62.5195 206.512 63.0018 205.509 63.3066C204.001 63.7667 202.499 64.2379 201.002 64.7257C199.567 65.1913 198.131 65.6625 196.706 66.1725C195.448 66.6215 194.312 67.198 193.458 68.2567C192.549 69.3875 191.828 70.6847 191.091 71.9374C191.052 73.0682 190.542 74.1436 190.337 75.2467C190.326 75.3021 190.321 75.3576 190.309 75.4075C190.287 77.3864 190.16 79.3708 190.47 81.3165C190.864 82.7522 191.479 84.199 192.516 85.2744C192.654 85.3021 192.809 85.3242 192.992 85.3298C195.01 85.4351 198.912 85.158 200.908 84.9085C203.081 84.6369 205.248 84.2932 207.405 83.883C207.61 83.8442 207.82 83.7943 208.026 83.7555C212.809 78.5449 211.911 75.0527 212.139 70.6348C212.022 70.8842 211.917 71.1281 211.823 71.3554H211.834Z" fill="#B35034"/>
<path d="M228.557 61.8153C228.424 61.7931 228.28 61.782 228.136 61.7709C226.656 61.6656 224.627 62.0148 223.247 62.1201C220.303 62.3529 217.36 62.6412 214.422 62.9516C214.167 62.9793 213.918 63.0071 213.663 63.0625C212.62 63.3175 211.584 64.0547 210.625 64.5536C209.455 65.1578 208.275 65.7676 207.1 66.3718C204.827 67.5358 196.257 72.1533 194.594 73.3839C193.951 73.8662 193.374 74.3207 192.998 74.8806C192.648 75.385 192.46 75.9892 192.504 76.7653C192.61 78.8606 195.348 78.4781 196.795 78.5169C199.217 78.5779 201.65 78.5557 204.073 78.4449C205.198 78.3894 206.335 78.3174 207.46 78.2342C208.541 78.1511 209.727 78.1345 210.741 77.7353C211.573 77.4138 226.933 66.9871 228.308 66.1279C229.139 65.6124 230.043 64.9084 229.998 63.8274C229.96 62.7188 229.549 61.9649 228.557 61.8208V61.8153Z" fill="#C4C0CC"/>
<path d="M223.247 62.1149C220.303 62.3477 217.36 62.6359 214.422 62.9464C214.167 62.9741 213.917 63.0018 213.662 63.0572C212.62 63.3122 211.584 64.0495 210.625 64.5483C209.455 65.1526 208.275 65.7623 207.099 66.3665C204.827 67.5306 196.257 72.1481 194.594 73.3787C194.588 73.3787 194.583 73.3897 194.577 73.3953C193.901 73.8997 194.272 74.9751 195.115 74.964C195.281 74.964 195.437 74.964 195.581 74.964C198.003 75.025 200.425 74.9973 202.853 74.8864C203.984 74.8421 205.115 74.77 206.246 74.6758C207.327 74.5926 208.507 74.5815 209.527 74.1824C210.359 73.8609 226.334 63.473 227.715 62.6193C228.075 62.3976 228.818 61.871 228.141 61.7657C226.661 61.6603 224.632 62.0096 223.252 62.1149H223.247Z" fill="#13091C"/>
<path d="M201.734 76.2278C200.941 76.2278 200.148 76.2389 199.356 76.2777C199.012 76.2943 198.68 76.5715 198.696 76.9373C198.713 77.281 198.984 77.6136 199.356 77.597C200.148 77.5582 200.941 77.5415 201.734 77.5471C202.077 77.5471 202.41 77.2422 202.394 76.8874C202.377 76.5271 202.105 76.2278 201.734 76.2278Z" fill="#13091C"/>
<path d="M227.498 69.1383C227.155 68.5729 226.512 68.3179 225.88 68.3123C225.12 68.3123 224.328 68.6061 223.618 68.85C223.457 68.9055 223.302 68.972 223.147 69.0329C223.214 68.8722 223.286 68.717 223.352 68.5562C223.89 67.2148 224.937 64.9199 223.103 64.0607C221.706 63.4066 220.569 64.3489 219.793 65.4299C219.721 65.4077 219.649 65.3966 219.577 65.4021C218.153 65.5962 217.177 66.5163 216.39 67.6693C216.041 68.1848 215.719 68.7281 215.414 69.2768C215.187 68.9831 214.877 68.7669 214.428 68.6948C213.197 68.7225 212.587 69.687 212.149 70.6294C211.578 72.3866 211.152 75.5795 210.032 77.7912C205.47 80.391 207.67 81.4663 208.036 83.7446C208.768 83.6005 209.505 83.4508 210.237 83.2901C211.152 83.085 212.116 82.9187 212.82 82.2479C213.258 81.8266 213.624 81.2945 213.929 80.718C214.505 80.6515 215.098 80.6792 215.669 80.5628C216.44 80.4076 217.094 79.9586 217.559 79.3267C217.593 79.2823 217.615 79.238 217.643 79.1936C217.731 79.1438 217.815 79.0772 217.881 78.9774C218.446 78.1238 218.99 77.248 219.505 76.3666C220.93 75.4741 222.354 74.5817 223.773 73.6892C225.01 72.9132 226.345 72.0928 227.271 70.9454C227.704 70.4077 227.864 69.7591 227.493 69.1383H227.498Z" fill="#B35034"/>
<path d="M214.228 80.4796C214.633 78.8 215.071 77.137 215.475 75.4574C215.947 73.5117 216.423 71.5162 216.035 69.5151C215.952 69.0994 215.32 69.2767 215.398 69.6925C215.78 71.6492 215.248 73.6282 214.782 75.5239C214.389 77.1204 213.973 78.7113 213.591 80.3077C213.491 80.7179 214.128 80.8953 214.228 80.4851V80.4796Z" fill="#13091C"/>
<path d="M211.418 71.7876C210.941 73.3064 210.686 74.8751 210.276 76.4106C210.098 77.0813 209.982 77.8075 209.345 78.1844C208.862 78.4671 208.369 78.6556 208.042 79.1323C207.798 79.4815 208.369 79.8086 208.613 79.4649C208.929 79.0104 209.566 78.8773 209.988 78.5447C210.547 78.1068 210.697 77.3696 210.88 76.721C211.312 75.1467 211.567 73.5226 212.055 71.965C212.183 71.5603 211.545 71.3885 211.418 71.7876Z" fill="#13091C"/>
<path d="M215.819 80.3635C217.332 77.6307 218.674 74.8092 219.838 71.9101C220.414 70.4689 220.979 69.0055 221.434 67.5255C221.606 66.9656 221.667 66.4168 221.34 65.9068C221.096 65.5355 220.691 65.0975 220.209 65.1197C219.788 65.1363 219.782 65.796 220.209 65.7793C220.409 65.7683 220.608 66.0122 220.713 66.1563C220.896 66.4002 220.957 66.6219 220.907 66.9323C220.808 67.5587 220.519 68.1906 220.309 68.7893C219.86 70.0698 219.372 71.3336 218.857 72.5864C217.798 75.1363 216.589 77.6196 215.253 80.0309C215.048 80.4023 215.614 80.7349 215.824 80.3635H215.819Z" fill="#13091C"/>
<path d="M220.271 75.8954C221.396 73.8056 222.527 71.7102 223.657 69.6204C223.857 69.2491 223.292 68.9165 223.086 69.2879C221.956 71.3777 220.825 73.4674 219.7 75.5628C219.5 75.9342 220.066 76.2668 220.271 75.8954Z" fill="#13091C"/>
<path d="M41.6851 140.069C43.1984 139.11 44.357 137.624 45.3159 136.139C46.3747 134.504 47.2338 132.752 48.0653 130.989C49.113 128.761 49.8946 126.416 50.848 124.143C51.3303 122.99 51.8568 121.854 52.461 120.762C53.1096 119.592 53.8801 118.528 54.6783 117.464C58.0209 113.002 61.1916 108.412 64.135 103.678C67.0009 99.0715 69.5619 94.3099 72.1062 89.5261C72.971 87.331 73.819 85.1303 74.6505 82.9297C76.0751 79.1548 77.4775 75.3688 78.8411 71.5772C80.1881 67.8355 81.4464 63.9609 81.4797 59.942C81.4963 58.2735 81.1306 56.7325 79.4676 56.0285C78.0097 55.4077 76.2025 55.3523 74.6394 55.2747C71.319 55.1139 67.9655 55.513 64.767 56.411C58.1152 58.2735 54.3624 62.2813 50.1884 67.7746C45.7372 73.6337 32.2007 103.356 29.0688 111.333C27.6054 115.064 26.1364 118.822 25.3049 122.752C24.6065 126.034 24.274 129.509 25.1499 132.785C25.9758 135.862 27.9436 138.328 30.9369 139.509C32.5611 140.147 34.3293 140.385 36.0644 140.49C37.8216 140.596 39.6287 140.601 41.347 140.18C41.4635 140.152 41.5687 140.113 41.6851 140.08V140.069Z" fill="#F4C8CC"/>
<path d="M78.0095 144.88C77.5272 143.611 76.5571 142.635 75.4762 141.865C74.2068 140.956 72.7933 140.307 71.4518 139.52C69.6669 138.478 67.9874 137.264 66.3688 135.972C64.7668 134.692 63.2314 133.323 61.6904 131.965C60.4598 130.884 59.0684 130.002 57.8766 128.877C56.7291 127.796 55.9088 126.46 55.6981 124.864C55.5097 123.411 55.2215 121.992 54.3845 120.767C53.553 119.553 52.3112 118.672 51.1139 117.868C49.8778 117.042 48.6028 116.144 47.2226 115.534C44.6505 114.764 41.9842 114.326 39.2902 114.276C36.9953 114.232 34.501 114.343 32.317 115.13C30.4378 115.806 28.9411 117.07 27.8491 118.75C26.7682 120.413 26.1308 122.347 25.643 124.259C25.0665 126.521 24.4013 128.993 24.7117 131.344C25 133.528 26.236 135.418 27.6773 137.014C29.2903 138.81 31.1806 140.362 33.0985 141.804C35.1162 143.328 37.2338 144.714 39.3624 146.072C41.502 147.441 43.6306 148.838 45.8756 150.024C48.1095 151.205 50.4709 152.02 52.8323 152.879C55.2326 153.749 57.5552 154.808 59.7724 156.083C60.8811 156.72 61.9564 157.402 63.004 158.134C63.9685 158.81 65.8976 160.046 66.9508 160.584C67.3389 160.784 68.1592 161.682 68.5306 161.815C68.0151 160.773 67.5162 158.777 67.7601 157.652C68.0151 156.465 69.7445 152.685 70.4818 151.721C71.28 150.684 71.3798 152.436 72.7157 152.546C73.586 152.619 74.3122 153.151 74.7944 153.877C74.8831 153.655 74.9718 153.444 75.0716 153.245C76.1691 151.039 77.0783 148.733 77.7767 146.366C77.8987 145.95 78.0206 145.518 78.0761 145.08C78.0539 145.013 78.0372 144.941 78.0095 144.875V144.88Z" fill="#F4C8CC"/>
<path d="M74.4508 69.9031C74.9386 76.8377 73.7634 83.8055 71.2024 90.2578C70.4818 92.0704 69.6504 93.8442 68.7302 95.5626C68.5306 95.934 69.0961 96.2666 69.3012 95.8952C72.5994 89.7589 74.667 82.9574 75.1271 75.9896C75.2601 73.9608 75.2545 71.9264 75.1104 69.9031C75.0827 69.4818 74.4231 69.4818 74.4508 69.9031Z" fill="#13091C"/>
<path d="M36.5737 121.687C39.1014 120.922 41.7953 120.54 44.4394 120.54C45.6811 120.54 46.9229 120.64 48.1202 120.978C49.3896 121.333 50.5813 121.926 51.6678 122.669C53.0092 123.583 54.1844 124.72 55.2653 125.922C55.548 126.238 56.0137 125.773 55.731 125.457C53.8352 123.345 51.6012 121.449 48.8795 120.523C46.3019 119.648 43.4417 119.792 40.781 120.141C39.301 120.335 37.8319 120.623 36.4018 121.056C35.9971 121.177 36.169 121.815 36.5792 121.693L36.5737 121.687Z" fill="#13091C"/>
<path d="M53.359 119.277C50.2326 116.261 48.1207 112.342 47.6883 107.996C47.6495 107.58 46.9899 107.575 47.0287 107.996C47.4777 112.525 49.6339 116.605 52.8878 119.742C53.1926 120.036 53.6583 119.57 53.3534 119.277H53.359Z" fill="#13091C"/>
<path d="M71.7512 161.283C70.6758 161.821 69.1349 162.12 68.3533 160.961C68.1149 160.612 67.5439 160.939 67.7823 161.294C68.2535 161.987 68.9685 162.381 69.8055 162.425C70.5982 162.464 71.3854 162.209 72.0838 161.859C72.4608 161.671 72.1281 161.1 71.7512 161.289V161.283Z" fill="#5D607D"/>
<path d="M58.5247 135.513C61.6898 136.555 64.8549 137.602 68.0201 138.644C68.4247 138.778 68.5966 138.14 68.1975 138.007C65.0324 136.965 61.8671 135.917 58.702 134.875C58.2973 134.742 58.1256 135.38 58.5247 135.513Z" fill="#13091C"/>
<path d="M101.54 137.02C101.418 136.698 101.235 136.41 101.008 136.155C100.653 135.761 100.193 135.451 99.7054 135.24C98.364 134.658 96.8174 134.664 95.3817 134.625C94.4116 134.597 92.161 134.653 92.0058 134.708C91.9227 134.736 91.6401 134.758 91.6567 134.592C91.6844 134.359 93.5246 133.904 93.7519 133.81C94.5834 133.478 95.4038 133.084 96.1077 132.524C96.202 132.447 96.2963 132.369 96.3628 132.269C96.4903 132.075 96.5014 131.826 96.4459 131.599C96.263 130.845 95.5978 130.274 94.8827 130.024C94.3672 129.847 93.8185 129.803 93.2753 129.803C90.9416 129.791 88.4693 130.39 86.3074 131.244C85.5314 131.549 84.7388 131.898 84.0459 132.369C83.8685 132.491 83.6966 132.624 83.5247 132.763C83.048 133.289 82.6268 133.877 82.2055 134.464C82.4993 133.622 82.7377 132.757 82.9206 131.876C82.976 131.61 82.8929 131.255 82.6157 131.133C82.1002 130.895 81.6234 130.617 81.1855 130.257C80.8307 129.963 80.4206 130.03 80.149 130.39C79.3508 131.443 78.3918 132.48 77.7432 133.633C77.1501 134.681 77.0004 136.022 76.7454 137.181C76.2687 139.32 75.7919 141.471 75.0436 143.527C72.8984 146.709 70.6202 150.401 69.6945 154.132C69.3009 155.728 69.0625 157.519 69.6556 159.098C70.088 160.257 71.097 161.122 72.2555 161.465C73.6856 161.349 75.1101 160.889 76.0192 159.941L80.6478 155.107C81.4405 154.281 82.2277 153.455 83.0203 152.629C83.6911 151.925 84.3396 151.133 85.0879 150.517C86.0358 149.741 87.2831 149.891 88.425 149.819C89.4394 149.758 90.4537 149.658 91.4571 149.503C92.7431 149.304 94.8163 148.622 94.5724 146.914C94.4671 146.205 93.8739 145.822 93.2309 145.662C91.8451 145.323 90.4261 145.257 89.0126 145.141C88.7077 145.113 88.4027 145.091 88.1034 145.024C88.2032 145.046 88.691 144.741 88.7963 144.703C89.1178 144.586 89.4504 144.498 89.783 144.414C90.8528 144.137 91.9505 144.015 93.0314 143.821C94.201 143.616 95.3705 143.345 96.529 143.078C96.6288 143.056 96.7342 143.029 96.8339 143.006C97.6931 142.602 98.5968 142.247 99.2841 141.565C99.7775 141.072 100.138 140.418 100.154 139.719C100.154 139.62 100.154 139.503 100.221 139.426C100.271 139.359 100.354 139.331 100.431 139.304C101.313 138.949 101.878 137.962 101.529 137.036L101.54 137.02Z" fill="#B35034"/>
<path d="M87.6381 144.664C86.8066 144.681 85.9807 144.692 85.1492 144.708C84.412 144.72 83.78 144.775 83.1703 145.224C82.0173 146.066 81.0194 147.131 80.1713 148.278C79.9163 148.616 80.4873 148.949 80.7423 148.611C81.5183 147.563 82.4496 146.571 83.5083 145.795C84.0904 145.368 84.678 145.379 85.3709 145.368C86.1303 145.357 86.8898 145.34 87.6437 145.329C88.0649 145.324 88.0705 144.664 87.6437 144.67L87.6381 144.664Z" fill="#13091C"/>
<path d="M100.038 138.195C94.5335 138.051 88.63 137.912 83.5968 140.495C82.1999 141.21 80.9249 142.136 79.7886 143.217C79.4837 143.511 79.9494 143.976 80.2542 143.683C82.211 141.815 84.589 140.529 87.1888 139.797C89.7941 139.065 92.5102 138.849 95.2098 138.805C96.8173 138.777 98.4303 138.81 100.038 138.855C100.459 138.866 100.459 138.206 100.038 138.195Z" fill="#13091C"/>
<path d="M91.7568 134.11C90.5595 134.11 89.3677 134.126 88.1704 134.176C87.1116 134.221 85.9088 134.143 84.972 134.719C84.0795 135.268 83.2924 136.078 82.5219 136.782C81.6461 137.585 80.7924 138.417 79.9609 139.27C79.6671 139.575 80.1328 140.041 80.4266 139.736C81.186 138.955 81.962 138.195 82.7547 137.458C83.5252 136.743 84.3122 135.95 85.1825 135.363C86.075 134.764 87.2946 134.869 88.3256 134.83C89.4675 134.786 90.6094 134.764 91.7513 134.769C92.1725 134.769 92.1781 134.11 91.7513 134.11H91.7568Z" fill="#13091C"/>
<path d="M81.4849 133.833C79.3453 135.668 77.516 137.846 76.0692 140.263C75.853 140.629 76.4185 140.962 76.6402 140.596C78.0592 138.223 79.8553 136.1 81.9506 134.299C82.2721 134.021 81.8064 133.556 81.4849 133.833Z" fill="#13091C"/>
<path d="M158.69 77.686C157.909 71.6827 156.434 65.8513 154.71 60.0531C154.178 58.2626 153.014 56.0509 151.157 55.624C151.113 55.5298 151.068 55.43 151.024 55.3358C150.054 53.4068 148.081 52.9079 146.135 52.3702C143.912 51.7549 141.634 51.3669 139.345 51.0953C134.655 50.5409 129.91 50.4301 125.187 50.2582C124.483 49.6263 123.796 48.9722 123.142 48.2627C121.468 46.4445 119.772 44.715 117.582 43.5177C115.481 42.3647 113.164 41.7106 110.775 41.5388C110.592 41.5277 110.459 41.5887 110.354 41.6774C110.376 41.7827 110.392 41.8825 110.409 41.9878C110.442 42.1984 110.459 42.4091 110.481 42.6197C110.526 42.6308 110.564 42.6419 110.609 42.653C111.058 42.6807 111.473 42.8581 111.767 43.2017C112.371 43.9002 112.493 44.9201 112.554 45.8015C112.571 46.0232 112.577 46.245 112.582 46.4667C112.665 46.9046 112.732 47.3203 112.809 47.6806C113.297 49.848 114.117 51.9323 115.121 53.9112C117.238 58.0963 120.143 61.8823 123.036 65.5519C128.818 72.8911 135.248 79.6871 141.612 86.5163C142.804 87.5529 143.99 88.6061 145.204 89.615C146.523 90.707 147.853 91.7823 149.112 92.952C150.315 94.0717 151.523 95.1803 152.748 96.2779C153.53 96.9763 154.5 97.9575 155.137 98.7945C155.193 98.7391 155.248 98.6892 155.309 98.6337C155.946 98.0406 156.706 97.0373 157.404 96.5107C158.319 95.8178 159.843 96.5938 160.043 96.6936C160.015 96.3444 160.01 95.9841 160.004 95.8344C159.743 89.7757 159.483 83.7004 158.696 77.6804L158.69 77.686Z" fill="#5C5263"/>
<path d="M125.803 50.9125C128.469 52.9746 131.141 55.0311 133.807 57.0932C135.132 58.1131 136.451 59.1386 137.776 60.1586C138.863 60.9956 140.11 61.8659 140.575 63.2129C140.653 63.0798 140.731 62.9413 140.803 62.8082C138.092 63.7229 135.315 64.5931 132.715 65.7905C131.612 66.3004 130.808 67.0044 130.37 68.1574C129.866 69.4878 129.517 70.9013 129.101 72.2649C128.979 72.6696 129.611 72.847 129.738 72.4423C130.132 71.1563 130.487 69.8592 130.919 68.5898C131.119 68.0133 131.385 67.4812 131.856 67.082C132.272 66.7217 132.787 66.4778 133.286 66.2616C135.786 65.1696 138.397 64.3215 140.98 63.4513C141.141 63.3958 141.274 63.224 141.207 63.0466C140.858 62.0488 140.165 61.2672 139.367 60.5965C138.413 59.7872 137.399 59.0555 136.407 58.2905C134.217 56.5998 132.028 54.9092 129.833 53.2185C128.597 52.2651 127.36 51.3116 126.124 50.3527C125.792 50.0921 125.459 50.6631 125.792 50.9236L125.803 50.9125Z" fill="#13091C"/>
<path d="M131.052 67.9746C134.101 67.8471 137.139 68.2074 140.149 68.662C141.579 68.8781 143.014 69.0888 144.428 69.4047C145.769 69.7041 147.283 70.0478 148.458 70.7905C149.095 71.1952 149.361 71.816 149.627 72.4923C149.899 73.1686 150.16 73.8504 150.415 74.5322C150.925 75.8958 151.412 77.2705 151.878 78.6508C152.804 81.4169 153.624 84.2162 154.339 87.0377C155.154 90.2416 155.825 93.4789 156.368 96.7383C156.44 97.154 157.072 96.9766 157.005 96.5609C156.013 90.6075 154.572 84.7262 152.687 78.9889C152.205 77.5311 151.701 76.0788 151.163 74.6431C150.897 73.9335 150.631 73.2295 150.354 72.5311C150.115 71.9214 149.899 71.2784 149.461 70.7739C149.056 70.3083 148.497 70.0256 147.942 69.7928C147.266 69.5101 146.573 69.2773 145.869 69.0777C144.439 68.6786 142.976 68.4347 141.512 68.2019C138.053 67.6586 134.567 67.1653 131.058 67.3094C130.636 67.326 130.631 67.9857 131.058 67.9691L131.052 67.9746Z" fill="#13091C"/>
<path d="M151.24 56.2891C154.162 66.2336 155.874 76.5274 156.318 86.8821C156.445 89.82 156.468 92.7579 156.39 95.6958C156.379 96.117 157.039 96.117 157.05 95.6958C157.316 85.2745 156.318 74.8311 154.073 64.6483C153.441 61.7769 152.704 58.9277 151.878 56.1117C151.761 55.7071 151.124 55.8789 151.24 56.2891Z" fill="#13091C"/>
<path d="M91.9781 40.6574C88.7354 40.8237 85.4205 41.0842 82.6767 42.9966C81.2631 43.9778 79.9606 45.1308 78.6247 46.2172C77.4828 47.143 76.3408 48.0687 75.1989 48.9999C75.1324 48.9888 75.0604 48.9778 74.9939 48.9667C74.9551 48.9667 74.9163 48.9667 74.8775 48.9667C73.7799 48.7782 72.6047 48.9944 71.4961 48.9944C70.3874 48.9944 69.2788 49.0221 68.1702 49.0886C66.1358 49.2161 64.107 49.4046 62.0727 49.4766C59.9773 49.5487 57.882 49.4877 55.7866 49.5709C53.8022 49.6485 51.6958 49.7815 49.8832 50.674C49.085 51.0675 48.2479 51.4445 47.5273 51.9711C46.8621 52.4533 46.2524 53.0132 45.4986 53.3569C45.4986 53.3569 45.4986 53.3569 45.493 53.3569C45.4875 53.3624 45.4819 53.3735 45.4708 53.3791C45.4431 53.3791 45.4209 53.3791 45.3931 53.3791C45.3654 53.3791 45.3378 53.3791 45.31 53.3791C43.1205 53.3125 40.9586 54.1274 39.1903 55.4578C36.7292 57.3036 35.1549 60.0309 33.9021 62.7859C30.9199 69.3379 28.3756 76.1284 25.8202 82.8578C20.5653 96.6881 15.7759 110.685 11.0864 124.715C8.76933 131.644 6.26386 138.556 4.34591 145.612C2.41134 152.735 1.72395 160.014 1.26941 167.364C0.748353 175.773 0.327048 184.188 0 192.602C0.837022 194.104 2.27265 195.152 3.8192 195.862C5.53205 196.649 7.42233 197.07 9.28485 197.286C11.8181 197.58 14.5398 197.752 17.0287 197.109C17.195 197.064 17.389 197.164 17.4333 197.336C18.287 200.806 18.9245 204.326 19.4123 207.868C20.2936 214.265 20.7205 220.734 20.6761 227.192C20.6706 228.267 20.6096 229.342 20.5209 230.412C20.5375 230.412 20.5542 230.412 20.5708 230.412C19.9334 246 19.5231 261.593 19.3623 277.191C19.3069 282.829 19.1019 288.511 19.2959 294.143C19.3735 296.41 20.0552 298.305 21.7126 299.896C23.3534 301.482 25.3878 302.74 27.3944 303.81C31.4742 305.988 35.9864 307.308 40.5928 307.701C42.9043 307.901 45.2491 307.867 47.5495 307.546C49.6448 307.252 51.2025 306.249 51.3078 303.987C51.3632 302.812 51.1969 301.598 51.1304 300.423C51.0362 298.876 50.9419 297.335 50.8477 295.789C50.6759 292.984 50.504 290.174 50.3322 287.369C49.9774 281.615 49.6172 275.861 49.2513 270.107C48.5196 258.738 47.7436 247.375 46.8788 236.022C45.1493 213.312 43.0705 190.629 40.2712 168.024C39.146 158.938 37.1616 149.992 35.5375 140.989C34.7614 136.688 34.0241 132.375 34.0518 127.991C34.0795 124.011 34.6338 119.931 36.3966 116.322C38.2868 112.453 41.2912 109.316 43.7635 105.829C52.4552 93.5728 62.8155 82.6194 72.7821 71.4055L89.7942 52.2649C89.9605 52.1928 90.099 52.0709 90.16 51.8824C91.2686 48.4899 92.0946 45.0144 92.6212 41.4778C92.6822 41.0842 92.4549 40.6186 91.9837 40.6463L91.9781 40.6574Z" fill="#5C5263"/>
<path d="M43.7634 54.0387C38.9575 65.1528 34.1515 76.2725 29.3456 87.3866C26.962 92.9021 24.5785 98.4176 22.1894 103.928C19.9167 109.188 17.5497 114.426 15.5542 119.803C13.603 125.058 12.0786 130.468 11.4854 136.056C10.8591 141.926 11.1474 147.852 11.6795 153.717C12.45 162.181 13.3202 170.651 14.5286 179.066C15.277 184.265 16.1971 189.431 17.0009 194.62C17.1117 195.335 17.2227 196.05 17.328 196.765C17.389 197.181 18.0264 197.003 17.9654 196.588C17.1949 191.432 16.2803 186.299 15.4987 181.15C14.3402 173.484 13.4976 165.767 12.7493 158.051C12.195 152.292 11.6462 146.527 11.8292 140.734C12.0176 134.925 13.0875 129.271 14.8779 123.75C16.6351 118.34 18.9244 113.124 21.1805 107.913C23.564 102.398 25.9477 96.8821 28.3368 91.3722C33.0873 80.3855 37.8378 69.3989 42.5883 58.4178C43.1704 57.0708 43.7524 55.7238 44.3344 54.3824C44.5007 53.9999 43.9353 53.6617 43.7634 54.0498V54.0387Z" fill="#13091C"/>
<path d="M74.3678 49.0995C70.1993 51.7436 66.3135 54.8035 62.3391 57.7303C61.9067 58.0518 61.4633 58.3622 61.0309 58.6893C60.6651 58.9664 60.3435 59.3323 60.4267 59.8312C60.5819 60.7735 61.8845 61.2613 62.6107 61.6549C63.6916 62.2425 64.8058 62.7746 65.9366 63.2513C66.9953 63.7003 68.1151 64.0218 69.1572 64.5041C69.6949 64.7535 70.2049 65.0806 70.5597 65.5684C70.92 66.0673 71.114 66.6604 71.2415 67.2591C71.5297 68.595 71.5963 69.9919 71.5741 71.3555C71.5686 71.7768 72.2282 71.7823 72.2337 71.3555C72.2559 70.1582 72.1782 68.9664 72.0008 67.7857C71.8622 66.8433 71.6239 65.8733 71.0307 65.1028C70.4099 64.3045 69.4787 63.8943 68.553 63.5562C67.4499 63.1515 66.3579 62.7414 65.2881 62.2536C64.2127 61.7658 63.1651 61.2281 62.1451 60.6405C61.8125 60.452 60.9976 60.0972 61.0863 59.615C61.1251 59.3933 61.4301 59.227 61.5908 59.105C61.8735 58.8999 62.1561 58.6948 62.4388 58.4842C64.3512 57.0817 66.2359 55.646 68.1483 54.2381C70.2935 52.6583 72.461 51.1062 74.7115 49.676C75.0663 49.4488 74.7392 48.8778 74.3789 49.1051L74.3678 49.0995Z" fill="#13091C"/>
<path d="M69.0183 63.7505C66.6901 64 64.3897 64.4046 62.1226 64.9811C60.1714 65.48 58.2589 66.1008 56.352 66.7383C55.4208 67.0487 54.4896 67.3592 53.5528 67.6585C52.5384 67.98 51.6958 68.3292 51.2523 69.3658C50.8421 70.3303 50.5815 71.3724 50.2379 72.3591C49.8942 73.3624 49.5339 74.3658 49.1681 75.3635C47.6326 79.532 45.9365 83.6451 44.2735 87.7637C42.533 92.0874 40.8256 96.4277 39.3234 100.846C37.7491 105.474 36.4076 110.18 35.4431 114.975C35.3212 115.591 35.1993 116.211 35.0884 116.832C35.0108 117.248 35.6482 117.425 35.7258 117.01C37.411 107.664 40.6095 98.7115 44.1183 89.9144C45.7369 85.8513 47.4221 81.8103 48.9852 77.7194C49.7336 75.7682 50.4541 73.8004 51.1193 71.8159C51.2634 71.378 51.4075 70.9401 51.5517 70.5021C51.7235 69.9644 51.8677 69.3492 52.2945 68.95C52.6825 68.5787 53.2368 68.4512 53.7301 68.2904C54.2179 68.1352 54.7058 67.9745 55.1936 67.8137C57.2723 67.1263 59.3399 66.4168 61.4519 65.8348C63.9352 65.153 66.4684 64.6762 69.0238 64.3991C69.4396 64.3547 69.4451 63.6951 69.0238 63.7394L69.0183 63.7505Z" fill="#13091C"/>
<path d="M29.6617 111.067C29.645 111.212 29.6617 111.084 29.6395 111.228C29.6284 111.311 29.6117 111.394 29.6006 111.478C29.5674 111.672 29.5342 111.866 29.5009 112.06C29.4122 112.542 29.3124 113.019 29.2126 113.495C28.9244 114.859 28.6196 116.217 28.3147 117.575C27.4001 121.683 26.5186 125.796 25.7204 129.931C24.6062 135.707 23.6362 141.505 22.8324 147.331C21.8568 154.399 21.1196 161.499 20.6484 168.617C20.1052 176.799 19.9112 185.003 20.0997 193.195C20.1218 194.271 20.1551 195.346 20.1939 196.416C20.2105 196.837 20.8702 196.843 20.8536 196.416C20.5598 188.09 20.665 179.748 21.1362 171.427C21.5464 164.155 22.2394 156.899 23.1817 149.67C23.9633 143.673 24.9278 137.691 26.0475 131.749C26.8624 127.425 27.7659 123.118 28.7194 118.817C29.2515 116.411 29.8724 114.011 30.2548 111.577C30.2826 111.406 30.3047 111.228 30.3268 111.056C30.3767 110.635 29.7171 110.641 29.6672 111.056L29.6617 111.067Z" fill="#13091C"/>
<path d="M27.4335 161.122C26.9512 169.509 26.1197 177.857 24.939 186.172C23.969 193.012 22.8437 199.825 22.0344 206.687C21.4912 211.299 21.081 215.928 20.7927 220.568C20.765 220.989 21.4246 220.989 21.4524 220.568C21.9402 212.824 22.8049 205.124 23.9301 197.447C24.9556 190.435 26.0643 183.434 26.8403 176.388C27.3946 171.311 27.8048 166.222 28.0931 161.128C28.1153 160.707 27.4612 160.707 27.4335 161.128V161.122Z" fill="#13091C"/>
</svg>
