<svg width="150" height="407" viewBox="0 0 150 407" fill="none" xmlns="http://www.w3.org/2000/svg">
<path d="M78.3655 397.515C78.3285 395.874 78.1175 394.228 77.7481 392.629C77.4527 391.342 77.1466 389.685 76.0439 388.82C74.9148 387.939 70.1819 384.451 68.8259 384.303C67.0795 384.108 63.6657 384.762 61.914 384.641C58.7166 384.419 59.8932 386.704 56.8646 388.018C55.1868 388.746 53.7253 389.87 52.2532 390.941C50.6228 392.123 48.9924 393.31 47.3568 394.492C44.1594 396.813 40.9619 399.135 37.7645 401.457C37.659 401.398 37.5482 401.346 37.4426 401.288C36.7514 400.913 36.1341 401.968 36.8253 402.343C42.7031 405.514 49.098 406.791 55.7355 406.717C59.2548 406.68 62.7846 406.606 66.2933 406.311C68.0187 406.163 69.7388 405.952 71.4377 405.641C72.7304 405.403 74.0283 405.113 75.2155 404.533C76.3288 403.989 77.3049 403.145 77.8114 401.995C78.4129 400.628 78.3918 398.982 78.3549 397.52L78.3655 397.515Z" fill="#731C26"/>
<path d="M45.3306 399.319C53.857 402.042 63.2065 402.496 71.9282 400.406C74.0651 399.894 76.1967 399.119 77.8113 397.583C78.0962 397.314 77.6636 396.882 77.3787 397.151C75.933 398.528 74.0335 399.245 72.1287 399.731C70.0604 400.258 67.9341 400.601 65.813 400.823C61.4337 401.282 56.9858 401.161 52.6382 400.454C50.2164 400.058 47.8262 399.483 45.4941 398.739C45.1195 398.618 44.9612 399.208 45.3306 399.325V399.319Z" fill="#13091C"/>
<path d="M54.1472 401.171C55.6668 400.892 57.123 400.301 58.3946 399.42C59.0172 398.987 59.5818 398.491 60.1147 397.953C60.6951 397.362 61.2807 396.797 62.088 396.539C63.597 396.048 65.2749 396.381 66.8314 396.36C68.5462 396.338 70.2557 396.122 71.923 395.726C73.7697 395.288 75.5531 394.618 77.2415 393.753C77.5898 393.574 77.2837 393.046 76.9355 393.225C73.9016 394.787 70.5248 395.658 67.1057 395.747C65.5492 395.784 63.94 395.505 62.3994 395.832C61.6712 395.985 61.0222 396.312 60.4577 396.792C59.8667 397.293 59.3708 397.89 58.7746 398.38C57.4027 399.52 55.7407 400.269 53.9942 400.586C53.609 400.654 53.7726 401.245 54.1578 401.171H54.1472Z" fill="#13091C"/>
<path d="M56.9648 389.996C59.1228 391.194 61.5974 391.548 64.0403 391.49C65.2908 391.458 66.536 391.331 67.7706 391.162C68.9261 391.009 70.1027 390.867 71.2266 390.561C72.3768 390.25 73.4373 389.717 74.176 388.757C74.4134 388.445 73.8858 388.144 73.6484 388.45C72.361 390.118 69.8178 390.271 67.9025 390.535C65.6073 390.851 63.2383 391.068 60.9326 390.698C59.6504 390.492 58.4053 390.097 57.2656 389.464C56.9226 389.274 56.6166 389.801 56.9595 389.991L56.9648 389.996Z" fill="#13091C"/>
<path d="M148.292 390.191C148.155 388.862 147.965 387.543 147.722 386.229C147.316 384.071 146.704 381.797 145.147 380.166C143.454 378.383 140.879 377.771 138.715 376.779C136.368 375.703 134.109 374.431 131.978 372.975C131.614 372.727 131.26 372.468 130.907 372.21C131.155 371.946 131.207 371.492 130.806 371.26C128.4 369.878 126.015 368.421 123.557 367.129C121.262 365.926 118.829 365.161 116.254 364.855C111.258 364.258 106.256 365.393 102.167 368.358C98.3309 371.144 95.5186 375.054 93.4767 379.296C92.3687 381.607 91.4611 384.008 90.6538 386.435C89.9943 388.429 89.1395 390.904 91.1182 392.439C93.1179 393.99 95.6136 395.33 98.067 395.964C100.605 396.623 103.174 396.491 105.723 395.974C108.319 395.447 110.883 394.581 113.548 394.46C116.307 394.333 118.919 395.199 121.488 396.106C126.19 397.768 131.012 399.019 136.035 398.897C138.446 398.839 140.873 398.475 143.169 397.705C145.047 397.077 147.733 396.201 148.329 394.059C148.667 392.84 148.419 391.426 148.292 390.191Z" fill="#731C26"/>
<path d="M112.519 388.36C115.025 387.722 117.542 388.466 119.874 389.395C122.174 390.313 124.395 391.4 126.796 392.049C131.329 393.273 136.167 393.315 140.731 392.233C143.311 391.621 145.801 390.64 148.102 389.315C148.445 389.12 148.133 388.587 147.791 388.783C143.68 391.146 138.963 392.37 134.225 392.392C131.883 392.402 129.54 392.117 127.266 391.531C124.865 390.914 122.644 389.859 120.359 388.925C117.827 387.891 115.093 387.062 112.36 387.759C111.975 387.854 112.139 388.45 112.524 388.35L112.519 388.36Z" fill="#13091C"/>
<path d="M125.699 391.531C127.118 391.178 127.92 389.912 128.764 388.83C129.202 388.265 129.682 387.706 130.31 387.347C131.181 386.857 132.215 386.878 133.186 386.941C134.827 387.052 136.431 387.078 138.072 386.909C139.681 386.741 141.285 386.461 142.847 386.018C144.245 385.617 145.749 385.094 146.851 384.113C147.147 383.849 146.714 383.417 146.419 383.68C145.469 384.525 144.176 384.978 142.984 385.342C141.422 385.817 139.808 386.118 138.183 386.292C136.6 386.461 135.033 386.472 133.45 386.355C132.526 386.287 131.566 386.239 130.674 386.53C129.973 386.762 129.387 387.2 128.891 387.738C127.867 388.841 127.113 390.555 125.535 390.951C125.15 391.046 125.314 391.637 125.699 391.542V391.531Z" fill="#13091C"/>
<path d="M124.834 379.491C127.583 380.763 130.521 381.575 133.534 381.903C135.033 382.066 136.547 382.103 138.051 382.019C138.784 381.976 139.518 381.903 140.246 381.802C140.784 381.728 141.296 381.649 141.797 381.433C142.652 381.069 143.923 380.251 143.517 379.143C143.385 378.774 142.789 378.932 142.926 379.307C143.232 380.14 141.934 380.752 141.322 380.963C140.8 381.143 140.235 381.196 139.686 381.259C139.027 381.338 138.367 381.391 137.708 381.422C134.975 381.544 132.226 381.254 129.577 380.552C128.057 380.151 126.575 379.618 125.145 378.958C124.786 378.795 124.475 379.322 124.834 379.491Z" fill="#13091C"/>
<path d="M141.343 376.737C139.818 372.996 138.293 369.25 136.768 365.509C136.462 364.765 136.214 363.926 135.776 363.245C135.338 362.565 134.674 362.195 133.972 361.837C132.658 361.156 131.297 360.56 129.909 360.043C127.466 339.17 124.928 318.307 122.274 297.456C120.291 281.843 118.238 266.241 116.138 250.644C110.466 245.991 103.633 243.31 95.2123 244.17C82.7287 256.654 79.0617 274.593 75.4 291.894C75.458 292.322 75.516 292.749 75.5741 293.171C75.5582 293.609 75.5371 294.042 75.5213 294.48C75.0201 308.71 77.8165 331.118 78.8084 345.333C79.2991 352.371 80.0747 359.388 81.2355 366.348C81.5257 368.089 81.8686 369.825 82.1641 371.566C82.4701 373.334 82.697 375.196 82.2907 376.969C81.9109 378.626 80.9981 380.066 80.2172 381.554C79.9112 382.134 79.6368 382.725 79.373 383.327C79.3255 383.622 79.278 383.913 79.2358 384.208C79.0775 385.364 79.03 386.524 78.8717 387.675C78.7293 388.714 78.534 389.743 78.3863 390.777C78.2491 391.722 78.1436 392.676 78.1489 393.626C78.1542 394.397 78.2016 395.283 78.5446 395.99C79.0617 397.061 80.4388 397.436 81.5046 397.657C82.8711 397.937 84.2746 397.99 85.6676 398.064C87.4035 398.153 89.1182 398.417 90.8594 398.48C92.1943 398.528 93.5345 398.491 94.8694 398.375C97.212 397.663 99.502 396.76 101.707 395.805C107.728 393.194 113.521 390.054 118.993 386.435C121.673 384.662 124.264 382.768 126.796 380.784C129.155 378.937 131.55 377.027 134.315 375.819C134.594 375.697 134.879 375.587 135.17 375.486C136.964 376.167 138.757 376.848 140.551 377.523C140.984 377.687 141.522 377.17 141.343 376.732V376.737Z" fill="#F4C8CC"/>
<path d="M116.143 250.645C115.157 243.316 114.159 235.987 113.146 228.658C110.06 206.35 107.395 183.842 102.251 161.892C100.979 156.474 99.5442 151.092 97.8874 145.779C97.2068 143.6 96.6686 141.03 95.1174 139.268C93.7033 137.664 91.577 136.994 89.5614 136.508C81.8 134.646 71.4585 133.052 66.483 141.009C64.1298 144.771 63.6233 149.372 63.1748 153.688C62.5944 159.286 62.2673 164.916 62.1934 170.545C62.0509 181.715 62.9162 192.896 64.7629 203.913C65.2273 206.688 65.7602 209.453 66.3458 212.207C66.3458 212.217 66.3564 212.228 66.3617 212.239C67.9182 223.614 72.2816 269.006 74.3869 284.397C74.7298 286.893 75.0728 289.388 75.4104 291.889C85.0555 313.084 93.4817 315.437 105.965 302.954C114.386 302.088 120.032 279.928 116.149 250.639L116.143 250.645Z" fill="#F4C8CC"/>
<path d="M134.225 373.371C125.097 360.433 121.61 345.064 118.951 329.72C116.07 313.079 113.173 296.422 111.374 279.622C109.617 263.213 108.778 246.73 106.018 230.442C103.47 215.394 99.6447 200.599 97.0487 185.562C94.8222 172.63 92.68 159.75 88.9497 147.14C88.3798 145.219 87.7836 143.309 87.1716 141.405C87.0449 141.014 86.4224 141.178 86.549 141.573C90.7595 154.574 93.4187 167.839 95.6716 181.288C96.7322 187.619 97.8507 193.935 99.2278 200.203C101.022 208.371 102.816 216.544 104.351 224.77C105.908 233.106 107.126 241.49 107.992 249.932C108.841 258.232 109.448 266.558 110.245 274.863C111.843 291.451 114.555 307.892 117.368 324.312C120.011 339.734 122.618 355.4 130.68 369.081C131.608 370.659 132.611 372.199 133.666 373.693C133.904 374.03 134.463 373.708 134.22 373.365L134.225 373.371Z" fill="#13091C"/>
<path d="M129.398 360.797C129.952 361.879 130.506 362.961 131.065 364.048C131.255 364.417 131.809 364.09 131.619 363.72C131.065 362.639 130.511 361.557 129.952 360.47C129.762 360.101 129.208 360.428 129.398 360.797Z" fill="#13091C"/>
<path d="M133.782 362.787C125.593 364.776 117.806 368.374 110.983 373.313C109.047 374.711 107.195 376.22 105.422 377.824C105.116 378.104 105.57 378.557 105.876 378.278C112.06 372.674 119.336 368.295 127.176 365.451C129.392 364.644 131.656 363.969 133.951 363.409C134.352 363.309 134.183 362.692 133.782 362.787Z" fill="#13091C"/>
<path d="M83.2146 377.038C85.4412 372.622 86.8447 367.815 87.3407 362.892C87.4832 361.467 87.5518 360.032 87.5412 358.597C87.5412 358.18 86.8922 358.18 86.8974 358.597C86.9344 364.865 85.4782 371.107 82.6606 376.711C82.476 377.08 83.0299 377.407 83.2146 377.038Z" fill="#13091C"/>
<path d="M71.812 257.509C71.8859 256.359 71.965 255.214 72.0389 254.064C73.4318 233.238 74.925 212.423 76.1175 191.587C76.7084 181.272 77.2466 170.947 77.6212 160.621C77.8111 155.397 77.9219 150.169 77.7584 144.945C77.6528 141.669 77.9166 136.756 73.7906 135.886C71.7223 135.448 69.406 135.844 67.3377 136.076C65.0953 136.324 62.8634 136.677 60.6579 137.136C56.0834 138.086 51.6091 139.5 47.3142 141.341C39.938 144.497 31.591 149.388 30.5568 158.183C30.3774 159.729 30.4829 161.275 30.8944 162.763C31.0844 172.714 30.0186 182.634 28.8156 192.495C27.5282 203.026 26.2883 213.558 25.2489 224.11C23.3969 242.878 22.0303 261.693 21.1386 280.535C27.7603 304.03 43.1671 319.817 51.8202 309.718C64.7101 300.115 69.0103 267.64 71.8067 257.509H71.812Z" fill="#F4C8CC"/>
<path d="M76.1491 386.129C75.9908 384.214 75.5951 382.182 74.6665 380.483C73.1206 377.65 70.4507 375.898 67.8284 374.146C67.4538 354.862 67.781 335.572 68.5408 316.303C69.3111 296.691 70.5141 277.095 71.8173 257.514C68.24 251.241 63.333 245.922 56.553 242.245C50.1107 239.021 44.3068 242.888 39.7956 247.4C31.1372 257.499 25.7132 268.811 21.1439 280.545C21.0384 282.788 20.9329 285.035 20.8432 287.283C20.7377 289.868 20.6427 292.459 20.553 295.044C18.5163 302.758 16.7382 310.52 15.4139 318.387C14.0896 326.238 13.124 334.152 12.4064 342.082C11.6783 350.076 11.2035 358.096 10.8341 366.116C10.6495 370.179 10.4911 374.247 10.3487 378.315C10.2115 382.198 9.95295 386.108 10.0057 389.996C10.0479 393.252 10.7444 396.386 12.7389 399.013C13.7519 400.348 14.9971 401.477 16.3531 402.454C17.2078 402.744 18.0679 403.023 18.9226 403.298C21.3603 404.079 23.7715 404.891 26.1775 405.757C28.8104 406.706 31.8653 407.355 34.5826 406.353C36.9991 405.461 39.1097 403.857 41.0408 402.19C42.993 400.501 44.8081 398.665 46.755 396.966C50.9655 393.283 55.4978 389.727 60.7899 387.749C63.4966 386.741 66.4197 386.635 69.2425 387.137C71.7645 387.585 74.1811 388.466 76.6029 389.289C76.0963 389.115 76.1966 386.604 76.1544 386.134L76.1491 386.129Z" fill="#F4C8CC"/>
<path d="M99.0958 174.534C94.0728 178.091 89.1658 181.863 84.528 185.915C82.4861 187.699 80.5339 189.625 79.0249 191.888C77.4631 194.231 76.5503 196.885 76.0385 199.639C75.5214 202.414 75.3525 205.237 75.094 208.049C74.7985 211.215 74.4819 214.376 74.2392 217.547C73.7433 224.068 73.4003 230.605 73.0152 237.132C72.6353 243.643 72.2079 250.149 71.6169 256.644C71.5431 257.451 71.4692 258.258 71.39 259.071C71.3478 259.482 71.9969 259.482 72.0338 259.071C72.6511 252.666 73.1101 246.244 73.5005 239.818C73.891 233.37 74.2234 226.917 74.6666 220.47C74.8882 217.272 75.1415 214.075 75.4528 210.883C75.7272 208.034 75.9276 205.174 76.2759 202.33C76.6136 199.544 77.1782 196.721 78.4339 194.189C79.6527 191.73 81.473 189.635 83.4569 187.757C85.541 185.783 87.7887 183.974 90.0259 182.18C92.4741 180.217 94.9644 178.312 97.5076 176.466C98.1408 176.007 98.7792 175.548 99.4229 175.094C99.7606 174.856 99.4387 174.297 99.0958 174.54V174.534Z" fill="#13091C"/>
<path d="M84.1008 190.263C89.2082 187.298 94.5162 184.665 99.9718 182.406C101.507 181.773 103.053 181.167 104.61 180.591C104.995 180.449 104.826 179.826 104.441 179.969C98.8743 182.037 93.4398 184.464 88.1952 187.25C86.7073 188.041 85.2352 188.859 83.779 189.704C83.4202 189.909 83.742 190.469 84.1061 190.258L84.1008 190.263Z" fill="#13091C"/>
<path d="M65.8974 386.045C65.5967 383.528 65.1535 381.032 64.0929 378.716C62.8055 375.904 60.7108 373.561 58.4156 371.53C58.0305 371.192 57.5134 370.865 57.239 370.427C56.9805 370.015 57.0016 369.503 56.9488 369.023C56.8433 368.095 56.7378 367.171 56.6375 366.243C56.4265 364.343 56.226 362.444 56.0308 360.544C55.635 356.682 55.271 352.815 54.9333 348.942C53.572 333.176 52.6381 317.332 52.8175 301.498C53.0075 284.455 54.2527 267.402 55.7669 250.429C57.276 233.523 59.1755 216.66 61.0169 199.792C62.8689 182.866 64.6522 165.929 65.9449 148.95C66.1137 146.75 66.272 144.55 66.4198 142.349C66.4462 141.938 65.8025 141.938 65.7761 142.349C64.6048 159.397 62.9058 176.402 61.0696 193.387C59.2546 210.165 57.3288 226.939 55.7353 243.738C54.105 260.907 52.8386 278.113 52.3005 295.351C51.815 310.984 52.5432 326.644 53.7409 342.236C54.3371 349.981 55.0599 357.711 55.8989 365.43C55.9991 366.364 56.1047 367.293 56.2102 368.227C56.2841 368.881 56.1838 370.105 56.4898 370.669C56.7905 371.218 57.6348 371.698 58.1149 372.126C58.8589 372.791 59.5764 373.482 60.2465 374.215C62.2831 376.431 63.7763 378.985 64.5256 381.908C64.8738 383.264 65.0796 384.652 65.2485 386.045C65.2959 386.451 65.9449 386.456 65.8922 386.045H65.8974Z" fill="#13091C"/>
<path d="M58.326 144.454C65.7286 142.133 73.5375 141.679 81.2514 141.837C83.4411 141.885 85.6307 141.974 87.8204 142.09C88.2372 142.111 88.2319 141.468 87.8204 141.447C80.0748 141.04 72.2343 140.887 64.5678 142.264C62.3993 142.655 60.2571 143.172 58.1519 143.831C57.7562 143.953 57.925 144.575 58.3207 144.454H58.326Z" fill="#13091C"/>
<path d="M41.2257 180.017C45.8636 180.059 50.4961 180.534 55.0443 181.457C58.9646 182.254 62.9956 183.246 66.5149 185.208C68.351 186.232 70.0025 187.54 71.2952 189.202C71.5485 189.53 72.0022 189.071 71.749 188.749C69.3852 185.704 65.8712 183.895 62.2833 182.681C58.0676 181.251 53.625 180.402 49.214 179.879C46.5601 179.563 43.8955 179.399 41.2205 179.373C40.8036 179.373 40.8036 180.011 41.2205 180.017H41.2257Z" fill="#13091C"/>
<path d="M21.556 293.208C25.3971 286.539 28.9955 279.738 32.3459 272.81C33.2904 270.858 34.2137 268.895 35.116 266.921C35.2901 266.547 34.7309 266.22 34.562 266.594C31.354 273.585 27.8928 280.466 24.1888 287.209C23.1441 289.108 22.0783 290.997 20.9967 292.881C20.7909 293.239 21.3449 293.567 21.5507 293.208H21.556Z" fill="#13091C"/>
<path d="M45.9744 306.425C47.0033 313.933 48.449 321.389 50.2957 328.739C52.1476 336.089 54.4006 343.338 57.044 350.44C58.5214 354.403 60.1201 358.323 61.8349 362.19C62.0037 362.57 62.5578 362.243 62.3889 361.863C59.3181 354.935 56.6272 347.844 54.3373 340.621C52.0685 333.466 50.1901 326.19 48.7128 318.83C47.8738 314.662 47.1668 310.467 46.5917 306.251C46.5337 305.84 45.9164 306.014 45.9691 306.42L45.9744 306.425Z" fill="#13091C"/>
<path d="M28.8687 389.431C32.4354 385.379 36.5404 381.802 41.0463 378.831C43.2993 377.343 45.6578 376.009 48.0902 374.832C50.7178 373.566 53.4773 372.384 56.4056 372.104C59.7244 371.788 63.0431 372.5 66.1139 373.719C66.4991 373.872 66.6679 373.249 66.2828 373.096C63.5233 371.999 60.558 371.313 57.5716 371.387C54.5483 371.46 51.7202 372.452 48.9924 373.692C43.9852 375.966 39.2999 378.937 35.0789 382.461C32.694 384.456 30.4621 386.635 28.4044 388.967C28.13 389.278 28.5837 389.732 28.8581 389.421L28.8687 389.431Z" fill="#13091C"/>
<path d="M31.6804 391.595C37.1044 387.622 42.1433 383.127 46.6915 378.172C47.9842 376.763 49.2399 375.318 50.4535 373.84C50.7173 373.524 50.2635 373.065 49.9997 373.387C45.7629 378.541 41.03 383.285 35.8804 387.527C34.4083 388.74 32.894 389.912 31.3586 391.041C31.0262 391.284 31.348 391.843 31.6857 391.595H31.6804Z" fill="#13091C"/>
<path d="M111.917 121.044C111.184 118.585 109.949 116.316 108.868 114.005C106.915 109.826 105.29 105.5 103.971 101.083C104.705 94.0344 104.858 88.5207 104.647 81.4452C104.599 79.8412 102.383 77.4985 101.708 76.0212C101.37 75.2772 87.7519 81.651 86.0055 89.5654C85.4989 91.8553 85.2298 94.1979 84.9079 96.5248C84.565 98.9941 84.2326 101.463 83.9371 103.938C83.3462 108.866 82.903 113.82 82.8397 118.791C82.8133 121.065 82.6497 123.56 83.5203 125.713C84.2379 127.497 85.5358 128.953 86.8866 130.288C90.3953 133.775 93.999 137.168 97.5552 140.608C98.9271 141.938 100.404 143.383 102.441 143.389C104.341 143.394 106.087 142.26 107.211 140.793C108.477 139.141 109.1 137.115 109.749 135.168C110.53 132.836 111.421 130.509 112.044 128.13C112.661 125.761 112.614 123.402 111.912 121.054L111.917 121.044Z" fill="#DB67B1"/>
<path d="M129.983 130.182C128.564 126.109 126.274 122.415 123.842 118.88C121.652 115.698 119.104 112.501 114.872 112.506C112.429 112.506 110.366 113.773 108.308 114.928C107.955 115.129 107.601 115.324 107.248 115.519C106.029 115.53 104.805 115.646 103.591 115.852C102.198 116.084 100.821 116.411 99.4548 116.785C98.2254 117.118 96.938 117.419 95.7509 117.899C94.6903 118.331 94.1574 119.107 93.7458 120.141C93.2604 121.36 92.9017 122.632 92.6537 123.919C92.163 126.488 92.1472 129.084 92.5535 131.665C92.564 131.744 92.5956 131.802 92.6273 131.86C92.6378 131.992 92.6537 132.124 92.6748 132.255C92.9597 134.181 93.5665 136.118 94.168 137.97C94.78 139.859 95.5134 141.711 96.4262 143.478C98.0935 146.712 100.621 150.311 104.093 151.767C106.071 152.601 108.092 152.337 110.06 151.614C112.097 150.865 114.091 149.963 116.065 149.066C118.186 148.1 120.286 147.087 122.349 146C123.984 145.145 125.62 144.159 126.665 142.592C127.187 141.806 127.504 140.903 127.815 140.022C128.232 138.835 128.648 137.648 129.065 136.466C129.44 135.395 129.873 134.329 130.189 133.237C130.506 132.155 130.363 131.248 129.999 130.192L129.983 130.182Z" fill="#DB67B1"/>
<path d="M66.6152 35.0351C66.5888 34.8135 66.4833 34.6552 66.3408 34.5496C66.2881 33.8162 66.2248 33.0881 66.1403 32.3547C66.0454 31.5422 64.758 31.5316 64.853 32.3547C64.9479 33.1725 65.0165 33.9956 65.0692 34.8135C64.9743 34.8715 64.8899 34.9506 64.8318 35.0614C64.758 35.0456 64.6841 35.0403 64.6102 35.0509C64.5838 34.7238 64.3253 34.5233 64.0404 34.4863C63.7607 34.2964 63.3334 34.3386 63.1118 34.6763C62.5894 35.473 62.5103 36.3911 62.5103 37.325C62.5103 38.5068 62.5841 39.6834 62.6633 40.8601C62.7952 42.8809 62.9429 44.9017 63.0906 46.9225C63.0009 47.983 62.9218 49.0488 62.8268 50.1094C62.7741 50.7056 63.4283 50.8639 63.824 50.6001C63.824 50.7109 63.8293 50.8164 63.8293 50.9272C63.8293 51.4865 64.4097 51.6606 64.7896 51.4654C64.8212 51.7872 64.8582 52.1091 64.9057 52.4309C64.9057 52.4309 64.9057 52.4309 64.9057 52.4362C64.9163 52.4942 64.9162 52.5523 64.9268 52.6103C65.0481 53.3807 67.5755 53.444 67.6388 52.7739C68.177 46.9911 67.2536 40.839 66.6099 35.0456L66.6152 35.0351Z" fill="#13091C"/>
<path d="M83.3094 56.8732C83.1933 56.6464 82.9876 56.4406 82.7871 56.2717C80.9773 54.7838 78.5185 54.4198 76.2181 53.9607C73.8543 53.4753 71.5116 52.8316 69.2587 51.9505C68.0135 51.4598 66.7788 50.8952 65.7605 50.0194C64.4256 48.8586 63.9032 47.3759 63.7502 45.6612C63.7027 45.1335 63.6605 44.6059 63.6289 44.0677C63.6025 43.6667 63.5814 43.2763 63.5656 42.8753C63.5286 42.0838 63.4864 41.2977 63.4389 40.5115C63.4389 40.4324 63.4336 40.3479 63.4284 40.2741C63.3967 39.7623 63.3651 39.2769 63.3229 38.7967C63.0274 34.486 62.7636 31.4099 62.7108 31.2939C60.4051 26.4872 55.2026 23.8227 49.9739 24.5772C49.7311 24.0917 48.8131 24.1814 48.7445 24.8779C48.4227 28.2283 48.1272 31.5893 47.8212 34.9398C47.3252 40.3268 47.4412 45.2707 43.9536 49.7819C41.1414 53.4226 37.1156 55.1479 33.0053 56.8785C32.4038 57.1212 32.4883 57.9602 32.9367 58.1343C32.3511 59.4428 33.6596 60.5244 34.7201 61.0046C36.2977 61.7116 37.9914 62.0704 39.6851 62.4186C43.4735 63.21 47.2988 63.8485 51.1452 64.3286C58.3842 65.2309 65.9188 65.4155 72.9098 63.0412C74.5138 62.4977 76.0809 61.8224 77.5635 61.0098C78.8615 60.3028 80.5235 59.4692 81.2358 58.1079C81.4152 57.7649 81.5154 57.4061 81.5471 57.0421C81.8953 57.1634 83.2355 58.4667 83.3991 57.3534C83.4254 57.1845 83.3886 57.0263 83.32 56.8785L83.3094 56.8732Z" fill="#FFA078"/>
<path d="M106.43 149.593C105.454 146.85 104.309 144.164 103.233 141.457C102.14 138.703 101.059 135.944 99.9559 133.195C99.4916 132.034 99.001 130.873 98.2253 129.881C97.4286 128.868 96.3997 128.061 95.4447 127.206C93.8091 125.745 92.2156 124.236 90.6486 122.695C91.0021 117.435 91.3609 112.174 91.7144 106.914C91.841 105.056 91.9677 103.199 92.089 101.342C92.2104 99.5111 92.2631 97.6485 92.701 95.8599C93.5136 92.5411 95.9091 89.8185 97.6291 86.9324C101.792 79.9519 108.788 86.9957 98.1568 65.801C94.8063 59.1212 85.5886 55.7338 78.8825 53.1484C77.2521 52.5206 75.6059 51.8558 73.9175 51.3862C72.4296 50.9746 70.9047 50.8585 69.496 51.5814C69.0633 51.803 69.1161 52.2673 69.3694 52.547C67.3433 55.7233 64.2303 58.1503 60.6319 59.2953C56.3212 60.6671 51.8205 59.9074 47.61 58.5461C45.4098 57.8338 43.2624 56.9737 41.1044 56.1401C40.1177 55.7602 39.131 55.3803 38.1338 55.0321C36.9836 54.6258 35.7806 54.1457 34.5406 54.1298C32.4038 54.1034 30.3566 55.5597 28.5415 56.5147C26.5102 57.5805 24.4894 58.6727 22.5055 59.8335C20.5322 60.9943 18.5958 62.2236 16.7491 63.5744C15.0026 64.8512 13.2139 66.202 11.8368 67.8956C10.4386 69.621 9.74216 71.6682 9.03514 73.7365C8.25425 76.0316 7.47864 78.3321 6.85604 80.68C6.24926 82.9699 5.78494 85.3073 5.58972 87.6711C5.37867 90.2143 5.51055 92.7627 5.69522 95.3059C6.054 100.334 6.44445 105.362 6.81907 110.385C7.65272 121.545 8.11703 132.836 10.1853 143.853C10.2486 144.18 10.4861 144.312 10.7341 144.312C13.4989 149.72 16.8493 154.817 20.7168 159.497C20.3633 165.069 20.3685 170.767 22.1203 176.117C22.9275 178.576 24.0778 180.935 25.6501 182.998C26.2305 183.757 27.0114 185.045 28.1142 184.966C28.5943 184.934 28.9689 184.633 29.2855 184.295C29.8553 183.683 30.383 183.024 30.9317 182.391C35.0208 177.653 39.2629 173.004 43.1779 168.113C46.9874 163.354 49.7786 157.856 52.7122 152.532C53.034 151.952 61.0276 139.12 61.3494 138.534C67.4699 134.735 81.7897 136.382 82.8925 136.408C84.0743 136.434 85.1666 137.611 85.958 138.387C87.5673 139.959 88.8546 141.811 90.1156 143.663C91.5666 145.795 92.9965 147.942 94.4053 150.105C97.5552 154.949 100.309 161.212 103.227 166.198C103.454 166.588 104.404 165.306 104.615 164.858C105.733 162.457 106.884 159.998 107.332 157.371C107.786 154.69 107.332 152.126 106.435 149.593H106.43Z" fill="#DB67B1"/>
<path d="M78.5342 20.2667C77.3417 12.4208 76.2337 7.5139 70.9627 3.42479C68.0397 1.16127 62.9956 -0.189456 58.917 0.0215949C55.3133 0.211541 52.8334 4.90215 53.2555 5.61972C53.7673 6.49558 54.2527 7.38727 54.7118 8.28952C56.511 11.8193 63.0219 14.6949 64.2935 18.4411C66.8894 26.1022 65.3382 27.7959 66.3829 35.8422C67.454 44.0943 66.2774 59.4113 66.003 67.7056C65.8711 71.8317 65.7181 75.9577 65.7023 80.0838C65.6917 82.1415 65.7181 84.1993 65.7919 86.257C65.8289 87.2859 65.8764 88.3095 65.945 89.3384C65.9872 90.0454 65.9871 90.8315 66.3776 91.4489C67.3695 93.0318 69.6806 91.6283 70.7569 90.8579C72.1762 89.8396 73.3107 88.473 74.139 86.9429C74.6878 85.9299 75.0888 84.8746 75.3842 83.7877C77.2837 82.4423 78.3917 80.1365 79.0038 77.873C79.9904 74.2429 82.1906 44.2315 78.5394 20.2561L78.5342 20.2667Z" fill="#FFDBBB"/>
<path d="M69.9815 19.0161C71.7754 18.9528 73.5746 18.8684 75.3633 18.7048C75.7748 18.6679 75.7748 18.0242 75.3633 18.0611C73.5746 18.2299 71.7754 18.3091 69.9815 18.3724C69.5699 18.3882 69.5647 19.0319 69.9815 19.0161Z" fill="#13091C"/>
<path d="M70.1134 37.1086C70.3825 41.3349 70.0923 45.5137 69.7072 49.7189C69.2798 54.42 68.9368 59.1318 68.5622 63.8382C68.3459 66.5449 68.1348 69.2517 67.9185 71.9637C67.8868 72.3752 68.5305 72.3752 68.5622 71.9637C68.9473 67.1306 69.3273 62.2975 69.7124 57.4697C69.8971 55.1271 70.0765 52.7791 70.2875 50.4365C70.4722 48.4104 70.6675 46.3843 70.7835 44.3529C70.9207 41.9417 70.9101 39.5251 70.7571 37.1139C70.7307 36.7023 70.0871 36.697 70.1134 37.1139V37.1086Z" fill="#13091C"/>
<path d="M73.2104 22.3666C73.2104 25.3477 72.9307 28.3341 72.3239 31.2571C72.0126 32.745 71.6222 34.2118 71.1368 35.6522C70.7094 36.9133 70.3032 38.5489 69.4009 39.5514C67.6756 41.4667 63.7237 40.6225 61.5445 40.174C58.8642 39.6253 56.2735 38.6333 53.8517 37.367C52.2319 36.5176 51.1503 34.9294 50.1214 33.5101C49.1084 32.1383 48.5016 30.5079 47.9845 28.9144C47.135 26.366 46.6496 23.7068 46.5019 21.0317C45.8476 19.2272 45.3569 17.37 45.2989 15.4388C45.2145 12.9062 45.932 10.3472 47.2458 8.15758C48.301 6.42697 49.483 5.04986 50.8548 4.04737C52.2688 2.75468 54.0733 2.02128 55.9622 1.68359C55.9886 1.77329 56.0097 1.86299 56.0466 1.95269C56.4424 2.94463 57.4924 3.67275 58.2996 4.3059C59.2124 5.02348 59.9564 5.11845 61.1119 5.15011C62.2937 5.18177 63.4704 5.41392 64.6523 5.48779C66.346 5.59859 68.0977 6.12622 69.3059 7.3767C70.6356 8.74853 71.9071 11.1176 72.1815 12.9537C72.4347 14.6368 71.77 15.9612 72.1657 17.6179C72.5403 19.1692 73.2104 20.7521 73.2104 22.3719V22.3666Z" fill="#FFA078"/>
<path d="M64.716 13.2121C64.1884 12.8481 63.5605 12.6212 62.9221 12.5368C61.8246 12.3837 60.7429 12.6581 59.8143 13.2068C59.3289 13.4021 58.8962 13.7081 58.5955 14.1777C58.0942 14.948 58.759 15.8028 59.6033 15.7922C59.9831 15.7922 60.3683 15.655 60.7377 15.5706C61.0912 15.4915 61.4447 15.4176 61.7982 15.3596C62.4314 15.254 63.1014 15.196 63.7451 15.291C64.0564 15.3385 64.3414 15.4598 64.6474 15.5179C65.1064 15.6128 65.5971 15.3807 65.7343 14.9111C65.9506 14.1777 65.2436 13.5815 64.716 13.2121Z" fill="#FFDBBB"/>
<path d="M72.229 15.0378C72.0074 15.0325 71.7805 15.0378 71.5589 15.0589L71.3953 15.08C71.3953 15.08 71.3584 15.08 71.3478 15.0853C71.2317 15.1064 71.1209 15.1222 71.0048 15.1486C70.7516 15.2014 70.4931 15.2541 70.2345 15.2805C69.7069 15.3491 69.1107 15.2383 68.9207 14.6632C68.7361 14.1197 69.1898 13.6765 69.575 13.3705C70.224 12.8587 71.026 12.4261 71.8754 12.4735C71.9388 12.8429 71.9916 13.2175 72.039 13.5974C72.1076 14.0722 72.1709 14.5524 72.2343 15.0431L72.229 15.0378Z" fill="#FFDBBB"/>
<path d="M41.3895 22.8309C41.7219 25.3213 43.4473 27.854 46.059 28.3394C47.3886 28.5874 48.5811 27.9278 49.2459 26.7776C49.9265 25.6115 49.9266 24.1658 49.916 22.8573C49.9107 21.6385 49.7999 20.3828 49.2986 19.2536C49.1562 18.9318 48.961 18.5783 48.713 18.2564C48.5653 17.9873 48.4017 17.7235 48.2171 17.4861C47.2884 16.2673 45.753 16.1354 44.3601 16.5575C41.7536 17.3489 41.0624 20.4408 41.379 22.8362L41.3895 22.8309Z" fill="#FFA078"/>
<path d="M63.7709 3.15038C62.8264 2.36949 61.6867 1.81021 60.5365 1.39866C59.4021 0.99239 58.2255 0.728572 57.0383 0.512245C56.7851 0.464758 56.5002 0.396169 56.2047 0.332853C55.4924 0.322301 54.7801 0.327581 54.073 0.353963C54.0203 0.369792 53.9675 0.369789 53.92 0.359236C52.3424 0.433104 50.7964 0.628327 49.356 1.07681C41.6738 3.47224 38.1651 12.6107 36.0282 19.5543C34.3662 24.9572 33.3056 30.5395 31.6858 35.9266C30.0185 41.472 28.2088 46.9804 26.1352 52.3886C25.6762 53.5757 25.2065 54.7629 24.7264 55.9395C24.4995 56.4883 24.299 57.0792 24.0088 57.5963C22.5051 60.2502 26.7525 59.8809 28.805 59.8334C34.8938 59.6857 42.3175 57.8865 46.8023 53.5388C51.0286 49.4391 52.7856 43.6827 54.1891 38.1585C55.2549 33.9586 56.8062 18.3144 57.6451 14.0617C58.8639 7.86738 62.5995 5.42974 63.9608 5.46667C64.5201 5.4825 63.5703 3.7044 64.0294 3.37199C63.945 3.29812 63.8606 3.22426 63.7761 3.15566L63.7709 3.15038Z" fill="#FFDBBB"/>
<path d="M67.5912 17.7342C67.9289 19.6442 68.6253 21.7652 70.1713 23.0474C70.91 23.6594 71.7805 24.0815 72.7461 23.7966C73.6536 23.5275 74.3237 22.7941 74.8144 22.0185C75.342 21.1849 75.6744 20.2298 75.8696 19.2643C76.0121 18.5625 76.1388 17.845 76.1282 17.1274C76.1177 16.452 75.9699 15.7134 75.4581 15.2279C74.7828 14.5948 73.7116 14.5367 72.8358 14.5948C71.6644 14.6686 70.5195 14.9008 69.4431 15.3757C68.9366 15.6026 68.3668 15.8611 67.9763 16.2674C67.6123 16.6473 67.5226 17.1432 67.5859 17.655C67.6387 18.0613 68.2823 18.0666 68.2296 17.655C68.1663 17.1696 68.256 16.8161 68.6728 16.5206C69.0633 16.2463 69.5064 16.0352 69.9497 15.8611C70.7675 15.534 71.6223 15.3546 72.4981 15.2701C73.2685 15.1963 74.2921 15.1171 74.9411 15.6289C75.4001 15.9877 75.4845 16.6367 75.4897 17.1802C75.5003 18.5362 75.1574 20.0505 74.5295 21.2429C74.1707 21.9288 73.6642 22.6569 72.9624 23.021C72.1024 23.4748 71.2846 23.1424 70.5881 22.5567C69.153 21.3484 68.5409 19.354 68.2243 17.5706C68.1504 17.1643 67.5331 17.3332 67.6017 17.7394L67.5912 17.7342Z" fill="#13091C"/>
<path d="M65.4754 17.6233C65.3013 19.5544 64.6893 21.6596 63.1697 22.9629C62.373 23.6488 61.4233 24.0709 60.368 23.8229C59.3866 23.596 58.5741 22.9365 57.9198 22.1978C56.8646 21.0001 56.1311 19.3222 55.8937 17.7446C55.7934 17.0798 55.8251 16.3042 56.4213 15.8768C57.2075 15.3175 58.3736 15.3281 59.2916 15.3386C60.521 15.3597 61.7398 15.4864 62.927 15.8082C63.4916 15.9612 64.0614 16.1459 64.5943 16.3939C65.1483 16.6524 65.5018 16.969 65.4701 17.6233C65.4543 18.0401 66.098 18.0348 66.1138 17.6233C66.1666 16.4045 65.2063 15.919 64.2038 15.5444C62.9903 15.0907 61.6976 14.8321 60.4049 14.7371C58.6954 14.6158 55.5718 14.4417 55.2341 16.721C55.1128 17.5494 55.3344 18.3989 55.593 19.1851C55.9095 20.1506 56.3052 21.0898 56.8909 21.9287C58.1519 23.7279 60.4154 25.3108 62.6157 24.1184C64.9583 22.8468 65.8922 20.1348 66.1138 17.6233C66.1508 17.2117 65.5071 17.2117 65.4701 17.6233H65.4754Z" fill="#13091C"/>
<path d="M65.8183 19.0267C66.1771 18.879 66.5517 18.7101 66.9368 18.7207C67.1162 18.7207 67.206 18.7312 67.359 18.7682C67.4012 18.7787 67.4434 18.7946 67.4856 18.8051C67.5489 18.8262 67.475 18.7946 67.5331 18.8262C67.57 18.8473 67.6122 18.8684 67.6491 18.8895C67.6808 18.9106 67.6861 18.9159 67.665 18.9001C67.6808 18.9159 67.6966 18.9265 67.7177 18.9423C67.8443 19.0584 68.0448 19.0689 68.1715 18.9423C68.2928 18.8209 68.2981 18.6046 68.1715 18.4885C67.8496 18.1931 67.4328 18.0981 67.0054 18.077C66.5253 18.0559 66.0873 18.2247 65.6494 18.4041C65.4911 18.4727 65.3751 18.6152 65.4226 18.7998C65.4648 18.9528 65.6547 19.09 65.8183 19.0267Z" fill="#13091C"/>
<path d="M49.1715 19.0848C51.2715 18.937 53.3821 18.9054 55.4873 18.9898C55.9041 19.0056 55.8988 18.3619 55.4873 18.3461C53.3821 18.2617 51.2768 18.2933 49.1715 18.4411C48.76 18.4675 48.7547 19.1164 49.1715 19.0848Z" fill="#13091C"/>
<path d="M67.9446 26.9095C68.2453 26.6721 68.546 26.4347 68.8468 26.1972C69.1212 25.9809 69.4272 25.7751 69.5855 25.448C69.881 24.836 69.6593 24.0076 69.5591 23.3692C69.3216 21.7968 68.889 20.2614 68.2875 18.7841C68.1345 18.4042 67.5119 18.573 67.6649 18.9529C68.1925 20.2456 68.5882 21.5911 68.8415 22.9682C68.9048 23.3164 68.9576 23.6699 69.0051 24.0234C69.042 24.3347 69.1264 24.7041 69.0579 25.0154C68.984 25.3478 68.641 25.543 68.393 25.7382C68.0923 25.9756 67.7916 26.2131 67.4908 26.4505C67.1637 26.709 67.6227 27.1628 67.9446 26.9043V26.9095Z" fill="#13091C"/>
<path d="M63.9508 25.3318C64.1724 26.023 64.9269 26.4293 65.6234 26.1549C65.94 26.0283 66.1774 25.7697 66.4729 25.6009C66.7683 25.4321 67.0902 25.3318 67.4278 25.2843C67.602 25.2579 67.697 25.0416 67.6548 24.8886C67.602 24.7039 67.4331 24.6406 67.259 24.6617C66.6523 24.7514 66.1352 25.0258 65.655 25.3899C65.4651 25.5323 65.2593 25.6378 65.0219 25.5798C64.8108 25.527 64.642 25.3687 64.5734 25.1577C64.4468 24.7673 63.8242 24.9308 63.9508 25.3265V25.3318Z" fill="#13091C"/>
<path d="M68.2035 18.8737C69.2271 19.2377 70.3298 19.301 71.3956 19.09C71.5644 19.0583 71.6647 18.8525 71.6225 18.6943C71.575 18.5149 71.3956 18.4357 71.2268 18.4674C70.2771 18.6573 69.2904 18.5729 68.3776 18.2511C68.214 18.193 68.0241 18.3144 67.9819 18.4779C67.9344 18.6573 68.0399 18.8156 68.2088 18.8737H68.2035Z" fill="#13091C"/>
<path d="M59.3392 19.1218C60.9801 19.412 62.6421 19.3962 64.2777 19.0796C64.684 19.0005 64.5099 18.3779 64.1089 18.457C62.5946 18.7525 61.0328 18.763 59.5133 18.4992C59.107 18.4254 58.9329 19.0479 59.3444 19.1218H59.3392Z" fill="#13091C"/>
<path d="M62.7953 17.0747C62.9008 17.4123 63.001 17.75 63.1066 18.093C63.2015 18.4043 63.2807 18.7472 63.5234 18.9847C63.7345 19.1852 64.0563 19.0321 64.0721 18.7578C64.0721 18.7314 64.0721 18.705 64.0721 18.6839C64.0827 18.5151 63.9138 18.3568 63.7503 18.3621C63.5656 18.3726 63.439 18.5045 63.4284 18.6839C63.4284 18.7103 63.4284 18.7367 63.4284 18.7578C63.6131 18.6839 63.7978 18.6048 63.9772 18.5309C63.9666 18.5203 63.898 18.4359 63.9402 18.494C63.9244 18.4729 63.9086 18.4518 63.898 18.4254C63.8927 18.4148 63.8452 18.3093 63.8716 18.3779C63.861 18.3515 63.8505 18.3251 63.8453 18.2987C63.7925 18.151 63.7503 18.0033 63.7081 17.8503C63.6131 17.5337 63.5128 17.2171 63.4179 16.9005C63.3704 16.7422 63.191 16.6209 63.0221 16.6736C62.8586 16.7264 62.7425 16.8953 62.7953 17.0694V17.0747Z" fill="#13091C"/>
<path d="M70.0766 17.1432C70.2507 17.5495 70.4512 17.9452 70.6834 18.3251C70.7942 18.5097 70.9103 18.6944 71.0422 18.8633C71.1636 19.0268 71.3588 19.1112 71.5487 19.0057C71.7598 18.8949 71.7756 18.61 71.6226 18.4464C71.5065 18.3251 71.2796 18.3198 71.1688 18.4464C71.0475 18.5783 71.0475 18.7683 71.1688 18.9002C71.1688 18.9002 71.1741 18.9055 71.1794 18.9107C71.1477 18.8369 71.1161 18.7577 71.0844 18.6839C71.0844 18.6839 71.0844 18.6944 71.0844 18.6997C71.1002 18.6469 71.116 18.5889 71.1266 18.5361C71.1371 18.5256 71.1477 18.5097 71.1583 18.4992C71.2058 18.4728 71.2533 18.4464 71.3007 18.4148C71.3007 18.4148 71.2902 18.4148 71.2849 18.4148H71.4537C71.5803 18.5308 71.612 18.5572 71.5646 18.4886C71.554 18.4728 71.5381 18.4517 71.5276 18.4359C71.5012 18.3989 71.4801 18.3673 71.4537 18.3303C71.4062 18.2618 71.3588 18.1879 71.3166 18.114C71.2322 17.9768 71.1477 17.8397 71.0686 17.7025C70.905 17.4123 70.7626 17.1168 70.6306 16.8108C70.5621 16.6525 70.3246 16.6103 70.1875 16.6947C70.0239 16.8002 70.0027 16.9691 70.0713 17.1379L70.0766 17.1432Z" fill="#13091C"/>
<path d="M63.2171 18.6942C63.043 18.6362 62.8478 18.7259 62.7528 18.8789C62.6947 18.9738 62.6842 19.0846 62.6314 19.1796C62.6209 19.2007 62.6104 19.2271 62.5998 19.2482C62.5945 19.2588 62.5892 19.2746 62.5787 19.2851C62.5365 19.2324 62.489 19.1796 62.4257 19.148C62.2938 19.0846 62.1513 19.0846 62.0247 19.1427C61.9983 19.111 61.9719 19.0741 61.935 19.0583C61.8506 18.958 61.6923 18.9052 61.5709 18.9422C61.3757 19.0055 61.3018 19.1743 61.3282 19.3643C61.381 19.7125 61.534 20.0713 61.7767 20.3298C62.0669 20.6306 62.489 20.7045 62.8584 20.504C63.1908 20.3246 63.3807 19.9658 63.444 19.607C63.4598 19.5067 63.4756 19.4118 63.4862 19.3115C63.4968 19.2324 63.5073 19.1532 63.502 19.0794C63.4862 18.9 63.3912 18.7522 63.2171 18.6942Z" fill="#13091C"/>
<path d="M70.7201 18.7048C70.6304 18.6362 70.5301 18.6151 70.4193 18.6415C70.2821 18.6784 70.1819 18.7681 70.108 18.8789C70.0816 18.8631 70.0605 18.8473 70.0341 18.8367C69.9339 18.7998 69.8337 18.8051 69.7334 18.8367C69.6912 18.7945 69.6437 18.7523 69.5804 18.7417C69.4063 18.7048 69.1952 18.7945 69.1583 18.9844C69.058 19.454 69.1952 19.9922 69.5962 20.2824C69.7018 20.3616 69.8389 20.4038 69.9708 20.4038C70.1344 20.3985 70.2769 20.3246 70.393 20.2138C70.5618 20.0608 70.6779 19.8603 70.7623 19.6493C70.8467 19.4382 70.8783 19.2008 70.8572 18.9792C70.8467 18.8684 70.8151 18.7787 70.7201 18.7101V18.7048Z" fill="#13091C"/>
<path d="M64.4572 31.0459C65.0376 30.7768 65.6549 30.5922 66.2881 30.4866C66.9635 30.3705 67.623 30.4866 68.2983 30.4286C68.7099 30.3969 68.7099 29.7479 68.2983 29.7849C67.9237 29.8165 67.5491 29.7796 67.1745 29.7691C66.821 29.7638 66.4675 29.8007 66.1192 29.864C65.4333 29.9801 64.7685 30.1964 64.1353 30.4919C63.977 30.5658 63.9401 30.7926 64.0193 30.9351C64.1142 31.0987 64.3042 31.1251 64.4625 31.0512L64.4572 31.0459Z" fill="#13091C"/>
<path d="M63.5602 42.8755C63.5232 42.0841 63.481 41.2979 63.4335 40.5118C62.4627 40.116 61.5024 39.7203 60.5633 39.2349C59.7454 38.8075 58.8484 37.9791 57.9462 37.7892C57.8301 37.7681 57.7035 37.7628 57.5927 37.8103C57.3658 37.9 57.2708 38.1796 57.3025 38.4118C57.445 39.5251 58.5899 40.7439 59.3603 41.4773C60.3311 42.4059 61.4813 43.1604 62.7107 43.6986C63.0061 43.8358 63.3174 43.9572 63.6235 44.068C63.5971 43.667 63.576 43.2765 63.5602 42.8755Z" fill="#13091C"/>
<path d="M65.6495 5.4826C65.8025 4.7914 65.3488 4.17408 64.895 3.69921C64.4571 3.24018 63.9083 2.89194 63.3068 2.68617C62.03 2.23769 60.674 2.51733 59.4815 3.06606C58.326 3.60424 57.3816 4.46955 56.5532 5.42456C55.5771 6.5484 54.6327 7.72501 53.8781 9.01242C52.9865 10.5425 52.3269 12.1993 51.8151 13.893C51.6937 14.2887 52.3164 14.4628 52.4377 14.0618C52.8387 12.7322 53.3294 11.429 53.9679 10.189C54.5957 8.96494 55.3766 7.86747 56.2366 6.80167C57.6454 5.06049 59.3866 3.17159 61.8031 3.09772C62.4574 3.07661 63.1116 3.22435 63.6814 3.55675C64.188 3.85222 65.1799 4.63312 65.0269 5.30848C64.9372 5.71475 65.5598 5.88359 65.6495 5.47732V5.4826Z" fill="#13091C"/>
<path d="M57.3029 0.976657C58.9069 1.11384 60.4317 1.82613 61.5766 2.9447C61.8721 3.2349 62.3311 2.78114 62.0304 2.49095C60.7535 1.24574 59.0757 0.485963 57.3029 0.332951C56.8913 0.296017 56.8913 0.939723 57.3029 0.976657Z" fill="#13091C"/>
<path d="M24.7903 56.905C32.5306 55.5121 39.8646 51.2488 43.7691 44.2525C44.8085 42.3952 45.5735 40.385 46.0115 38.3009C46.0959 37.8946 45.4733 37.7257 45.3889 38.132C43.806 45.7035 37.9652 51.5971 30.9425 54.4674C28.9058 55.301 26.7795 55.8972 24.6162 56.2877C24.2099 56.3615 24.3788 56.9841 24.785 56.9103L24.7903 56.905Z" fill="#13091C"/>
<path d="M36.5351 59.8125C40.3235 62.0496 44.3915 63.8752 48.6864 64.8882C52.5803 65.8063 56.5955 65.8855 60.5105 65.0096C62.5207 64.5611 64.5099 63.8541 66.2669 62.7619C66.6204 62.5456 66.2933 61.9863 65.9398 62.2079C62.8004 64.1548 58.9382 64.9146 55.287 64.9885C51.1873 65.0729 47.1509 64.0335 43.3678 62.5086C41.1149 61.6011 38.9463 60.4931 36.8569 59.2532C36.4981 59.0421 36.1763 59.5961 36.5298 59.8072L36.5351 59.8125Z" fill="#13091C"/>
<path d="M52.0475 78.1418C55.3399 83.6186 59.0016 88.9477 63.592 93.4272C64.8741 94.6777 66.2248 95.849 67.6442 96.9359C67.9713 97.1892 68.2931 96.6299 67.9713 96.3819C62.9483 92.5355 58.9172 87.5547 55.4348 82.3101C54.4587 80.8327 53.5196 79.3343 52.6068 77.8147C52.3957 77.4612 51.8365 77.7831 52.0528 78.1418H52.0475Z" fill="#13091C"/>
<path d="M96.632 80.8222C95.3921 85.0801 94.627 89.4911 93.8725 93.8546C92.9333 99.305 92.1366 104.792 91.5404 110.29C91.2607 112.854 91.0233 115.429 90.923 118.009C90.9072 118.426 91.5509 118.421 91.5667 118.009C91.7619 113.06 92.3846 108.116 93.0652 103.215C93.8039 97.912 94.6639 92.6199 95.7403 87.3753C96.1782 85.2331 96.6425 83.091 97.2545 80.991C97.3706 80.59 96.7481 80.4212 96.632 80.8222Z" fill="#13091C"/>
<path d="M21.1499 160.325C22.965 162.736 24.3157 165.454 25.1283 168.361C25.2391 168.762 25.8616 168.588 25.7508 168.192C24.9225 165.237 23.5507 162.457 21.7093 160.003C21.4613 159.676 20.902 159.998 21.1552 160.33L21.1499 160.325Z" fill="#13091C"/>
<path d="M71.728 12.7373C71.8124 13.3177 71.8758 13.9667 71.9074 14.584C71.918 14.7529 72.0499 14.9164 72.2293 14.9059C72.3981 14.9006 72.5617 14.7634 72.5511 14.584C72.5142 13.9087 72.4456 13.2333 72.3454 12.5685C72.319 12.3996 72.1026 12.2941 71.9496 12.3416C71.765 12.3997 71.6963 12.5579 71.7227 12.7373H71.728Z" fill="#13091C"/>
<path d="M75.9387 57.6329C76.4927 64.988 74.5985 72.206 74.0604 79.5031C73.9918 80.4 73.8757 81.3339 73.9865 82.2309C74.0709 82.8904 74.3241 83.5394 74.952 83.856C75.3214 84.0459 75.6485 83.4867 75.2791 83.302C74.6882 83.0012 74.6038 82.2837 74.5986 81.6822C74.588 80.8538 74.6671 80.0201 74.7357 79.197C74.8782 77.4189 75.0945 75.6514 75.332 73.8838C75.7963 70.449 76.3503 67.0247 76.5824 63.5687C76.7143 61.5954 76.7407 59.6115 76.5877 57.6329C76.5561 57.2214 75.9123 57.2161 75.944 57.6329H75.9387Z" fill="#13091C"/>
<path d="M27.8658 56.1982C31.8969 52.3465 34.9307 47.5134 36.6455 42.2055C36.7722 41.8098 36.1496 41.6409 36.023 42.0367C34.3398 47.2391 31.364 51.9666 27.4121 55.7444C27.1113 56.0293 27.5651 56.4884 27.8658 56.1982Z" fill="#13091C"/>
<path d="M53.5565 5.0972C52.5118 6.44265 51.81 7.97805 51.2402 9.57149C50.6387 11.2388 50.0636 12.9325 49.5834 14.642C48.5862 18.1824 48.0692 21.8441 47.7632 25.5005C47.5838 27.6797 47.4782 29.8588 47.4043 32.0431C47.3885 32.46 48.0322 32.46 48.048 32.0431C48.1747 28.3234 48.3805 24.593 48.9292 20.9049C49.193 19.1374 49.5307 17.3804 49.9792 15.655C50.4118 13.9825 50.9764 12.3521 51.5251 10.7164C52.1372 8.9014 52.8284 7.0758 54.0155 5.55096C54.2688 5.22911 53.815 4.77007 53.5618 5.0972H53.5565Z" fill="#13091C"/>
<path d="M63.3016 40.8757C63.2805 41.7569 63.2541 42.6433 63.233 43.5244C63.2224 43.9412 63.8661 43.9412 63.8767 43.5244C63.8978 42.6433 63.9242 41.7569 63.9453 40.8757C63.9558 40.4589 63.3121 40.4589 63.3016 40.8757Z" fill="#5D607D"/>
<path d="M84.8923 137.115C87.2983 137.321 89.7729 138.302 90.9653 140.529C91.1605 140.893 91.7198 140.571 91.5193 140.202C90.216 137.764 87.5146 136.688 84.887 136.466C84.4755 136.429 84.4755 137.078 84.887 137.11L84.8923 137.115Z" fill="#13091C"/>
<path d="M55.973 143.156C57.4979 141.405 59.3446 139.97 61.4182 138.93C61.7875 138.745 61.4604 138.186 61.091 138.376C58.97 139.437 57.0705 140.914 55.514 142.708C55.2449 143.019 55.6986 143.478 55.9677 143.162L55.973 143.156Z" fill="#13091C"/>
<path d="M59.4237 93.67C63.7556 100.629 68.9791 107.03 74.936 112.659C76.6297 114.263 78.3867 115.799 80.1964 117.276C80.513 117.535 80.972 117.081 80.6502 116.822C74.3028 111.652 68.6203 105.663 63.8083 99.036C62.4628 97.184 61.186 95.2845 59.9777 93.3429C59.7614 92.9894 59.2021 93.3165 59.4237 93.67Z" fill="#13091C"/>
<path d="M106.995 152.131C98.8058 150.274 95.3604 141.12 93.8989 133.791C93.4082 131.338 93.1285 128.847 93.0547 126.346C93.0441 125.935 92.3952 125.929 92.411 126.346C92.5534 130.9 93.3607 135.437 94.8381 139.748C96.1413 143.542 98.0566 147.261 101.18 149.873C102.821 151.245 104.731 152.279 106.826 152.754C107.232 152.844 107.401 152.226 106.995 152.131Z" fill="#13091C"/>
<path d="M97.7559 142.587C97.5449 137.474 97.9353 131.997 101.117 127.766C101.908 126.71 102.863 125.782 103.956 125.043C104.298 124.811 103.977 124.252 103.628 124.489C99.3282 127.402 97.5343 132.578 97.1544 137.553C97.0278 139.226 97.0383 140.909 97.1069 142.587C97.1227 142.998 97.7665 143.004 97.7506 142.587H97.7559Z" fill="#13091C"/>
<path d="M105.681 127.877C104.499 131.042 104.082 134.482 104.457 137.838C104.641 139.484 105.005 141.104 105.565 142.661C106.082 144.101 106.789 145.531 107.939 146.57C109.986 148.422 113.083 148.945 115.653 147.979C118.46 146.924 120.607 144.439 122.285 142.043C124.28 139.194 125.467 135.881 125.509 132.388C125.509 131.971 124.871 131.971 124.865 132.388C124.834 135.311 123.968 138.118 122.454 140.608C121.689 141.869 120.781 143.035 119.795 144.133C118.85 145.183 117.8 146.159 116.561 146.85C114.213 148.169 111.263 148.143 109.015 146.607C107.77 145.758 106.963 144.455 106.404 143.078C105.823 141.648 105.433 140.133 105.201 138.609C104.657 135.063 105.048 131.406 106.298 128.051C106.441 127.66 105.818 127.491 105.676 127.882L105.681 127.877Z" fill="#13091C"/>
<path d="M93.7778 100.398C95.0125 97.5223 96.2419 94.6467 97.4765 91.7711C98.5634 89.2333 99.6398 86.6743 101.022 84.2736C101.814 82.9017 102.705 81.5985 103.739 80.4008C104.009 80.0895 103.555 79.6304 103.286 79.947C101.471 82.0364 100.099 84.4477 98.9169 86.9381C97.6453 89.6184 96.5268 92.3726 95.3554 95.1005C94.6431 96.7572 93.9361 98.414 93.2238 100.071C93.0602 100.445 93.6195 100.778 93.7778 100.398Z" fill="#13091C"/>
<path d="M39.3209 124.653C38.9727 123.228 38.5031 121.84 38.176 120.41C37.8224 118.854 37.5639 117.271 37.4162 115.678C37.2843 114.242 37.3634 112.718 36.8675 111.346C36.4295 110.137 35.6328 109.088 34.815 108.111C32.9366 105.874 30.5887 104.049 28.3674 102.17C26.0142 100.181 23.6557 98.192 21.2497 96.2662C19.1339 94.5725 16.9548 92.9263 14.5752 91.623C13.4619 91.011 12.2958 90.4781 11.0981 90.0507C9.93208 89.6392 8.58662 89.2012 7.33614 89.1749C5.73216 89.1432 5.35749 90.8738 5.04619 92.156C2.79322 101.342 0.96767 110.517 0.403109 119.957C0.223715 122.927 0.102317 125.903 0.0284491 128.879C-0.0401424 131.665 -0.00845131 134.456 0.392546 137.215C1.1365 142.333 3.46859 146.982 7.6263 150.147C9.61018 151.657 10.4492 151.989 12.9448 152.332C15.7835 152.722 21.1811 150.749 23.3022 149.076C27.5865 145.689 29.7498 143.199 33.1266 138.909C34.7622 136.825 36.2923 134.656 37.6852 132.403C38.3975 131.248 39.1468 130.061 39.4792 128.726C39.8169 127.375 39.6533 125.987 39.3262 124.653H39.3209Z" fill="#DB67B1"/>
<path d="M50.3588 120.025C49.81 115.583 48.0425 111.188 45.1669 107.742C44.2753 106.687 43.2411 106.043 42.0751 105.874C41.2994 105.758 40.4658 105.864 39.5899 106.191C37.2895 107.062 35.1156 108.381 32.889 109.42C30.52 110.523 28.1088 111.552 25.6711 112.522C24.4523 112.997 23.2282 113.472 21.9935 113.915C20.8644 114.327 19.7142 114.807 18.5323 115.055C17.2554 115.324 16.063 114.95 14.8019 114.823C13.8311 114.717 12.8867 114.849 12.0056 115.266C10.3119 116.073 9.16165 117.762 8.31744 119.371C6.04337 123.729 4.42878 128.546 3.26273 133.316C2.95143 134.572 2.68238 135.844 2.44494 137.12C2.37635 137.506 2.61906 137.785 2.90926 137.886C3.69015 141.996 5.52098 145.879 8.21188 149.087C9.61009 150.749 13.2771 152.675 15.4615 152.385C23.3179 151.361 26.9744 149.541 29.0215 148.137C31.6544 146.338 33.0895 144.708 35.0734 142.924C39.0781 139.326 43.0195 134.978 41.4261 132.06C49.8998 126.874 46.8606 129.085 48.7284 127.196C49.4354 126.478 50.2744 124.547 50.4485 123.56C50.4749 123.481 50.4801 123.407 50.496 123.323C50.6332 122.241 50.5013 121.102 50.3693 120.025H50.3588Z" fill="#DB67B1"/>
<path d="M50.4223 120.02C50.3115 119.081 50.1374 118.136 49.8999 117.203C49.0452 113.731 47.3779 110.391 45.1619 107.742C45.0141 107.563 44.7609 107.283 44.4654 107.009C43.6107 106.196 42.3179 105.299 41.7111 106.36C41.5581 106.629 41.5054 106.945 41.479 107.262C41.4315 107.737 41.4157 108.228 41.4157 108.713C41.421 112.807 42.9564 117.15 44.9719 120.611C45.0669 120.785 45.1724 120.959 45.2726 121.128C46.1168 122.516 47.2196 124.146 49.0083 124.241C49.5992 124.267 50.2007 124.046 50.4276 123.455C50.5489 123.154 50.5648 122.822 50.5648 122.495C50.5648 121.677 50.512 120.854 50.417 120.025L50.4223 120.02Z" fill="#13091C"/>
<path d="M90.7696 100.635C90.432 102.049 88.4322 102.202 87.2239 102.291C85.6041 102.413 83.9896 102.207 82.412 101.875C80.2487 101.41 78.1118 100.682 75.9327 100.271C76.4393 100.888 76.9299 101.521 77.3679 102.186C77.8164 102.877 78.1277 103.637 77.8428 104.455C77.5526 105.304 76.8138 105.932 76.2018 106.544C76.0224 106.729 75.8325 106.903 75.6531 107.088C75.9802 107.193 76.3126 107.309 76.6133 107.446C77.4312 107.832 77.9535 108.686 77.542 109.567C77.1357 110.433 76.1332 110.791 75.2784 111.003C74.1124 111.293 72.9199 111.467 71.7328 111.615C69.9969 112.839 67.744 114.865 65.5121 114.042C64.9792 113.841 64.5202 113.514 64.1244 113.103C62.3199 113.825 60.5998 114.743 58.6793 115.144C57.3655 115.424 56.0095 115.493 54.6693 115.482C54.0256 115.472 53.4083 115.419 52.9018 115.129C51.894 115.825 50.8915 116.516 49.8837 117.213C48.6649 118.057 47.4461 118.901 46.2273 119.74C45.7999 120.036 45.3831 120.326 44.9557 120.616C42.9401 117.155 41.4048 112.812 41.3995 108.718C42.4178 108.153 43.4309 107.589 44.4492 107.019C45.7313 106.296 47.0135 105.573 48.2903 104.84C52.2212 102.576 56.0781 100.186 59.9931 97.8963C61.9717 96.7408 63.9978 95.6539 66.1294 94.8044C66.9525 94.4773 67.9075 94.0077 68.8256 94.0974C69.4429 94.1554 69.9653 94.4931 70.4507 94.8783C71.5904 94.5195 72.8144 94.6092 74.028 94.8835C75.8008 95.2951 77.5473 95.8913 79.2937 96.3978C83.0082 97.4953 86.7966 98.4608 90.3634 99.9593C90.6008 100.065 90.8224 100.366 90.7591 100.64L90.7696 100.635Z" fill="#FFA078"/>
<path d="M2.77245 136.836C3.2262 132.815 3.98596 128.779 5.57411 125.038C6.28114 123.376 7.15177 121.772 8.19647 120.295C9.2359 118.823 10.4811 117.366 11.9479 116.306C12.7077 115.757 13.5571 115.356 14.4963 115.277C15.4672 115.198 16.438 115.393 17.4035 115.478C18.3533 115.557 19.2714 115.483 20.1789 115.193C21.0653 114.908 21.8989 114.47 22.722 114.037C26.3468 112.117 30.0613 110.375 33.8708 108.856C34.8311 108.476 35.8072 108.128 36.7622 107.737C37.5906 107.4 38.4084 107.036 39.2526 106.724C40.54 106.255 42.4553 105.643 43.3786 107.051C43.6055 107.4 44.1648 107.072 43.9327 106.724C43.1412 105.516 41.7852 105.389 40.4767 105.674C38.9149 106.017 37.4745 106.782 35.9866 107.347C31.9924 108.856 28.0827 110.555 24.2786 112.491C23.3499 112.966 22.4371 113.473 21.5032 113.937C20.5852 114.391 19.5985 114.797 18.5643 114.855C17.5354 114.918 16.5224 114.697 15.5041 114.633C14.5491 114.57 13.631 114.681 12.7551 115.077C11.0878 115.831 9.72131 117.319 8.58163 118.712C7.39447 120.173 6.39194 121.777 5.57411 123.466C3.54802 127.645 2.64055 132.24 2.12347 136.825C2.07599 137.237 2.71968 137.232 2.76716 136.825L2.77245 136.836Z" fill="#13091C"/>
<path d="M16.7015 115.973C12.9237 118.11 10.5546 122.073 10.143 126.357C9.93727 128.473 10.1431 130.778 11.0242 132.731C11.4252 133.617 12.0267 134.461 12.8339 135.021C13.1505 135.237 13.5884 135.411 13.9578 135.211C14.3482 134.999 14.3852 134.546 14.3272 134.15C14.1161 132.741 13.7362 131.338 13.3616 129.961C12.9817 128.568 12.549 127.185 12.0636 125.824C11.9264 125.434 11.3038 125.602 11.441 125.993C12.1849 128.088 12.8076 130.219 13.2983 132.382C13.4143 132.884 13.5198 133.39 13.6201 133.897C13.6518 134.055 13.8259 134.54 13.5938 134.646C13.4196 134.725 13.0556 134.382 12.9342 134.277C12.2536 133.691 11.7681 132.905 11.441 132.076C10.7392 130.282 10.5968 128.251 10.7815 126.346C10.9714 124.357 11.6152 122.405 12.6704 120.706C13.752 118.975 15.2452 117.524 17.0233 116.517C17.3821 116.311 17.0603 115.757 16.6962 115.963L16.7015 115.973Z" fill="#13091C"/>
<path d="M6.01164 112.09C11.1296 111.061 16.5484 111.889 21.1229 114.396C21.487 114.596 21.8141 114.037 21.45 113.842C16.7172 111.246 11.1296 110.401 5.84276 111.467C5.43649 111.546 5.61064 112.169 6.01164 112.09Z" fill="#13091C"/>
<path d="M5.99597 90.0243C8.2806 88.758 10.9662 89.3331 13.2614 90.2564C15.3614 91.1006 17.3822 92.1823 19.2974 93.3905C23.0542 95.7543 26.4257 98.7249 29.2643 102.139C30.8683 104.075 32.293 106.154 33.517 108.349C33.7175 108.713 34.2768 108.386 34.071 108.022C31.8233 104.006 28.9161 100.371 25.5023 97.2897C22.0569 94.182 18.0997 91.5966 13.8154 89.7974C11.2458 88.7158 8.24895 88.0457 5.67412 89.4756C5.31006 89.6761 5.63719 90.2353 6.00125 90.0296L5.99597 90.0243Z" fill="#13091C"/>
<path d="M15.7306 152.648C17.9677 152.49 20.2154 152.247 22.3998 151.725C23.4761 151.466 24.5472 151.134 25.5497 150.659C26.605 150.158 27.5494 149.424 28.5414 148.812C29.4806 148.232 30.4303 147.662 31.3167 147.003C32.3878 146.201 33.3428 145.272 34.3189 144.365C36.3133 142.518 38.408 140.708 40.0753 138.545C41.521 136.666 42.5974 134.35 41.7268 131.986C41.7004 132.092 41.674 132.197 41.6424 132.298C42.1119 131.907 42.7979 131.538 43.3624 131.195C44.2541 130.657 45.1511 130.124 46.0428 129.58C46.7921 129.121 47.5571 128.657 48.2588 128.124C49.0819 127.502 49.5832 126.552 49.9525 125.602C50.5593 124.051 50.6701 122.336 50.2902 120.722C50.1952 120.315 49.5726 120.489 49.6676 120.89C50 122.315 49.9051 123.808 49.4196 125.185C49.0978 126.093 48.6281 127.048 47.842 127.633C46.3435 128.752 44.671 129.649 43.0776 130.615C42.4444 131 41.7637 131.364 41.1939 131.839C41.1147 131.907 41.0726 132.055 41.1095 132.15C41.8535 134.176 41.0409 136.128 39.8432 137.79C38.3236 139.901 36.3133 141.647 34.4086 143.404C33.4325 144.307 32.4933 145.256 31.4539 146.085C30.6044 146.765 29.6916 147.346 28.7683 147.915C27.7922 148.517 26.853 149.192 25.8611 149.767C24.9641 150.29 23.9721 150.633 22.9802 150.912C20.6217 151.567 18.1682 151.836 15.7306 152.005C15.319 152.031 15.3137 152.68 15.7306 152.648Z" fill="#13091C"/>
<path d="M33.2799 108.481C31.7814 110.618 30.895 113.235 30.9953 115.857C31.0692 117.883 31.6074 119.957 32.3882 121.825C32.9897 123.254 33.702 124.642 34.4882 125.982C35.3799 127.497 36.3718 128.984 37.5801 130.267C38.5509 131.301 39.8964 132.483 41.4159 132.388C41.8275 132.361 41.8328 131.718 41.4159 131.744C40.1918 131.823 39.1102 130.9 38.3029 130.087C37.1316 128.911 36.1766 127.523 35.3165 126.104C33.6176 123.307 32.1983 120.3 31.7446 117.028C31.3383 114.116 32.1614 111.198 33.8392 108.803C34.0767 108.46 33.5173 108.138 33.2852 108.476L33.2799 108.481Z" fill="#13091C"/>
<path d="M70.6568 95.4011C72.5615 96.5777 74.1602 98.2028 75.3157 100.118C75.5321 100.472 76.086 100.15 75.8697 99.7909C74.6562 97.7807 72.9731 96.0817 70.9786 94.8418C70.6251 94.6202 70.3033 95.1795 70.6515 95.3958L70.6568 95.4011Z" fill="#13091C"/>
<path d="M66.3832 101.205C66.9425 102.867 67.391 104.566 67.7129 106.286C67.8764 107.183 68.0136 108.085 68.1086 108.987C68.1825 109.694 68.2933 110.565 67.8553 111.182C67.4174 111.805 66.5099 112.016 65.8293 112.232C64.9851 112.501 64.1198 112.718 63.2492 112.886C62.368 113.055 61.471 113.182 60.5741 113.224C59.7879 113.261 58.9437 113.066 59.0229 112.095C59.0862 111.293 59.7405 110.649 60.4264 110.301C61.2917 109.863 62.2942 109.816 63.2439 109.758C63.418 109.747 63.5657 109.62 63.5657 109.436C63.5657 108.217 63.3441 107.014 62.9115 105.869C62.7637 105.484 62.1411 105.653 62.2888 106.038C62.7057 107.13 62.9168 108.264 62.922 109.43C63.0276 109.325 63.1384 109.214 63.2439 109.109C61.5608 109.214 59.4977 109.446 58.643 111.14C58.3 111.821 58.2261 112.77 58.796 113.361C59.4027 113.989 60.3631 113.894 61.1492 113.826C63.1806 113.646 65.2911 113.235 67.18 112.438C67.945 112.116 68.5466 111.588 68.7365 110.755C68.9476 109.842 68.7523 108.845 68.6309 107.932C68.3144 105.584 67.7709 103.278 67.0112 101.031C66.8792 100.64 66.2566 100.809 66.3885 101.2L66.3832 101.205Z" fill="#13091C"/>
<path d="M68.6675 97.765C70.0868 99.4587 71.0998 101.379 72.1392 103.316C72.5297 104.038 72.746 104.83 72.9624 105.621C73.1734 106.402 73.4161 107.199 73.3633 108.017C73.2841 109.183 72.688 110.259 71.7752 110.977C71.4481 111.235 71.9071 111.684 72.2289 111.431C73.0626 110.776 73.6482 109.832 73.8909 108.798C74.1072 107.864 73.9754 106.983 73.7485 106.075C73.5322 105.215 73.3106 104.334 72.9624 103.511C72.535 102.498 71.9334 101.522 71.39 100.567C70.7304 99.4112 69.9812 98.3243 69.1265 97.306C68.8574 96.9894 68.4036 97.4432 68.6727 97.7597L68.6675 97.765Z" fill="#13091C"/>
<path d="M74.1021 108.766C74.6297 108.312 75.1046 107.811 75.532 107.262C75.5847 107.193 75.6269 107.13 75.6269 107.035C75.6269 106.956 75.59 106.861 75.532 106.808C75.4159 106.703 75.189 106.666 75.0782 106.808C74.6508 107.357 74.1707 107.858 73.6483 108.312C73.5217 108.423 73.5269 108.655 73.6483 108.766C73.7855 108.892 73.9649 108.882 74.1021 108.766Z" fill="#13091C"/>
<path d="M47.2614 113.43C49.2189 114.891 51.7146 115.224 54.0309 114.517C55.6665 114.015 57.3391 113.356 58.8481 112.549C59.2122 112.353 58.8903 111.794 58.521 111.995C57.1439 112.733 55.6349 113.324 54.1522 113.804C53.0178 114.168 51.8728 114.364 50.6857 114.184C49.5566 114.01 48.496 113.562 47.5832 112.876C47.2508 112.628 46.929 113.187 47.2561 113.43H47.2614Z" fill="#13091C"/>
<path d="M121.985 128.451C120.354 126.504 117.194 123.507 114.334 123.676C113.479 123.729 112.646 124.061 111.891 124.8C109.538 125.787 108.203 127.982 107.829 130.456C107.829 130.456 107.834 130.461 107.829 130.461C107.723 131.142 107.691 131.854 107.739 132.561C107.786 133.279 107.876 134.018 108.029 134.772C108.62 137.832 110.103 141.019 112.635 142.713C114.144 143.731 116.165 143.99 117.769 143.04C119.352 142.106 120.676 140.365 121.731 138.888C122.845 137.315 123.652 135.511 123.773 133.569C123.779 133.548 123.779 133.532 123.779 133.511C123.889 131.601 123.193 129.892 121.974 128.446L121.985 128.451Z" fill="#13091C"/>
<path d="M148.207 83.6609C147.078 83.8509 108.255 85.8136 102.52 86.4943C97.2332 87.1222 98.3677 89.1799 95.3602 101.247C94.8326 103.368 92.8645 110.744 91.5085 117.313C89.361 117.577 87.2189 117.835 85.0662 118.078C79.753 118.669 74.4345 119.186 69.1054 119.629C68.1926 119.703 66.9791 119.666 66.5992 120.7C66.3195 121.465 66.7047 122.299 67.3432 122.753C68.3087 123.433 69.7069 123.618 70.8202 123.929C72.0918 124.288 73.3687 124.647 74.6402 125.001C77.5475 125.808 80.46 126.605 83.3725 127.38C84.834 127.771 86.2903 128.172 87.7623 128.536C88.8387 128.799 89.9415 128.974 91.0178 128.71C91.1233 128.741 91.2342 128.752 91.3608 128.731C92.1892 128.583 94.1255 128.541 94.9645 128.472C106.931 127.491 118.84 125.977 130.706 124.172C132.331 123.924 133.961 123.671 135.587 123.412C137.011 123.185 138.578 123.096 139.871 122.41C142.161 121.202 142.651 118.321 143.2 116.041C143.955 112.902 144.688 109.757 145.395 106.613C146.989 99.5214 148.461 93.3165 149.954 86.2041C150.107 85.4707 149.964 83.3654 148.202 83.6609H148.207Z" fill="#C4C0CC"/>
<path d="M83.0615 123.254C84.0481 123.069 85.0559 122.99 86.0531 122.869C87.3669 122.705 88.6808 122.542 89.9787 122.278C90.385 122.193 90.2108 121.576 89.8098 121.655C88.5066 121.919 87.1823 122.083 85.8632 122.246C84.8765 122.368 83.874 122.447 82.8927 122.631C82.4864 122.705 82.6605 123.328 83.0615 123.254Z" fill="#13091C"/>
<path d="M90.9758 117.84C90.026 121.186 89.0711 124.525 88.1213 127.865C88.0053 128.266 88.6278 128.435 88.7439 128.034C89.6936 124.689 90.6487 121.349 91.5984 118.004C91.7145 117.603 91.0918 117.434 90.9758 117.835V117.84Z" fill="#13091C"/>
<path d="M67.6918 120.753C70.4354 121.439 73.1475 122.252 75.8648 123.027C79.1572 123.972 82.4495 124.927 85.7472 125.855C86.7233 126.13 87.6994 126.43 88.6861 126.647C89.0924 126.736 89.2612 126.114 88.855 126.024C86.5439 125.507 84.2699 124.768 81.9958 124.114C78.582 123.133 75.1683 122.146 71.744 121.186C70.4513 120.822 69.1586 120.452 67.8553 120.131C67.4544 120.03 67.2803 120.653 67.6865 120.753H67.6918Z" fill="#13091C"/>
<path d="M89.451 124.457C86.0267 123.528 82.6076 122.579 79.1939 121.618C79.0884 121.587 78.9301 121.513 78.8246 121.513C78.7824 121.502 78.7402 121.486 78.6979 121.476C78.5977 121.592 78.6029 121.618 78.719 121.566C78.7982 121.576 78.9301 121.523 79.0145 121.508C79.2625 121.46 79.5105 121.423 79.7585 121.386C80.3916 121.291 81.0301 121.207 81.6685 121.122C83.2355 120.922 84.8078 120.743 86.3749 120.558C87.8734 120.384 89.3771 120.22 90.8756 120.02C91.2871 119.967 91.113 119.344 90.7068 119.397C87.6096 119.814 84.4913 120.109 81.3888 120.516C80.7188 120.605 80.0486 120.69 79.3838 120.801C78.9353 120.874 77.9645 120.896 77.9645 121.529C77.9645 122.025 78.5396 122.104 78.9037 122.209C79.3838 122.347 79.8587 122.478 80.3389 122.616C81.162 122.848 81.9903 123.08 82.8134 123.312C84.9661 123.914 87.1241 124.505 89.2874 125.085C89.6884 125.196 89.8572 124.573 89.4562 124.462L89.451 124.457Z" fill="#13091C"/>
<path d="M82.7289 120.964C85.0979 121.555 87.4564 122.188 89.8097 122.858C90.2107 122.974 90.3795 122.352 89.9785 122.236C87.6306 121.565 85.2721 120.938 82.8977 120.341C82.4968 120.241 82.3226 120.864 82.7289 120.964Z" fill="#13091C"/>
<path d="M87.9788 120.352C88.4167 120.431 88.8441 120.537 89.2557 120.711C89.2715 120.716 89.2926 120.727 89.3084 120.732C89.2768 120.716 89.2662 120.711 89.3084 120.732C89.3453 120.748 89.3823 120.763 89.4245 120.779C89.5194 120.822 89.6144 120.858 89.7094 120.901C89.8994 120.98 90.0946 121.048 90.2951 121.106C90.4639 121.159 90.6486 121.048 90.6908 120.88C90.7383 120.705 90.6327 120.537 90.4639 120.484C90.2687 120.426 90.0787 120.357 89.8888 120.283C89.8677 120.273 89.8413 120.267 89.8202 120.257C89.8571 120.273 89.7622 120.236 89.8202 120.257C89.7833 120.241 89.7411 120.225 89.7041 120.209C89.6144 120.173 89.5195 120.13 89.4298 120.093C89.0182 119.925 88.5908 119.819 88.1529 119.735C87.984 119.703 87.8046 119.782 87.7572 119.961C87.7149 120.12 87.8099 120.326 87.9841 120.357L87.9788 120.352Z" fill="#13091C"/>
<path d="M141.132 122.5C140.124 121.677 138.547 121.655 137.317 121.798C136.579 121.882 135.856 122.051 135.159 122.32C134.859 122.436 134.558 122.584 134.262 122.705C134.257 122.151 134.241 121.603 134.241 121.049C134.236 119.308 134.785 116.759 132.716 115.936C130.622 115.102 129.973 117.804 129.466 119.218C129.15 120.083 128.865 120.959 128.622 121.845C128.353 120.875 128.073 119.898 127.757 118.938C127.435 117.952 127.182 116.59 126.406 115.846C125.746 115.224 124.723 115.176 123.926 115.546C123.367 115.804 122.961 116.237 122.639 116.733C122.607 116.706 122.581 116.669 122.544 116.648C121.578 116.089 120.766 116.295 120.09 116.88C119.199 117.165 119.13 119.139 119.019 119.92C118.835 121.276 118.903 122.663 118.94 124.03C118.94 124.251 118.951 124.473 118.961 124.7C118.65 123.798 118.323 122.864 117.885 122.041C117.436 121.191 116.508 120.79 115.616 121.249C114.751 121.692 114.476 122.621 114.36 123.518C114.355 123.571 114.35 123.624 114.339 123.671C114.228 124.621 114.197 125.491 114.255 126.452C112.482 126.668 112.033 126.657 110.983 126.847C109.96 127.649 108.905 128.963 108.15 129.955C108.029 130.119 107.923 130.277 107.834 130.451C107.834 130.451 107.839 130.456 107.834 130.456C107.728 131.137 107.696 131.849 107.744 132.556C107.791 133.274 107.881 134.013 108.034 134.767C108.293 135.442 108.614 136.076 108.926 136.619C110.05 138.576 111.464 139.853 113.843 139.975C116.434 140.117 118.84 138.249 120.539 136.645C121.62 135.622 122.702 134.598 123.789 133.569C124.565 132.841 125.33 132.113 126.1 131.385C127.546 131.791 129.187 131.132 129.778 129.67C129.836 129.528 129.883 129.385 129.92 129.243C130.147 129.29 130.411 129.427 130.585 129.475C131.028 129.591 131.477 129.596 131.899 129.406C132.563 129.106 133.022 128.446 133.355 127.787C134.568 127.169 135.84 126.705 137.175 126.415C137.824 126.267 138.478 126.177 139.143 126.114C139.792 126.045 140.473 125.961 141.011 125.57C142.087 124.805 142.166 123.354 141.132 122.494V122.5Z" fill="#FFA078"/>
<path d="M113.632 126.874C113.796 127.834 113.954 128.8 114.117 129.76C114.144 129.934 114.36 130.029 114.513 129.987C114.698 129.939 114.766 129.765 114.74 129.591C114.576 128.631 114.418 127.665 114.255 126.705C114.228 126.531 114.012 126.436 113.859 126.478C113.674 126.525 113.606 126.7 113.632 126.874Z" fill="#13091C"/>
<path d="M122.517 116.97C123.451 119.397 123.984 121.956 124.28 124.542C124.422 125.797 124.528 127.064 124.58 128.325C124.628 129.512 124.601 130.82 123.942 131.86C123.377 132.751 122.327 133.416 121.256 133.116C120.739 132.968 120.254 132.736 119.7 132.825C119.162 132.91 118.729 133.274 118.27 133.538C116.349 134.64 113.748 134.466 112.149 132.873C111.332 132.06 110.799 130.942 110.735 129.786C110.709 129.348 110.767 128.926 110.846 128.499C110.931 128.061 111.005 127.586 111.194 127.18C111.369 126.805 110.815 126.478 110.64 126.853C110.303 127.57 110.145 128.467 110.097 129.259C110.028 130.351 110.356 131.469 110.946 132.387C112.223 134.371 114.603 135.231 116.882 134.746C117.463 134.625 118.027 134.408 118.55 134.123C119.135 133.796 119.626 133.311 120.344 133.495C120.903 133.638 121.409 133.881 122 133.828C122.544 133.78 123.055 133.575 123.493 133.258C125.704 131.665 125.282 128.546 125.092 126.188C124.828 122.996 124.301 119.803 123.145 116.801C122.998 116.416 122.375 116.585 122.523 116.97H122.517Z" fill="#13091C"/>
<path d="M124.776 131.385C125.06 131.49 125.351 131.601 125.636 131.707C125.709 131.733 125.82 131.712 125.884 131.675C125.952 131.638 126.015 131.559 126.031 131.485C126.052 131.401 126.047 131.311 126 131.237C125.952 131.163 125.889 131.121 125.804 131.089C125.519 130.984 125.229 130.873 124.944 130.768C124.871 130.741 124.76 130.762 124.696 130.799C124.628 130.836 124.564 130.915 124.549 130.994C124.528 131.079 124.533 131.169 124.58 131.242C124.628 131.316 124.691 131.358 124.77 131.39L124.776 131.385Z" fill="#13091C"/>
<path d="M118.566 124.948C118.703 126.415 118.845 127.876 118.982 129.343C119.051 130.061 119.12 130.783 119.188 131.501C119.241 132.06 119.399 133.026 118.671 133.211C118.27 133.311 118.439 133.933 118.84 133.833C120.381 133.443 119.805 131.248 119.7 130.145C119.536 128.414 119.373 126.684 119.204 124.953C119.167 124.542 118.518 124.542 118.56 124.953L118.566 124.948Z" fill="#13091C"/>
<path d="M130.036 128.816C129.894 126.441 129.614 124.078 129.213 121.73C129.144 121.323 128.522 121.492 128.59 121.898C128.986 124.188 129.255 126.494 129.392 128.81C129.419 129.222 130.062 129.227 130.036 128.81V128.816Z" fill="#13091C"/>
<path d="M134.031 127.401C134.268 125.961 134.505 124.521 134.743 123.08C134.811 122.674 134.189 122.5 134.12 122.911C133.883 124.352 133.645 125.792 133.408 127.233C133.339 127.639 133.962 127.813 134.031 127.401Z" fill="#13091C"/>
</svg>
