<svg width="200" height="407" viewBox="0 0 200 407" fill="none" xmlns="http://www.w3.org/2000/svg">
<path d="M84.005 85.2816C83.8573 84.9148 83.6942 84.553 83.5363 84.1913C83.6331 84.0537 83.6331 83.8652 83.4395 83.7735C83.4038 83.7582 83.3681 83.7429 83.3325 83.7276C83.0166 83.0245 82.6905 82.3316 82.339 81.6438C82.2167 81.4094 81.8295 81.4655 81.7734 81.7202C81.6919 82.0718 81.6104 82.4284 81.5289 82.7799C81.4932 82.9277 81.5594 83.0398 81.6563 83.106C81.1773 82.9888 80.6882 82.9328 80.1991 82.994C78.9355 83.1519 78.3802 84.1199 77.9013 85.1848C76.7396 87.7628 75.6289 90.3613 74.5691 92.9852C72.419 98.2993 70.4829 103.7 68.822 109.187C67.161 114.68 65.7701 120.259 64.7205 125.899C63.6812 131.473 62.9729 137.108 62.6622 142.768C62.5093 145.596 62.4533 148.429 62.5042 151.256C62.5297 152.688 62.5806 154.115 62.6622 155.546C62.6978 156.194 62.6826 156.881 62.8099 157.518C62.9169 158.053 63.2939 158.339 63.8187 158.415C66.4274 158.797 69.1634 158.033 71.5478 157.019C74.0189 155.969 76.4084 154.589 78.6553 153.121C79.6692 152.459 80.6372 151.69 81.3149 150.671C82.0282 149.595 82.3288 148.317 82.502 147.058C82.9096 144.124 83.1389 141.153 83.4497 138.208C84.0917 132.084 84.7336 125.965 85.3806 119.841C85.7016 116.769 86.0277 113.691 86.3487 110.619C86.6646 107.628 87.0213 104.637 87.062 101.626C87.1333 96.0473 86.0838 90.453 84.005 85.2765V85.2816ZM82.1351 82.9481C82.1504 82.8768 82.1708 82.8054 82.1861 82.729C82.288 82.943 82.395 83.1519 82.4969 83.3659C82.2982 83.2895 82.0995 83.2232 81.8957 83.1621C82.0027 83.1519 82.1046 83.0857 82.1351 82.943V82.9481Z" fill="#13091C"/>
<path d="M95.3363 55.0022C94.0269 59.0986 92.4067 63.1032 90.868 67.113C90.4095 68.295 89.956 69.477 89.5128 70.6693C88.3103 72.906 87.1538 75.1681 86.0074 77.4354C82.7721 83.8551 79.547 90.2952 76.9588 97.0103C74.4622 103.501 72.4599 110.181 70.8091 116.932C69.1481 123.683 67.8337 130.525 66.6873 137.383C65.5409 144.251 64.5677 151.15 63.5946 158.043C63.5742 158.181 63.4214 158.272 63.2991 158.272C61.5108 158.267 60.7822 156.311 60.5325 154.823C60.3338 153.636 60.2472 152.418 60.1199 151.216C59.9721 149.876 59.8243 148.541 59.6715 147.201C59.2945 143.792 58.9276 140.379 58.5608 136.975C58.2703 134.28 57.9851 131.585 57.6997 128.89C57.3227 125.308 56.9507 121.726 56.5839 118.149C55.6464 109.034 54.7446 99.9195 53.8683 90.7995C53.6441 90.8912 53.3283 90.7384 53.4454 90.4582C53.5524 90.2035 53.6543 89.9487 53.7613 89.694C53.7409 89.4902 53.7257 89.2863 53.7053 89.0825C53.6798 88.8176 53.9345 88.736 54.1282 88.8176C55.7993 84.7976 57.4806 80.7777 59.1518 76.7578C59.9313 74.8727 60.6803 72.9722 61.5312 71.1227C62.3005 69.4414 63.1972 67.811 64.42 66.4201C66.9369 63.5567 70.6715 62.0384 74.1106 60.6271C80.9073 57.8401 88.0607 55.9601 95.3414 55.0073L95.3363 55.0022Z" fill="#9C668D"/>
<path d="M64.8428 136.756C64.7001 131.493 64.6288 126.23 64.6339 120.962C64.639 115.673 64.7256 110.38 64.8886 105.091C65.0517 99.8278 65.286 94.5698 65.6019 89.3118C65.6783 88.0024 65.765 86.698 65.8516 85.3886C65.8974 84.7212 65.9433 84.0538 65.9891 83.3914C66.0299 82.7953 66.0452 82.189 66.1522 81.6031C66.3814 80.365 67.3189 79.7332 68.2921 79.0556C69.2347 78.4034 70.1976 77.7921 71.1911 77.2163C75.1856 74.893 79.5418 73.2066 84.061 72.2436C84.6317 72.1213 85.2023 72.0092 85.778 71.9124C86.1703 71.8462 86.0022 71.245 85.615 71.3163C81.0092 72.1162 76.5408 73.6498 72.4088 75.8355C71.3592 76.3909 70.33 76.9921 69.3263 77.629C68.3939 78.2251 67.4005 78.8263 66.5802 79.5753C65.7446 80.3446 65.5204 81.3229 65.4388 82.4183C65.3369 83.743 65.2504 85.0676 65.1638 86.3923C64.8122 91.7726 64.5421 97.1632 64.3536 102.554C64.1651 107.919 64.0531 113.284 64.0225 118.654C63.9919 124.024 64.0428 129.389 64.1702 134.754C64.1855 135.421 64.2059 136.089 64.2212 136.756C64.2314 137.154 64.853 137.154 64.8428 136.756Z" fill="#13091C"/>
<path d="M73.5451 75.1478C73.1273 73.125 71.5733 71.459 71.4408 69.3599C71.3695 68.2644 71.8026 67.4085 72.6025 66.685C73.2954 66.0583 74.0495 65.503 74.8188 64.9731C78.0286 62.7619 81.6155 61.1416 85.2024 59.6539C87.1843 58.8336 89.1816 58.049 91.1635 57.2338C91.5253 57.086 91.3673 56.4849 91.0005 56.6377C87.2556 58.1764 83.4548 59.603 79.817 61.3862C78.0032 62.2778 76.225 63.2561 74.5589 64.4025C73.7641 64.9476 72.9846 65.5284 72.2662 66.1602C71.5172 66.8175 70.967 67.597 70.8448 68.6058C70.5492 71.0769 72.4751 73.0078 72.949 75.3108C73.0305 75.7031 73.6266 75.535 73.5451 75.1478Z" fill="#13091C"/>
<path d="M64.0532 67.6784C63.3093 75.0865 63.2431 82.5608 63.8647 89.9842C64.043 92.0833 64.2774 94.1723 64.5576 96.2613C64.6085 96.6536 65.2098 96.4854 65.1537 96.0982C64.1551 88.7461 63.8392 81.3024 64.201 73.8943C64.3029 71.8206 64.4608 69.7469 64.6697 67.6835C64.7105 67.2861 64.0889 67.2912 64.0481 67.6835L64.0532 67.6784Z" fill="#13091C"/>
<path d="M64.3384 117.772C64.3028 117.451 63.6404 119.464 63.5436 119.831C62.9882 122.052 61.959 124.279 60.7515 126.255C60.2115 127.147 58.5913 128.115 57.6996 128.89C57.985 131.585 58.2703 134.28 58.5607 136.975C58.5963 136.374 58.6779 135.778 58.7849 135.187C58.79 135.167 58.79 135.156 58.7951 135.136C59.1059 133.434 59.6561 131.773 60.456 130.23C61.0267 129.119 61.7145 128.074 62.5042 127.111C62.8813 126.653 63.3653 126.25 63.7015 125.761C64.0633 125.236 64.3078 123.8 64.3078 123.198C64.2976 121.487 64.5371 119.474 64.3435 117.777L64.3384 117.772Z" fill="#13091C"/>
<path d="M141.568 64.0815C140.401 63.0166 139.174 62.0078 137.935 61.0245C135.444 59.0425 132.851 57.1879 130.211 55.4047C127.552 53.6062 124.841 51.884 122.131 50.167C120.837 49.3467 119.558 48.4908 118.157 47.8591C116.725 47.212 115.207 46.8909 113.643 46.7789C110.239 46.5445 106.724 47.1101 103.702 48.7354C103.616 48.7812 103.57 48.8526 103.555 48.929C99.2799 51.4102 95.1122 54.0749 91.082 56.9332C88.9829 58.4209 86.9143 59.9596 84.8865 61.5493C84.377 61.9467 83.8675 62.3543 83.358 62.7568C82.8893 63.1338 82.3441 63.4904 81.9467 63.9439C81.2997 64.6877 81.6716 65.7373 82.5887 66.0277C82.981 66.15 83.3988 66.1398 83.8115 66.1245C85.1311 66.0787 86.6443 66.0736 87.9537 66.2927C89.0135 66.471 88.9065 66.3844 88.56 67.4696C87.8926 69.5331 86.6749 71.3163 85.7476 73.2626C85.2279 74.3478 84.8509 75.4942 84.4025 76.6049C82.5327 81.2362 80.352 85.9134 78.7318 90.7078C77.9625 92.9802 76.9485 95.436 77.2899 97.8408C77.6466 100.348 78.742 102.625 79.5317 105.004C79.9036 106.13 80.2909 107.251 80.6934 108.372C80.8921 108.933 81.1009 109.488 81.3047 110.043C81.4984 110.558 81.6563 111.123 81.962 111.582C82.2524 112.02 82.66 112.265 83.1593 112.402C83.8115 112.581 84.4942 112.682 85.1617 112.8C86.522 113.039 87.8926 113.223 89.2631 113.365C90.7712 113.518 91.831 116.198 93.3442 116.229C93.5989 116.483 94.3173 114.135 94.6077 114.349C95.3261 114.889 96.1668 115.184 97.0482 115.327C97.9552 115.469 98.8722 115.485 99.7842 115.525C100.813 115.571 101.843 115.612 102.872 115.658C107.04 115.836 111.207 116.009 115.375 116.188C116.328 116.229 117.285 116.279 118.233 116.137C119.155 115.994 119.996 115.612 120.781 115.123C122.309 114.17 123.746 113.039 125.127 111.893C127.883 109.61 130.38 107.037 132.621 104.255C132.657 104.281 132.677 104.311 132.718 104.327C132.881 104.408 133.065 104.423 133.238 104.352C133.493 104.245 133.508 103.955 133.569 103.715C133.9 102.447 134.135 101.158 134.298 99.8533C134.629 97.2243 134.654 94.5647 134.588 91.9153C134.451 86.4229 134.089 80.9254 133.615 75.4534C133.426 73.2728 133.207 71.0921 132.973 68.9115C134.537 68.7637 136.101 68.5956 137.665 68.402C139.51 68.1778 141.349 67.918 143.183 67.6377C143.316 67.6174 143.413 67.4645 143.413 67.3372C143.413 65.9972 142.506 64.9425 141.568 64.0866V64.0815Z" fill="#731C26"/>
<path d="M118.019 51.0179C117.999 50.9669 117.973 50.921 117.948 50.8701C117.316 43.4467 116.684 36.0182 116.053 28.5949C115.992 27.9274 115.186 27.8408 114.967 28.2994C110.367 27.5759 105.796 30.1284 103.774 34.7445C103.728 34.8413 103.539 37.3226 103.31 40.9094C103.259 41.6839 103.213 42.5093 103.157 43.3754C103.127 43.839 103.101 44.3129 103.071 44.7918C103.004 45.9789 102.928 47.2221 102.862 48.4908C102.739 50.7733 102.622 53.1323 102.52 55.4148C100.263 62.1912 98.0011 68.9675 95.7441 75.7438C93.6144 82.1329 92.8501 91.3701 93.6806 98.1566C94.1238 101.769 95.5759 94.7582 96.1109 93.5405C97.8279 89.6174 99.2392 85.3682 101.42 81.6794C103.555 78.0518 106.072 74.6688 108.634 71.3315C109.923 69.6502 111.228 67.9841 112.506 66.2926C113.796 64.5858 115.186 62.8688 116.241 61.004C117.214 59.2819 117.749 57.3815 117.928 55.4148C118.06 53.9577 118.045 52.4954 118.024 51.0281L118.019 51.0179Z" fill="#FFA078"/>
<path d="M113.592 11.8833C111.009 7.44052 107.391 5.52483 102.327 6.29417C102.291 6.29926 102.266 6.31968 102.23 6.32987C102.154 6.32477 102.179 5.89677 102.092 5.92734C98.8367 6.982 95.9274 10.0594 94.8422 13.2437C94.1646 15.2257 94.4397 17.1363 94.5671 19.215C94.5976 19.7602 94.455 20.2952 94.1645 20.7537C93.5328 21.7523 91.7139 23.7292 90.5268 25.1049C90.3943 25.4564 90.2517 25.8283 90.272 26.2104C90.2924 26.618 90.5267 26.883 90.8477 27.097C91.291 27.3925 92.1062 27.7491 92.1164 28.3809C92.1266 29.0483 91.3419 29.4764 91.4336 30.1489C91.4642 30.3782 91.5865 30.5666 91.7444 30.7297C91.8616 30.7755 91.989 30.8112 92.1164 30.8316C92.4629 30.8876 92.8195 30.9131 93.171 30.9182C93.4717 30.9182 93.7723 30.9029 94.0678 30.9743C94.8524 31.1679 94.8116 31.9423 94.1798 32.4671C93.6703 32.89 92.8603 33.4096 92.3559 33.802C92.1724 33.9446 91.826 34.4847 92.0705 35.035C92.8602 36.8437 91.9432 37.6945 92.1776 39.3046C92.6259 42.387 97.0534 42.3615 99.3717 41.8877C102.525 41.2457 104.823 40.5936 107.656 39.0702C109.052 38.3161 110.086 36.7978 111.019 35.4833C111.926 34.2045 112.466 32.6913 112.94 31.2086C113.699 28.8344 114.137 26.3633 114.264 23.8769C114.855 22.1956 115.293 20.4684 115.35 18.6699C115.421 16.3109 114.774 13.9366 113.592 11.8986V11.8833Z" fill="#FFA078"/>
<path d="M124.47 31.0252C124.648 30.7246 124.826 30.424 125.015 30.1285C126.823 27.26 128.948 24.4985 129.753 21.1359C130.125 19.587 130.242 17.9413 129.916 16.3721C129.575 14.7213 128.688 13.3559 127.639 12.0668C127.139 11.4503 126.625 10.8797 126.054 10.3294C125.555 9.8454 125.035 9.34099 124.699 8.72449C124.352 8.09272 124.133 7.3947 123.807 6.74764C123.466 6.06491 123.033 5.45354 122.482 4.92366C121.402 3.88428 120.149 3.15569 118.727 2.68696C117.907 2.41692 117.016 2.16725 116.124 2.09082C115.288 2.08573 114.448 2.18764 113.699 2.54938C112.568 1.49472 111.151 0.730492 109.628 0.338179C107.941 -0.0948944 106.219 -0.054142 104.497 0.139467C102.918 0.317791 101.241 0.440071 99.7945 1.15846C99.0404 1.5304 98.3934 2.08576 97.8992 2.76339C97.8278 2.86529 97.731 2.99266 97.6393 3.13532C95.8051 3.0538 93.9659 3.28817 92.2285 3.9709C90.7356 4.55682 89.2887 5.4484 88.234 6.6661C87.1641 7.89909 86.8379 9.58044 87.3576 11.1344C87.8824 12.7088 89.1715 13.8654 90.6796 14.4869C90.7866 15.2869 91.077 16.0664 91.5763 16.7542C92.2386 17.6662 93.1812 18.3489 94.297 18.568C94.4753 18.6036 94.7097 18.4865 94.6893 18.2674C94.5059 16.4026 94.4498 14.3239 95.1784 12.561C95.4026 13.7278 95.8459 14.8486 96.549 15.8371C98.0571 17.9515 100.503 19.0266 103.03 19.3119C104.171 19.4392 105.343 19.4138 106.494 19.2966C107.896 20.6366 107.992 22.6796 108.904 24.3355C109.348 25.1405 109.796 24.687 110.26 24.1826C110.779 23.6171 111.202 22.9701 111.661 22.3587C111.89 22.053 112.715 20.9677 112.578 22.0122C113.276 24.5087 113.862 27.0307 114.31 29.5833C114.494 30.6329 115.069 32.8492 115.584 34.5509C115.742 35.3661 115.9 36.1813 116.058 36.9914C116.18 37.6181 116.302 38.2448 116.425 38.8766C116.511 39.3352 116.593 39.8141 116.888 40.1911C117.123 40.4866 117.484 40.6598 117.861 40.5528C118.361 40.4152 118.722 39.8752 119.054 39.5135C119.476 39.0549 119.889 38.5861 120.307 38.1225C121.535 35.8705 122.814 33.644 124.174 31.4736C124.271 31.3207 124.373 31.1679 124.475 31.0099L124.47 31.0252Z" fill="#66372E"/>
<path d="M115.961 20.5244C115.202 20.2951 114.361 20.2238 113.597 20.4684C112.481 20.825 111.808 21.9153 111.365 22.9343C110.866 24.0858 110.631 25.3341 110.626 26.5875C110.621 27.8459 110.621 29.2368 111.273 30.3577C111.915 31.4582 113.057 32.0951 114.336 31.8556C116.847 31.392 118.503 28.9566 118.824 26.562C119.135 24.259 118.462 21.2836 115.961 20.5295V20.5244Z" fill="#FFA078"/>
<path d="M103.065 44.7816C104.125 44.3026 105.022 43.518 105.766 42.6213C106.265 42.015 106.734 41.3577 107.152 40.6903C107.554 40.0534 107.89 39.3605 107.86 38.5861C107.85 38.3568 107.6 38.1937 107.396 38.3211C106.591 38.8 105.878 39.4012 105.098 39.9107C104.528 40.2878 103.921 40.6037 103.31 40.9043C103.259 41.6787 103.213 42.5041 103.157 43.3703C103.127 43.8339 103.101 44.3077 103.071 44.7867L103.065 44.7816Z" fill="#13091C"/>
<path d="M114.544 31.7996C113.877 31.8047 113.204 31.8148 112.537 31.8199C112.241 31.8199 111.915 31.7945 111.635 31.9167C111.401 32.0186 111.238 32.2173 111.105 32.4313C110.805 32.9205 110.54 33.4198 110.204 33.8885C109.837 34.398 109.429 34.8667 108.991 35.31C108.711 35.5953 109.149 36.0335 109.429 35.7482C110.209 34.9584 110.891 34.0719 111.436 33.1038C111.538 32.9204 111.63 32.681 111.798 32.5434C112.002 32.3702 112.384 32.4466 112.639 32.4415C113.276 32.4364 113.908 32.4262 114.544 32.4211C114.942 32.4211 114.942 31.7996 114.544 31.7996Z" fill="#13091C"/>
<path d="M116.567 22.3536C115.823 21.6199 114.723 22.0275 114.106 22.7051C113.75 23.0974 113.429 23.5611 113.174 24.0248C112.914 24.4986 112.72 25.0437 112.838 25.5889C112.889 25.8437 113.047 26.0526 113.113 26.2971C113.189 26.5773 113.113 26.8678 113.031 27.1429C112.909 27.5862 112.669 28.1975 112.924 28.6357C113.159 29.0382 113.699 29.0637 114.06 28.8293C114.473 28.5644 114.718 28.0192 114.82 27.5556C114.942 27.0053 114.906 26.4092 114.667 25.8895C114.443 25.3953 113.918 25.003 113.362 25.2221C112.996 25.3647 113.153 25.966 113.525 25.8182C114.035 25.6195 114.229 26.3888 114.259 26.7506C114.3 27.204 114.193 27.6931 113.933 28.0702C113.857 28.1772 113.638 28.4778 113.48 28.33C113.352 28.2077 113.475 27.846 113.51 27.6931C113.622 27.2499 113.795 26.8168 113.745 26.3532C113.694 25.8844 113.347 25.5431 113.429 25.0489C113.505 24.5699 113.806 24.1368 114.076 23.7445C114.341 23.3624 114.626 22.9446 115.039 22.7153C115.38 22.5319 115.828 22.4912 116.124 22.7816C116.409 23.0618 116.847 22.6236 116.562 22.3434L116.567 22.3536Z" fill="#13091C"/>
<path d="M96.8394 3.53271C94.9491 6.05982 94.1951 9.31039 94.7199 12.4183C94.7861 12.8106 95.3822 12.6425 95.316 12.2553C94.8167 9.30532 95.586 6.23814 97.3744 3.8486C97.6138 3.52761 97.0737 3.22186 96.8394 3.53775V3.53271Z" fill="#13091C"/>
<path d="M91.0719 14.6499C91.6018 14.7518 91.989 14.2882 91.9279 13.7787C91.8922 13.4831 91.7393 13.2233 91.6272 12.9533C91.5101 12.673 91.4133 12.3826 91.3369 12.0922C91.021 10.9152 91.0311 9.63131 91.5865 8.5257C91.7648 8.16906 91.2298 7.85827 91.0515 8.21492C90.593 9.13201 90.435 10.1612 90.542 11.1802C90.5981 11.6795 90.6999 12.1686 90.8579 12.6424C90.9394 12.8921 91.0362 13.1367 91.1432 13.3761C91.1636 13.422 91.4591 14.0945 91.24 14.0486C90.8528 13.9722 90.6847 14.5684 91.077 14.6448L91.0719 14.6499Z" fill="#13091C"/>
<path d="M107.141 19.5309C107.763 19.3373 108.522 18.9297 108.344 18.1451C108.176 17.386 107.289 16.9733 106.795 16.4485C105.404 14.9557 105.012 12.8565 104.645 10.9255C104.568 10.5332 103.972 10.7014 104.049 11.0886C104.365 12.7597 104.701 14.4818 105.628 15.939C106.036 16.5759 106.535 17.0955 107.121 17.5643C107.345 17.7426 107.727 18.0075 107.748 18.3234C107.773 18.7055 107.253 18.8482 106.973 18.9349C106.596 19.052 106.754 19.6532 107.136 19.5309H107.141Z" fill="#13091C"/>
<path d="M108.227 18.6291C108.945 18.9501 109.878 19.2864 110.576 18.7412C111.238 18.2266 111.161 17.3146 111.044 16.5759C110.871 16.6778 110.698 16.7745 110.525 16.8764C112.257 18.303 114.677 18.6189 116.72 17.6967C116.832 17.6458 116.909 17.4624 116.863 17.3452C115.849 14.8181 115.355 12.1279 115.421 9.40719C115.431 9.00978 114.809 9.00978 114.799 9.40719C114.733 12.1789 115.227 14.9404 116.261 17.5133C116.307 17.3961 116.358 17.279 116.404 17.1618C114.636 17.9617 112.456 17.6713 110.958 16.4383C110.708 16.2345 110.392 16.4281 110.438 16.7389C110.509 17.2127 110.616 17.9413 110.163 18.2725C109.699 18.6087 108.981 18.2979 108.527 18.0942C108.166 17.9311 107.85 18.466 108.217 18.6291H108.227Z" fill="#13091C"/>
<path d="M113.984 3.14549C114.448 3.17097 114.84 3.43589 115.212 3.69573C115.584 3.95048 115.951 4.21539 116.312 4.49051C117.046 5.04587 117.744 5.65222 118.371 6.32986C119.568 7.62398 120.495 9.22886 120.684 11.0019C120.725 11.3942 121.346 11.3993 121.305 11.0019C121.102 9.05054 120.134 7.31313 118.814 5.89163C118.121 5.14267 117.336 4.48544 116.521 3.87404C115.777 3.31359 114.962 2.585 113.989 2.52896C113.592 2.50349 113.592 3.12512 113.989 3.15059L113.984 3.14549Z" fill="#13091C"/>
<path d="M121.856 19.3729C122.207 20.0761 122.38 20.8556 122.895 21.467C123.394 22.058 124.133 22.2974 124.882 22.0885C125.066 22.0376 125.244 21.9663 125.417 21.8796C125.483 21.844 125.595 21.7982 125.651 21.7472C125.728 21.7319 125.743 21.6962 125.708 21.6402C125.728 21.6809 125.748 21.7268 125.764 21.7727C125.922 22.1752 126.008 22.5981 126.135 23.0108C126.349 23.7037 126.691 24.3813 127.343 24.7583C127.689 24.957 128 24.4221 127.654 24.2234C127.002 23.8514 126.793 23.0923 126.609 22.4197C126.507 22.0529 126.426 21.63 126.222 21.3039C125.998 20.9371 125.641 21.0288 125.336 21.2173C124.678 21.6147 123.935 21.7065 123.384 21.0951C122.875 20.5295 122.722 19.7296 122.386 19.0622C122.207 18.7055 121.672 19.0214 121.851 19.3729H121.856Z" fill="#13091C"/>
<path d="M96.07 19.9945C97.5272 20.4021 99.0047 20.7079 100.503 20.9168C100.671 20.9422 100.834 20.876 100.885 20.7028C100.926 20.5601 100.834 20.3461 100.671 20.3206C99.1729 20.1117 97.6953 19.806 96.2382 19.3984C95.8561 19.2914 95.6879 19.8876 96.0751 19.9945H96.07Z" fill="#13091C"/>
<path d="M96.9311 19.9792C97.4151 19.4086 97.7973 18.7768 98.0673 18.0788C98.1284 17.926 98.001 17.7324 97.8533 17.6967C97.675 17.6559 97.5374 17.7528 97.4712 17.9107C97.4559 17.9515 97.4406 17.9871 97.4253 18.0228C97.4355 17.9922 97.4253 18.0228 97.4253 18.033C97.4151 18.0534 97.4101 18.0686 97.3999 18.089C97.3642 18.1654 97.3336 18.2367 97.2928 18.3132C97.2164 18.466 97.1349 18.6138 97.0483 18.7615C96.9617 18.9042 96.8751 19.0418 96.7782 19.1743C96.7528 19.2099 96.7324 19.2405 96.7069 19.2761C96.6967 19.2914 96.6815 19.3068 96.6713 19.3271C96.6407 19.3679 96.6967 19.2965 96.6611 19.3373C96.605 19.4035 96.549 19.4748 96.493 19.5411C96.386 19.6634 96.3656 19.8621 96.493 19.9792C96.6101 20.0862 96.819 20.1117 96.9311 19.9792Z" fill="#13091C"/>
<path d="M97.9246 20.0201C97.7718 19.9997 97.6292 20.0914 97.5833 20.2442C97.568 20.2952 97.5527 20.3513 97.5374 20.4022C97.5374 20.3971 97.5324 20.392 97.5273 20.3818C97.4865 20.2952 97.3795 20.2442 97.2776 20.234C97.2216 20.1525 97.1248 20.1016 97.0229 20.1016C97.0229 20.0863 97.0127 20.0659 97.0127 20.0506C96.9872 19.8927 96.7783 19.7857 96.6306 19.8367C96.4573 19.8927 96.386 20.0456 96.4165 20.2188C96.4879 20.6519 96.6611 21.0798 96.9209 21.4364C97.0025 21.5485 97.084 21.6556 97.1961 21.7371C97.3337 21.8339 97.5119 21.8543 97.6648 21.7931C97.9195 21.6861 98.0215 21.3906 98.0928 21.1461C98.1743 20.8862 98.2049 20.606 98.1947 20.3309C98.1896 20.178 98.0826 20.0456 97.9246 20.0252V20.0201Z" fill="#13091C"/>
<path d="M94.6486 27.2804C94.5926 27.1072 94.4397 27.0358 94.2665 27.0664C94.2461 27.0664 94.2257 27.0715 94.2054 27.0766C94.2003 27.0766 94.2002 27.0766 94.1901 27.0766C94.1595 27.0766 94.1239 27.0817 94.0933 27.0868C94.0169 27.0919 93.9455 27.097 93.8691 27.097C93.7926 27.097 93.7213 27.097 93.6449 27.0868C93.6042 27.0868 93.5684 27.0817 93.5277 27.0766C93.5175 27.0766 93.4615 27.0664 93.4564 27.0664C93.3087 27.0409 93.1608 27.0002 93.0182 26.9543C92.9825 26.9441 92.9469 26.9288 92.9112 26.9135C92.8755 26.8982 92.8704 26.8982 92.8959 26.9084C92.8806 26.9033 92.8654 26.8932 92.8501 26.8881C92.7787 26.8575 92.7074 26.8167 92.6361 26.7811C92.4934 26.7046 92.2896 26.7403 92.2132 26.8932C92.1368 27.0409 92.1724 27.2345 92.3253 27.3161C92.9723 27.6727 93.706 27.7899 94.4295 27.6676C94.5874 27.6422 94.6945 27.4333 94.6435 27.2855L94.6486 27.2804Z" fill="#13091C"/>
<path d="M88.8607 67.1384C90.8885 67.1282 92.8857 67.5052 94.7759 68.2541C94.7148 68.1013 94.6537 67.9484 94.5925 67.8007C93.9557 68.891 93.2984 69.9661 92.6921 71.0717C92.1317 72.0856 91.8311 73.1351 91.9279 74.3019C92.1266 76.7016 93.6041 78.7906 93.7009 81.2005C93.7162 81.5979 94.3378 81.5979 94.3225 81.2005C94.2308 78.867 92.8704 76.8647 92.5749 74.577C92.422 73.395 92.6819 72.3556 93.2627 71.3264C93.8639 70.2463 94.511 69.1865 95.1326 68.1166C95.2446 67.928 95.1326 67.7345 94.9491 67.6632C93.0131 66.8938 90.9496 66.5116 88.8709 66.5269C88.4735 66.5269 88.4735 67.1486 88.8709 67.1486L88.8607 67.1384Z" fill="#13091C"/>
<path d="M102.067 82.1482C104.349 80.6452 106.627 79.1472 108.909 77.6442C110.051 76.8953 111.192 76.1412 112.333 75.3922C112.746 75.1222 113.209 74.8471 113.439 74.3936C113.693 73.9045 113.581 73.3746 113.541 72.8498C113.464 71.734 114.218 70.8016 115.166 70.2921C116.226 69.7266 117.474 69.6145 118.646 69.4719C120.582 69.2375 122.523 69.0643 124.469 69.0133C126.996 68.9522 129.529 69.0898 132.046 69.2936C132.443 69.3241 132.443 68.7076 132.046 68.672C127.776 68.3306 123.542 68.2847 119.278 68.7739C117.204 69.0133 114.621 69.1458 113.373 71.1023C113.118 71.4997 112.955 71.9531 112.914 72.4219C112.863 72.9874 113.158 73.6803 112.827 74.1898C112.501 74.684 111.783 74.9999 111.304 75.3158C110.723 75.6979 110.142 76.08 109.561 76.4622C106.958 78.1741 104.354 79.8911 101.751 81.603C101.42 81.8221 101.73 82.3571 102.062 82.138L102.067 82.1482Z" fill="#13091C"/>
<path d="M93.4206 99.6494C93.9097 103.822 94.4803 107.985 95.1274 112.132C95.1885 112.524 95.7847 112.356 95.7235 111.969C95.0816 107.873 94.5211 103.766 94.0371 99.6494C93.9912 99.2571 93.3696 99.252 93.4155 99.6494H93.4206Z" fill="#13091C"/>
<path d="M82.6344 107.781C84.2546 108.724 85.4367 110.318 85.8749 112.142C85.9666 112.53 86.5678 112.367 86.471 111.979C85.9971 110.002 84.7031 108.27 82.9453 107.246C82.5988 107.047 82.288 107.582 82.6344 107.781Z" fill="#13091C"/>
<path d="M87.9588 111.541C87.2302 108.729 86.6341 105.881 86.1704 103.012C86.1093 102.62 85.5081 102.788 85.5743 103.175C86.0379 106.044 86.6341 108.892 87.3626 111.704C87.4645 112.091 88.0607 111.928 87.9588 111.541Z" fill="#13091C"/>
<path d="M97.7716 114.308C99.4275 110.094 101.629 106.105 104.298 102.452C104.533 102.131 103.998 101.82 103.763 102.141C101.058 105.84 98.8517 109.88 97.1704 114.145C97.0226 114.517 97.6239 114.675 97.7665 114.308H97.7716Z" fill="#13091C"/>
<path d="M103.845 115.153C105.409 114.078 107.045 113.11 108.736 112.244C109.093 112.061 108.777 111.531 108.425 111.709C106.734 112.57 105.103 113.543 103.534 114.618C103.208 114.843 103.519 115.378 103.845 115.153Z" fill="#13091C"/>
<path d="M107.355 66.8072C109.118 65.8901 111.095 65.452 113.082 65.5233C113.48 65.5386 113.48 64.917 113.082 64.9017C110.988 64.8253 108.904 65.3042 107.045 66.2722C106.693 66.4556 107.004 66.9906 107.355 66.8072Z" fill="#13091C"/>
<path d="M99.6517 64.1579C100.1 64.2394 100.482 64.4075 100.834 64.6775C100.987 64.7947 101.165 64.973 101.302 65.1361C101.333 65.1717 101.343 65.182 101.379 65.238C101.41 65.2839 101.44 65.3246 101.471 65.3705C101.532 65.4724 101.588 65.5743 101.639 65.6813C101.71 65.8341 101.929 65.8698 102.062 65.7933C102.214 65.7016 102.245 65.5233 102.174 65.3705C101.736 64.4432 100.829 63.7401 99.8148 63.5566C99.6518 63.5261 99.4785 63.6025 99.4327 63.7707C99.3919 63.9235 99.4836 64.1222 99.6466 64.1528L99.6517 64.1579Z" fill="#13091C"/>
<path d="M115.039 34.9687C115.028 34.2503 115.018 33.5319 115.003 32.8135C114.988 32.1206 115.013 31.4073 114.952 30.7144C114.901 30.1794 114.595 29.9094 114.076 29.8279C113.525 29.7413 111.92 29.3235 111.574 29.9553C111.238 30.5718 111.426 31.6978 111.406 32.3805C111.335 34.5968 111.253 36.808 111.253 39.0243C111.253 39.7631 111.253 40.5018 111.253 41.2457C111.253 41.6023 111.253 41.959 111.258 42.3157C111.258 42.6214 111.228 42.9576 111.324 43.2481C111.508 43.783 112.129 43.8594 112.608 43.941C113.301 44.0531 114.004 44.0683 114.702 43.9868C114.87 43.9664 115.008 43.8594 115.013 43.676C115.059 40.777 115.069 37.8729 115.034 34.9738L115.039 34.9687Z" fill="#FFDBBB"/>
<path d="M75.2212 152.724C75.0531 147.389 74.4723 142.08 73.7895 136.797C73.1068 131.549 72.4445 126.296 71.5274 121.089C70.6358 116.045 69.4945 110.986 67.6195 106.207C66.1063 102.36 63.7627 98.4776 59.5746 97.2191C57.1086 96.4803 54.4032 96.4345 51.8506 96.5364C49.135 96.6485 46.4499 97.0306 43.7751 97.4637C43.2656 97.5452 42.7662 97.6318 42.2567 97.7134C42.1803 97.6828 42.0886 97.6777 41.9969 97.7337C41.9714 97.7439 41.9562 97.7592 41.9307 97.7694C41.8695 97.7796 41.8134 97.7898 41.7523 97.7999C41.6198 97.8203 41.5587 97.9069 41.5435 97.9987C39.7449 99.0584 38.1909 100.46 36.7287 101.932C35.4702 103.201 34.2525 104.505 33.0552 105.835C32.6884 106.242 32.3266 106.65 31.9598 107.068C31.221 107.903 30.5026 108.754 29.7842 109.61C27.466 112.387 25.2548 115.24 23.1047 118.139C20.3126 121.925 17.6225 125.797 14.9629 129.679C12.2575 133.638 9.52151 137.582 6.96383 141.637C5.6799 143.67 4.44688 145.734 3.30051 147.843C2.72478 148.908 2.16942 149.988 1.63954 151.083C1.14024 152.118 0.630746 153.167 0.309762 154.273C-0.00103128 155.317 -0.123336 156.448 0.156888 157.518C0.411637 158.496 0.97214 159.358 1.61411 160.127C3.02542 161.818 4.82391 163.174 6.67339 164.345C8.61457 165.573 10.6577 166.633 12.6957 167.693C14.7795 168.778 16.8685 169.818 18.988 170.821C23.2525 172.849 27.5781 174.704 31.9802 176.41C40.769 179.819 49.8075 182.575 59.009 184.649C60.0484 184.883 61.0928 185.108 62.1322 185.327C62.2647 185.357 62.3921 185.393 62.5143 185.444C64.1193 186.035 66.0452 185.581 67.4106 184.557C69.2856 183.151 70.2282 180.874 70.9619 178.713C72.7451 173.425 73.7488 167.912 74.4315 162.379C74.8136 159.25 75.0939 156.117 75.3537 152.973C75.3639 152.851 75.3079 152.77 75.2314 152.724H75.2212ZM65.1841 129.175C64.8784 133.633 64.3791 138.076 63.6709 142.493C63.3805 144.292 61.745 145.249 60.0433 144.623C58.7797 144.159 57.5162 143.685 56.2578 143.211C50.0979 140.878 43.9941 138.412 38.0432 135.584C35.7199 134.484 33.4221 133.322 31.1599 132.104C29.932 131.447 29.4174 129.954 29.9575 128.681C30.0033 128.574 30.044 128.472 30.0899 128.365C30.7675 126.785 31.4655 125.206 32.2094 123.652C33.5494 120.839 35.0218 118.093 36.7236 115.495C37.1872 114.787 37.6662 114.089 38.1655 113.406C40.3818 110.385 42.9649 107.633 45.9965 105.397C49.5171 102.803 53.593 100.893 57.9391 100.266C57.99 100.261 58.0359 100.256 58.0868 100.24C59.0294 100.108 59.972 100.495 60.5579 101.239C60.7056 101.422 60.8381 101.616 60.9604 101.805C61.5718 102.742 62.1068 103.746 62.5959 104.749C63.5792 106.757 64.3537 108.861 64.9753 111.006C65.1383 111.572 65.286 112.132 65.4236 112.703C65.4185 112.733 65.4032 112.769 65.4134 112.81C65.6376 118.267 65.5611 123.739 65.1841 129.185V129.175Z" fill="#66372E"/>
<path d="M38.1757 111.19C38.0687 110.39 37.7681 109.676 37.2077 109.096C36.6829 108.545 36.0205 108.153 35.3938 107.725C34.5633 107.154 33.7838 106.523 33.045 105.835C32.6782 106.242 32.3165 106.65 31.9496 107.068C31.2108 107.903 30.4924 108.754 29.774 109.61C30.0339 114.369 30.844 119.087 32.2095 123.647C33.5494 120.834 35.0219 118.088 36.7236 115.49C37.1872 114.782 37.6662 114.083 38.1655 113.401C38.2521 112.662 38.2725 111.928 38.1706 111.19H38.1757Z" fill="#13091C"/>
<path d="M63.3245 144.062C63.243 147.181 63.0953 150.339 62.0355 153.31C61.903 153.687 62.4992 153.85 62.6316 153.473C63.7067 150.457 63.8595 147.232 63.941 144.062C63.9512 143.665 63.3296 143.665 63.3194 144.062H63.3245Z" fill="#13091C"/>
<path d="M29.6365 131.187C28.2813 130.561 26.8699 129.924 25.3567 129.837C23.9811 129.761 22.7277 130.255 21.6883 131.142C20.6234 132.054 19.8185 133.241 18.9829 134.362C17.9741 135.712 16.9704 137.062 15.9615 138.412C14.0407 140.99 12.0792 143.543 10.3265 146.238C9.46039 147.568 8.62987 148.933 7.93186 150.36C7.29499 151.664 6.79572 153.055 6.76515 154.517C6.70401 157.33 8.27832 159.928 10.2959 161.783C12.4919 163.8 15.2228 165.171 17.8416 166.547C23.3952 169.466 29.127 172.049 34.9913 174.281C40.8506 176.512 46.8473 178.392 52.9358 179.9C53.695 180.089 54.4592 180.272 55.2235 180.451C55.6107 180.542 55.7788 179.946 55.3865 179.855C49.4865 178.484 43.663 176.772 37.9617 174.724C32.2604 172.676 26.6814 170.302 21.2603 167.606C18.6211 166.292 15.9514 164.967 13.4549 163.393C11.0653 161.885 8.81332 159.908 7.83508 157.172C7.36634 155.852 7.24915 154.456 7.57013 153.091C7.9115 151.639 8.6248 150.304 9.35848 149.015C10.8717 146.36 12.6651 143.879 14.4841 141.428C16.3896 138.86 18.3001 136.298 20.2209 133.735C20.9954 132.706 21.831 131.631 22.9722 130.989C24.2867 130.245 25.7796 130.382 27.1654 130.836C27.9042 131.075 28.6124 131.396 29.3155 131.722C29.6773 131.891 29.9881 131.356 29.6263 131.187H29.6365Z" fill="#13091C"/>
<path d="M22.0704 131.717C23.5174 129.277 24.9644 126.836 26.4063 124.396C27.7513 122.124 29.0251 119.785 30.5128 117.604C31.3077 116.443 32.2044 115.357 33.2845 114.445C33.5902 114.191 33.152 113.752 32.8463 114.007C30.9561 115.602 29.6416 117.722 28.3933 119.826C26.9412 122.276 25.4892 124.727 24.0371 127.178C23.2016 128.584 22.3711 129.99 21.5355 131.402C21.3317 131.743 21.8666 132.059 22.0704 131.712V131.717Z" fill="#13091C"/>
<path d="M60.4102 79.2236C60.0485 76.5386 57.822 74.949 55.3254 74.3987C52.4723 73.772 49.3796 74.1746 46.5926 74.9184C43.4643 75.754 40.5143 77.15 37.7376 78.7906C34.9251 80.4516 32.2554 82.352 29.606 84.2575C28.3373 85.1695 27.084 86.1274 25.9988 87.2584C25.0817 88.2214 24.2104 89.4289 24.4244 90.83C24.5161 91.4159 24.7912 91.9662 25.2651 92.333C25.3415 92.3942 25.4281 92.4094 25.5096 92.3993C26.0752 93.4437 27.2063 93.9889 28.2966 94.3608C29.7334 94.8499 31.2262 95.2117 32.719 95.4868C35.6894 96.0371 38.7413 96.195 41.7372 95.7925C44.7177 95.39 47.5811 94.4118 50.1388 92.8323C52.727 91.2325 55.0147 89.1385 57.0832 86.9222C59.0295 84.8383 60.8127 82.2246 60.4102 79.2236Z" fill="#13091C"/>
<path d="M65.4645 111.933C65.388 112.509 65.2708 113.085 65.118 113.65C64.8479 114.695 64.4811 115.724 64.1703 116.748L62.6724 121.711C62.2597 123.071 61.8776 124.472 61.1847 125.731C59.7224 128.39 56.7113 129.516 53.8836 130.087C52.3653 130.398 50.8164 130.54 49.2675 130.607C47.8052 130.668 46.3226 130.703 44.8654 130.596C43.5102 130.489 42.1447 130.23 40.9321 129.603C39.745 128.981 38.8126 128.018 38.1248 126.872C37.4421 125.726 36.9937 124.457 36.576 123.199C36.0563 121.645 35.5416 120.091 35.0169 118.542C33.9164 115.327 32.7751 112.122 31.5931 108.948C30.2989 105.458 28.9487 101.998 27.5476 98.5541C26.8292 96.7811 26.0905 95.0131 25.3466 93.2451C24.6639 91.6402 23.7111 90.2696 26.1414 90.5957C33.2591 91.523 40.5857 90.4225 47.1684 87.5744C51.9424 85.5059 56.3139 82.5304 59.9313 78.7754C60.0842 78.6123 60.3899 78.6888 60.4459 78.9181C60.9248 80.8185 61.037 82.7851 61.037 84.7365C61.0421 88.3335 60.9197 91.9459 60.8127 95.5481C60.7567 97.3466 60.6956 99.14 60.6344 100.939C60.7261 101.061 60.8179 101.193 60.9096 101.321C62.2954 103.247 63.5487 105.29 64.5575 107.435C65.225 108.861 65.6785 110.354 65.4798 111.944L65.4645 111.933Z" fill="#9C668D"/>
<path d="M64.5422 107.424C63.5334 105.279 62.28 103.236 60.8942 101.31C60.721 103.241 60.6649 105.188 60.7108 107.129C60.7159 107.19 60.7363 107.241 60.7668 107.282C60.7719 107.368 60.8177 107.45 60.9146 107.506C62.0151 108.107 62.9526 108.978 63.6149 110.053C63.9359 110.578 64.1957 111.144 64.369 111.735C64.5473 112.346 64.6085 112.993 64.9702 113.538C65.0059 113.594 65.0568 113.63 65.1179 113.655C65.2708 113.09 65.388 112.514 65.4644 111.938C65.6631 110.349 65.2097 108.851 64.5422 107.429V107.424Z" fill="#13091C"/>
<path d="M61.791 85.9286C61.3376 86.6674 60.6752 87.2839 60.0944 87.9157C59.4881 88.5729 58.8716 89.2251 58.2551 89.867C55.7025 92.5062 53.0328 95.0232 50.2407 97.4076C48.8854 98.5642 47.5047 99.7003 46.0883 100.796C45.7265 101.066 45.375 101.346 45.0184 101.611C44.6821 101.871 44.3356 102.177 43.9229 102.299C43.1689 102.518 42.6339 101.978 42.2671 101.387C40.4074 98.4011 39.5158 94.7786 39.2509 91.2937C39.205 90.6721 39.261 89.8925 38.7159 89.5104C38.3032 89.2251 37.6765 89.327 37.2027 89.2149C36.1786 88.9754 35.1647 88.6952 34.161 88.3793C34.0846 88.3589 34.0132 88.3283 33.9826 88.2621C33.952 88.2061 33.9622 88.1449 33.9775 88.0838C34.1711 87.2431 34.3545 86.3923 34.5481 85.5516C34.6246 85.2357 34.8997 83.1773 35.1443 83.0856C32.2962 84.1708 29.4226 85.1746 26.5134 86.1018C26.3045 86.1681 26.0498 85.949 26.1364 85.7248C27.4764 82.3112 28.8163 78.9027 30.1563 75.489C31.1039 73.0689 32.0414 70.4144 34.1049 68.6974C35.185 67.8007 36.4588 67.2148 37.7478 66.7002C39.1336 66.1448 40.5501 65.6455 41.9767 65.2328C43.2046 64.8813 44.4528 64.5908 45.7164 64.3768C47.3213 64.1119 48.9517 63.9744 50.577 64.0151C52.0291 64.061 53.4709 64.2444 54.8771 64.6062C55.4987 64.7692 56.1509 64.9424 56.747 65.2175C57.1699 65.2634 57.5622 65.3907 57.9036 65.7015C57.9392 65.7372 57.98 65.778 58.0105 65.8137C58.5048 66.3232 58.7646 67.0364 59.0397 67.6682C59.3862 68.4783 59.697 69.3088 59.9619 70.1545C61.0624 73.5886 61.5414 77.1805 61.9031 80.7521C61.9897 81.6386 62.0712 82.5252 62.1528 83.4117C62.2292 84.2931 62.27 85.144 61.7961 85.9286H61.791Z" fill="#731C26"/>
<path d="M58.0104 65.8187C57.9799 65.7831 57.9442 65.7423 57.9035 65.7066C57.8933 65.6964 57.878 65.6812 57.8678 65.6761C57.5315 65.3907 57.1545 65.2685 56.7469 65.2226C56.1508 64.9424 55.4935 64.7691 54.877 64.6112C51.066 63.6176 47.6269 63.8011 44.5138 65.3296C43.1586 65.997 41.8645 66.9193 40.6213 68.1115C39.9997 68.7127 39.4138 69.3444 38.8584 70.0068C38.3387 70.6335 37.7732 71.2755 37.4573 72.055C37.1873 72.7377 37.1516 73.5478 37.6917 74.093C38.2368 74.6432 39.0979 74.6738 39.7959 74.735C40.8404 74.8318 41.8899 74.8419 42.9344 74.7655C45.4513 74.5872 47.9478 73.935 50.2915 72.9364C51.8914 72.2588 53.4708 71.4537 54.8872 70.4093C55.5699 69.915 56.2119 69.3546 56.7774 68.7127C57.1443 68.3 57.5417 67.8261 57.7863 67.2962C57.8984 67.067 57.9799 66.8326 58.0206 66.5779C58.0716 66.2926 58.0563 66.0429 58.0002 65.8136L58.0104 65.8187Z" fill="#13091C"/>
<path d="M68.5877 40.8838C67.9916 40.5017 67.263 40.4202 66.5701 40.3896C65.7192 40.3539 64.8684 40.4253 64.0277 40.5883C62.3515 40.9093 60.7465 41.6328 59.3861 42.6773C58.0971 43.6759 57.0832 45.0362 55.6566 45.8565C54.7192 46.3966 53.7001 46.5086 52.6353 46.4679C51.4838 46.422 50.3324 46.3151 49.1809 46.2335C48.1161 46.1622 47.0512 46.0858 45.9864 46.0094C44.896 44.7611 43.658 43.6555 42.2823 42.7231C41.2582 42.0302 40.1526 41.3933 38.9808 40.9806C37.6255 40.5017 36.311 40.5883 34.9099 40.7819C33.4578 40.9857 33.2234 41.5411 31.8325 42.0302C30.3244 41.6481 27.7412 40.2673 26.172 40.1043C25.7134 40.0584 25.4281 40.2469 24.9696 40.2265C24.5875 40.2011 23.9557 40.4813 23.6092 40.6749C22.9672 41.0366 22.9316 42.0251 23.273 42.555C23.7213 43.2326 24.4703 43.7421 25.1326 44.1904C25.8612 44.6796 26.6458 45.0872 27.4304 45.4795C29.0354 46.2641 30.6454 47.0233 32.2044 47.8894C33.7737 48.7606 35.3022 49.7032 36.7848 50.7018C40.0252 52.8876 43.0364 55.3892 45.7979 58.1456C45.3648 60.5351 44.9368 62.9349 44.5241 65.3295C44.142 67.5153 43.7751 69.701 43.4134 71.8918C43.2503 72.8497 43.0975 73.8127 42.9498 74.7705C45.4667 74.5922 47.9632 73.9401 50.3069 72.9414C51.9067 72.2638 53.4862 71.4588 54.9026 70.4143C55.5853 69.9201 56.2273 69.3596 56.7928 68.7177C57.1596 68.305 57.557 67.8311 57.8016 67.3013C57.8322 66.7561 57.8577 66.2161 57.878 65.676C57.9137 64.9372 57.9443 64.2086 57.9749 63.4698C58.0564 61.4573 58.1226 59.4346 58.1837 57.4221C58.5302 57.1419 58.8716 56.8566 59.1926 56.5611C60.4358 55.4147 61.3986 54.0747 62.1272 52.5615C62.8252 51.0942 63.3602 49.5504 64.1296 48.1136C64.5066 47.4156 64.9397 46.7328 65.4747 46.1418C66.1013 45.454 66.8554 44.9292 67.5942 44.3637C68.2209 43.8847 68.9953 43.3243 69.2348 42.5295C69.4437 41.8722 69.1481 41.2456 68.5928 40.8838H68.5877Z" fill="#FFA078"/>
<path d="M70.2029 39.6101C70.0092 39.0701 69.6067 38.6727 69.1788 38.3058C68.9546 38.1122 68.7253 37.9339 68.4654 37.7912C68.3228 37.7148 68.1699 37.6638 68.012 37.6282C67.9967 37.6282 67.9865 37.6282 67.9712 37.6282H25.8205C25.6575 37.6282 25.5097 37.6486 25.3619 37.6639C25.1989 37.7148 25.0358 37.781 24.883 37.8778C24.5009 38.1224 24.1952 38.4943 23.9404 38.8663C23.6959 39.228 23.4513 39.6305 23.3035 40.0483C23.1915 40.3642 23.1252 40.7412 23.2475 41.0622C24.0933 40.0839 26.3453 40.354 27.4101 40.7158C28.1132 40.9552 31.002 42.071 31.2466 42.2341H67.9712C68.333 42.2341 68.659 42.1933 68.9545 42.1271C69.6577 41.9589 70.2385 41.4036 70.32 40.6852C70.3608 40.3132 70.32 39.9311 70.208 39.605L70.2029 39.6101Z" fill="#731C26"/>
<path d="M69.1125 39.1007C69.1125 39.1007 69.1634 39.065 69.1481 39.0752C69.1278 39.0905 69.1685 39.0599 69.1685 39.0599C69.1889 39.0396 69.2093 39.0192 69.2297 38.9988C69.2348 38.9937 69.2348 38.9937 69.2399 38.9886C69.2399 38.9886 69.2399 38.9886 69.2399 38.9733C69.2552 38.9427 69.2654 38.9122 69.2501 38.958C69.2501 38.9529 69.2602 38.9275 69.2602 38.9122C69.2602 38.8969 69.2602 38.8816 69.2602 38.8765C69.2602 38.8765 69.2602 38.8714 69.2602 38.8663C69.2551 38.846 69.2501 38.8205 69.245 38.8001C69.245 38.7899 69.245 38.7848 69.245 38.7797C69.245 38.7797 69.245 38.7797 69.2399 38.7695C69.2297 38.7491 69.2144 38.7236 69.2042 38.7033C69.1889 38.6829 69.1736 38.6574 69.1634 38.637C69.1584 38.6268 69.1481 38.6167 69.1379 38.6065C69.0564 38.5148 68.9749 38.4282 68.8832 38.3466C68.8577 38.3263 68.8323 38.3008 68.8017 38.2804C68.7915 38.2753 68.7864 38.2651 68.7762 38.26C68.7762 38.26 68.7762 38.26 68.7711 38.26C68.7253 38.2243 68.6794 38.1938 68.6335 38.1632C68.5469 38.1072 68.4553 38.0511 68.3636 38.0002C68.119 37.8677 67.8693 37.7556 67.6197 37.6384H25.8205C24.3837 38.3925 24.1748 39.3605 26.6051 39.3605H68.2616C68.5571 39.3147 68.8679 39.2637 69.1125 39.1058V39.1007Z" fill="#13091C"/>
<path d="M43.0515 46.9826C42.5522 45.7853 41.2173 45.0058 40.1525 44.3689C39.5105 43.9868 38.838 43.6404 38.1553 43.3347C37.8547 43.2022 37.5439 43.0748 37.2382 42.9526C37.1872 42.9322 37.1363 42.9168 37.0853 42.9016C37.0446 42.3411 36.9885 41.7858 36.8764 41.2356C36.6777 40.2268 36.2956 38.8715 35.4447 38.2091C35.0881 37.934 34.5786 37.8066 34.1557 38.0155C33.6972 38.2448 33.58 38.7339 33.5189 39.2026C33.3303 40.5986 33.1571 42.0151 33.1061 43.4264C33.0858 43.9817 33.1571 44.5218 33.5087 44.9702C33.901 45.4695 34.4665 45.8567 34.9505 46.2643C35.9593 47.1101 36.9936 47.9609 38.1043 48.6691C39.159 49.3417 40.2952 49.5913 41.5129 49.1989C42.5217 48.8729 43.5509 48.1698 43.0566 46.9724L43.0515 46.9826Z" fill="#FFA078"/>
<path d="M32.6426 42.4583C32.7139 43.1461 32.7343 43.8696 32.8872 44.5472C33.04 45.2351 33.5342 45.7088 33.9979 46.2082C35.0627 47.3545 36.1632 48.4653 37.2994 49.5403C37.5898 49.8154 38.028 49.3773 37.7376 49.1021C36.6982 48.1188 35.6843 47.1049 34.7061 46.0604C34.2781 45.6019 33.682 45.1178 33.5088 44.4911C33.3304 43.8441 33.3304 43.1257 33.2591 42.4583C33.2184 42.0659 32.5967 42.0608 32.6375 42.4583H32.6426Z" fill="#13091C"/>
<path d="M31.16 42.6061C31.6542 43.0035 32.1178 43.4366 32.5458 43.9053C32.6579 44.0276 32.8719 44.0225 32.984 43.9053C33.1012 43.7779 33.1012 43.5945 32.984 43.4671C32.556 42.9984 32.0924 42.5653 31.5982 42.1679C31.5319 42.117 31.4657 42.0762 31.379 42.0762C31.3026 42.0762 31.2109 42.1119 31.16 42.1679C31.0581 42.28 31.0224 42.4991 31.16 42.6061Z" fill="#13091C"/>
<path d="M37.172 42.5194C36.9376 43.9919 38.3286 44.8886 39.3883 45.607C40.8353 46.5852 42.2568 47.6857 43.8515 48.4143C46.613 49.6728 49.9757 49.7849 52.3245 51.8687C53.5625 52.9744 54.393 54.462 54.6987 56.0924C54.7701 56.4848 55.3713 56.3166 55.2949 55.9294C55.0401 54.5691 54.4287 53.3004 53.5422 52.2407C52.62 51.1351 51.4125 50.3708 50.0878 49.8308C48.6816 49.2601 47.1989 48.9391 45.757 48.4806C44.1572 47.966 42.7867 47.1609 41.4009 46.2235C40.5959 45.6783 39.7654 45.1535 38.9756 44.5778C38.3897 44.1498 37.6357 43.4977 37.763 42.6876C37.8242 42.2953 37.228 42.1271 37.1669 42.5245L37.172 42.5194Z" fill="#13091C"/>
<path d="M42.267 47.0488C42.9854 46.5291 43.8465 46.2489 44.733 46.2591C45.1304 46.2591 45.1304 45.6425 44.733 45.6375C43.7446 45.6273 42.7561 45.933 41.9511 46.5138C41.8136 46.6106 41.7473 46.7838 41.8391 46.9367C41.9155 47.0692 42.1244 47.1456 42.2619 47.0488H42.267Z" fill="#13091C"/>
<path d="M43.1076 45.872C42.2924 45.23 41.4772 44.5931 40.662 43.9511C40.2646 43.6403 39.8723 43.3296 39.4749 43.0188C39.0979 42.7233 38.726 42.4022 38.2776 42.2086C38.1248 42.1424 37.9465 42.1628 37.8547 42.3207C37.7783 42.4481 37.814 42.6774 37.9668 42.7436C38.3948 42.9271 38.7514 43.2277 39.1132 43.513C39.5106 43.8238 39.9029 44.1345 40.3003 44.4453C41.09 45.0669 41.8849 45.6885 42.6746 46.3101C42.9854 46.5547 43.4235 46.1165 43.1127 45.872H43.1076Z" fill="#13091C"/>
<path d="M46.3176 58.9659C47.1022 59.2716 47.953 59.4041 48.7988 59.3583C48.9669 59.3481 49.1096 59.2207 49.1096 59.0475C49.1096 58.8895 48.9669 58.7265 48.7988 58.7367C48.004 58.7825 47.2244 58.6551 46.4857 58.3698C46.3277 58.3087 46.1443 58.4361 46.1035 58.5838C46.0577 58.757 46.1647 58.9048 46.3176 58.9659Z" fill="#13091C"/>
<path d="M35.0524 83.4626C35.781 80.7419 36.5707 78.0416 37.8139 75.5043C37.9871 75.1476 37.4522 74.8318 37.2789 75.1935C36.0154 77.7817 35.2002 80.528 34.4563 83.2996C34.3544 83.6868 34.9505 83.8499 35.0524 83.4626Z" fill="#13091C"/>
<path d="M27.2063 84.991C29.2188 81.8372 31.8172 79.0452 34.8487 76.8493C35.6028 76.3041 36.5046 75.6214 37.4268 75.4074C37.9719 75.28 38.2471 75.8456 38.4611 76.2481C38.6751 76.6557 38.833 77.0837 38.9451 77.532C39.4087 79.3255 39.2457 81.2768 39.1234 83.111C38.9757 85.3222 38.726 87.5284 38.6343 89.7447C38.619 90.1421 39.2355 90.1421 39.2559 89.7447C39.3476 87.5946 39.5871 85.4598 39.7348 83.3148C39.8673 81.3584 40.0405 79.2847 39.5463 77.3639C39.3425 76.564 38.9858 75.5246 38.3082 75.0049C37.5185 74.3935 36.4129 75.1221 35.6945 75.5501C33.9571 76.5793 32.3777 77.9549 30.9511 79.3713C29.336 80.9762 27.9043 82.7594 26.6815 84.6803C26.4675 85.0165 27.0025 85.3273 27.2165 84.991H27.2063Z" fill="#13091C"/>
<path d="M60.4663 87.3348C60.7058 92.338 60.7974 97.3464 60.7312 102.355C60.7006 104.749 60.5885 107.134 60.2879 109.513C59.9771 111.964 59.5084 114.389 58.9632 116.794C58.3518 119.479 57.6436 122.139 56.9252 124.793C56.8233 125.18 57.4195 125.343 57.5214 124.956C58.8104 120.182 60.0842 115.388 60.7771 110.481C61.4649 105.61 61.4139 100.673 61.3426 95.7618C61.3019 92.9494 61.2152 90.1421 61.0828 87.3297C61.0624 86.9323 60.4459 86.9323 60.4612 87.3297L60.4663 87.3348Z" fill="#13091C"/>
<path d="M58.2143 128.961C60.2217 128.095 61.3528 126.118 62.0915 124.161C62.973 121.828 63.6863 119.413 64.3486 117.013C64.7257 115.643 65.0721 114.267 65.3727 112.876C65.4593 112.489 64.8581 112.321 64.7766 112.713C64.1244 115.714 63.2685 118.669 62.3157 121.588C61.4801 124.146 60.6089 127.259 57.8984 128.426C57.5315 128.584 57.8474 129.119 58.2092 128.961H58.2143Z" fill="#13091C"/>
<path d="M101.16 381.3C101.894 380.566 103.386 379.996 102.999 378.717C102.311 375.517 102.306 363.651 102.327 358.806C102.327 357.618 102.337 356.436 102.342 355.249C102.342 354.455 102.541 353.273 101.72 352.794C101.338 352.569 100.854 352.529 100.426 352.452C99.7843 352.335 99.1423 352.223 98.4953 352.126C97.3744 351.953 96.2535 351.805 95.1275 351.688C92.6921 351.433 90.2109 351.25 87.7602 351.382C85.5999 351.499 83.4346 351.933 81.5443 353.018C81.4832 352.967 81.529 353.008 81.4679 352.957C81.6156 352.391 80.8055 352.325 80.8615 352.773C81.8245 360.426 82.5888 368.104 83.1594 375.797C83.2052 376.388 83.2358 376.984 83.2766 377.576C83.8064 380.057 87.215 380.031 88.7996 381.616C91.8973 377.28 97.4356 382.538 101.155 381.3H101.16Z" fill="#FFA078"/>
<path d="M112.201 390.573C112.028 390.007 111.824 389.457 111.605 388.907C111.248 388.01 110.958 387.057 110.545 386.176C110.265 385.575 109.857 385.091 109.22 384.866C108.532 384.627 107.743 384.642 107.024 384.606C106.734 384.591 106.438 384.586 106.148 384.576C106.097 384.576 105.873 383.924 105.837 383.847C105.725 383.598 105.613 383.343 105.496 383.093C105.261 382.594 105.022 382.105 104.762 381.616C104.253 380.643 103.692 379.695 103.096 378.773C102.857 378.406 102.592 378.054 102.368 377.682C102.281 377.54 102.194 377.397 102.072 377.29C101.72 376.979 101.211 377.193 100.814 377.295C100.513 377.372 100.223 377.474 99.9423 377.601C99.657 377.728 99.3921 377.917 99.0965 378.014C98.4087 378.233 97.6496 378.095 96.9567 377.963C96.1568 377.815 95.3823 377.58 94.5926 377.387C93.1151 377.025 91.4694 376.821 90.2619 377.942C90.1753 378.019 89.5791 378.589 89.6301 378.691C88.7741 377.03 87.2405 376.001 85.0038 376.577C84.8051 376.628 84.6268 376.735 84.479 376.872C81.1061 379.955 77.1066 382.961 73.3771 385.855C72.5262 386.227 71.2219 386.797 70.3711 387.174C69.9635 387.241 69.5609 387.307 69.1533 387.383C68.2872 387.541 67.4211 387.714 66.56 387.903C65.8314 388.066 65.0978 388.214 64.3845 388.433C63.0496 388.84 61.8624 389.676 61.139 390.868C60.3696 392.132 60.0843 393.548 59.9314 394.985C58.9175 395.52 58.3062 396.503 57.919 397.558C57.7101 398.129 57.5674 398.72 57.4502 399.311C57.3177 399.988 57.068 400.829 57.5419 401.44C58.1533 402.23 59.1621 402.923 60.013 403.397C61.8319 404.411 68.9088 406.851 74.7476 406.979C77.0556 407.03 85.8241 405.975 88.2137 404.604C89.411 403.916 90.5166 403.071 91.4643 402.067C92.3916 401.084 92.9316 399.611 94.0576 398.852C94.1952 398.76 94.3429 398.679 94.4958 398.613C95.6523 398.134 96.7732 398.913 97.7413 399.463C98.2559 399.754 98.796 400.039 99.3768 400.172C101.247 400.595 103.213 399.662 104.879 398.913C107.269 397.838 109.317 396.498 111.36 394.868C111.931 394.409 112.695 393.844 112.833 393.085C112.985 392.229 112.45 391.347 112.206 390.557L112.201 390.573Z" fill="#66372E"/>
<path d="M102.067 185.138C101.364 180.583 99.7792 176.222 99.0863 171.667C98.3475 166.812 99.0761 161.976 99.8352 157.177C101.333 147.716 102.067 138.168 101.873 128.584C101.858 127.774 101.827 126.969 101.797 126.159C101.863 126.093 101.899 125.996 101.863 125.879C101.843 125.807 101.807 125.741 101.782 125.675C101.771 125.451 101.771 125.226 101.761 125.007C101.746 124.686 101.348 124.63 101.201 124.824C100.737 124.381 100.121 124.095 99.4837 123.907C98.108 123.499 96.6407 123.362 95.2345 123.071C92.096 122.424 88.9982 121.558 85.9769 120.488C85.1057 120.182 84.2446 119.856 83.3836 119.515C82.976 119.352 82.5735 119.189 82.171 119.021C82.0079 118.954 81.1621 118.547 81.4322 118.297C81.7277 118.027 81.2895 117.589 80.994 117.859C80.5507 118.267 80.8208 118.832 81.2029 119.168C81.2284 119.189 81.2641 119.204 81.2895 119.23C81.2233 119.214 81.1571 119.219 81.0857 119.26C77.9676 121.054 74.8596 123.041 72.8318 126.093C70.8754 129.037 70.0296 132.538 69.2501 135.941C68.3941 139.66 67.4159 143.324 66.0453 146.895C66.0351 146.926 66.0198 146.951 66.0096 146.982C65.4849 147.425 64.955 147.868 64.4302 148.307C63.9258 148.729 63.4265 149.152 62.9221 149.575C62.5043 149.927 62.0305 150.263 61.7197 150.722C61.4344 151.139 61.3631 151.644 61.3478 152.143C61.3325 152.775 61.3325 153.407 61.307 154.038C61.2611 155.113 61.1644 156.183 61.0319 157.248C61.0064 157.289 60.986 157.33 60.9606 157.371C59.9823 159.011 58.8665 160.575 57.9138 162.231C56.9559 163.902 56.3241 165.655 56.1611 167.586C56.049 168.906 55.7636 171.596 55.7687 171.845C55.9165 181.704 56.0082 191.568 56.2528 201.427C56.4923 211.021 57.1393 220.569 58.3621 230.086C59.5645 239.42 61.2051 248.698 63.0495 257.925C63.5896 260.631 64.15 263.331 64.7207 266.031C69.301 274.173 75.4405 284.281 81.8907 282.748C89.3447 280.679 97.4712 279.584 98.4189 262.179C98.5462 255.607 98.9538 249.045 99.4939 242.497C100.289 232.868 101.318 223.254 102.006 213.614C102.342 208.845 102.597 204.071 102.693 199.292C102.79 194.569 102.785 189.815 102.062 185.138H102.067Z" fill="#C4653B"/>
<path d="M108.685 325.836C108.247 317.001 107.559 308.182 106.78 299.373C106.393 295.011 105.985 290.655 105.572 286.299C105.18 282.162 104.635 278.101 103.198 274.178C101.878 270.576 100.105 267.162 98.3782 263.743C98.3833 263.219 98.4037 262.699 98.4139 262.174C92.2642 255.581 83.4295 251.561 75.9756 253.63C69.5253 255.164 66.2747 260.055 64.7106 266.026C65.4493 269.531 66.2085 273.032 66.9778 276.532C67.3956 280.007 67.8083 283.487 68.2006 286.961C69.184 295.694 70.0908 304.432 70.9213 313.18C71.7467 321.928 72.5008 330.681 73.1682 339.445C73.5045 343.847 73.8204 348.249 74.121 352.651C74.2687 354.852 74.4114 357.053 74.554 359.259C74.6559 360.854 74.7426 362.515 75.4151 363.992C76.0979 365.485 77.3817 366.387 78.9408 366.815C80.6731 367.289 82.5532 367.411 84.3415 367.498C88.0965 367.676 91.877 367.324 95.5352 366.479C99.2291 365.628 102.811 364.262 106.128 362.423C106.836 362.031 107.646 361.643 108.176 361.012C108.695 360.39 108.803 359.575 108.848 358.79C108.981 356.599 109.032 354.404 109.088 352.213C109.302 343.424 109.118 334.625 108.68 325.841L108.685 325.836Z" fill="#C4653B"/>
<path d="M62.5554 155.567C64.354 155.429 66.1831 155.638 67.9612 155.903C69.9941 156.209 72.0168 156.637 73.9834 157.233C74.8853 157.508 75.782 157.814 76.6329 158.221C76.9895 158.395 77.3054 157.86 76.9437 157.686C75.2878 156.887 73.4739 156.397 71.6907 155.985C69.6425 155.511 67.5587 155.159 65.4647 154.991C64.4966 154.915 63.5235 154.874 62.5554 154.945C62.158 154.976 62.158 155.592 62.5554 155.567Z" fill="#13091C"/>
<path d="M92.6972 250.339C94.0627 254.206 95.6421 257.997 97.4152 261.695C97.5884 262.057 98.1234 261.741 97.9502 261.385C96.1975 257.737 94.6435 253.992 93.2934 250.176C93.1609 249.804 92.5648 249.962 92.6972 250.339Z" fill="#13091C"/>
<path d="M68.8324 279.579C71.7161 284.669 74.1668 289.993 76.1385 295.501C76.7041 297.075 77.2289 298.659 77.7129 300.259C77.8301 300.641 78.4262 300.478 78.309 300.096C76.5869 294.451 74.3859 288.954 71.7314 283.685C70.9774 282.192 70.1876 280.72 69.3623 279.268C69.1636 278.921 68.6286 279.232 68.8273 279.579H68.8324Z" fill="#13091C"/>
<path d="M60.3593 395.719C66.5039 398.73 73.6266 399.785 80.2807 397.94C81.9314 397.482 83.5313 396.855 85.0445 396.055C86.6036 395.235 88.0047 394.165 89.5536 393.334C92.3456 391.836 95.4841 391.205 98.5054 390.344C100.192 389.86 101.868 389.304 103.432 388.499C104.808 387.791 106.586 386.741 106.581 384.979C106.581 384.647 106.061 384.663 106.061 384.994C106.061 386.568 104.268 387.495 103.06 388.107C101.695 388.805 100.233 389.299 98.7653 389.732C95.8713 390.583 92.8857 391.184 90.1395 392.473C88.6008 393.192 87.2353 394.195 85.7782 395.062C84.3618 395.902 82.8537 396.585 81.2895 397.1C78.1408 398.144 74.7985 398.521 71.4918 398.287C67.7114 398.017 64.0073 396.936 60.6141 395.27C60.3135 395.123 60.0638 395.576 60.3644 395.724L60.3593 395.719Z" fill="#13091C"/>
<path d="M91.2654 392.061C90.9648 391.322 90.2311 391.021 89.4873 390.919C88.5192 390.787 87.5206 390.899 86.5577 391.037C85.6762 391.164 84.7999 391.352 83.9133 391.444C82.8128 391.561 81.6359 391.409 80.5711 391.123C79.1496 390.741 77.8453 389.987 77.0097 388.749C76.9842 388.866 76.9536 388.988 76.9281 389.106C80.2908 386.782 83.6637 384.439 86.6697 381.657C87.5359 380.857 88.3664 380.021 89.151 379.145C89.3752 378.895 88.9981 378.539 88.774 378.788C86.0431 381.82 82.818 384.326 79.5011 386.68C78.5586 387.348 77.6058 388.01 76.653 388.667C76.5409 388.744 76.49 388.902 76.5715 389.024C78.0236 391.184 80.6729 391.938 83.1542 391.989C83.9745 392.005 84.7744 391.842 85.5794 391.709C86.5475 391.546 87.5308 391.393 88.5141 391.383C89.2427 391.373 90.435 391.403 90.7661 392.214C90.8884 392.519 91.3877 392.371 91.2603 392.061H91.2654Z" fill="#13091C"/>
<path d="M74.3145 385.666C76.3168 386.023 78.207 386.813 79.868 387.99C80.138 388.183 80.3826 387.725 80.1176 387.536C78.4261 386.339 76.4798 385.524 74.4418 385.162C74.1158 385.106 73.9884 385.605 74.3196 385.666H74.3145Z" fill="#13091C"/>
<path d="M77.244 383.318C78.2783 383.333 79.2565 383.628 80.1481 384.148C80.999 384.642 81.748 385.279 82.4918 385.916C82.7466 386.13 83.1032 385.758 82.8485 385.539C82.0486 384.856 81.2385 384.168 80.3163 383.649C79.3635 383.114 78.319 382.813 77.2236 382.803C76.8924 382.803 76.9077 383.318 77.2389 383.323L77.244 383.318Z" fill="#13091C"/>
<path d="M80.4539 381.142C80.9176 380.999 81.4015 381.275 81.8091 381.473C82.2422 381.687 82.66 381.922 83.0625 382.181C83.8676 382.696 84.6012 383.307 85.2687 383.99C85.503 384.23 85.8545 383.853 85.6253 383.613C84.8916 382.859 84.0662 382.197 83.1695 381.636C82.7263 381.361 82.2626 381.111 81.7888 380.892C81.3201 380.673 80.8207 380.49 80.301 380.648C79.9852 380.745 80.1329 381.239 80.4539 381.142Z" fill="#13091C"/>
<path d="M82.8843 379.328C83.7453 378.921 84.6776 379.43 85.3808 379.914C86.1959 380.469 86.9908 381.06 87.7907 381.631C87.8722 381.478 87.9538 381.325 88.0404 381.178C88.0047 381.162 87.969 381.142 87.9282 381.127C87.6276 380.984 87.378 381.438 87.6786 381.58C87.7143 381.595 87.7499 381.616 87.7907 381.631C88.1015 381.779 88.3053 381.366 88.0404 381.178C87.1437 380.536 86.2622 379.848 85.3298 379.262C84.5095 378.747 83.5262 378.457 82.6091 378.89C82.3085 379.033 82.5837 379.471 82.8843 379.328Z" fill="#13091C"/>
<path d="M180.056 364.523C181.915 360.187 186.251 360.187 188.727 357.089C189.109 356.707 189.334 357.109 189.818 356.743C186.832 350.15 184.34 342.65 181.92 335.828C182.078 335.649 182.236 335.471 182.379 335.282C182.516 335.262 182.639 335.17 182.639 334.992C182.639 334.961 182.639 334.941 182.644 334.91C182.776 334.732 182.909 334.554 183.031 334.365C183.199 334.1 182.868 333.79 182.608 333.943C182.318 334.111 182.124 334.37 182.053 334.681C181.936 334.844 181.808 334.997 181.681 335.155C180.805 332.669 179.969 330.172 179.169 327.66C179.047 327.283 178.451 327.441 178.573 327.823C179.414 330.463 180.295 333.081 181.217 335.695C179.826 337.203 178.104 338.39 176.372 339.496C175.195 340.245 174.003 340.963 172.851 341.743C171.669 342.543 170.564 343.44 169.478 344.367C169.361 344.367 169.285 344.362 169.168 344.357C169.056 344.26 168.882 344.224 168.74 344.346C168.118 344.886 167.476 345.406 166.829 345.916C164.878 342.95 162.885 340.005 160.853 337.096C158.998 334.442 157.108 331.813 155.187 329.209C154.953 328.893 154.418 329.199 154.652 329.52C158.071 334.162 161.388 338.874 164.597 343.664C165.183 344.54 165.764 345.421 166.345 346.303C166.116 346.481 165.886 346.654 165.657 346.828C165.54 346.665 165.27 346.609 165.132 346.828C165.036 346.986 164.99 347.154 164.99 347.327C164.694 347.541 164.399 347.75 164.093 347.959C163.431 347.169 162.784 346.369 162.106 345.585C161.846 345.284 161.408 345.722 161.668 346.023C162.32 346.777 162.952 347.546 163.589 348.31L163.573 348.351C162.987 348.529 163.497 349.38 163.904 348.794C163.945 348.794 163.95 348.794 163.991 348.784C167.318 352.804 174.064 361.827 173.921 366.178C175.358 364.161 177.997 363.483 180.045 364.507L180.056 364.523Z" fill="#FFA078"/>
<path d="M199.957 364.258C199.957 364.232 199.957 364.207 199.957 364.176C199.916 363.407 199.936 362.5 199.467 361.848C198.968 361.155 198.199 360.63 197.501 360.166C196.079 359.219 194.398 358.521 192.686 358.668C192.421 358.429 192.146 358.205 191.85 358.001C191.01 357.425 190.057 357.012 189.079 356.732C188.692 356.625 188.126 356.381 187.739 356.559C187.392 356.722 187.158 357.094 186.929 357.379C184.855 359.973 181.227 359.973 179.673 363.595C178.318 361.521 173.829 361.664 173.982 364.991C173.784 366.311 173.529 367.62 173.32 368.405C172.607 371.12 171.735 373.846 171.134 376.587C170.309 380.353 168.021 381.754 164.811 383.578C163.879 384.108 162.952 384.658 162.106 385.32C161.658 385.667 161.24 386.059 160.929 386.533C160.598 387.037 160.414 387.623 160.287 388.209C160.19 388.673 160.114 389.141 160.053 389.61C159.278 389.717 158.575 390.14 158.05 390.721C157.322 391.531 156.975 392.591 156.766 393.645C156.568 394.654 156.196 395.923 156.904 396.809C157.22 397.207 157.658 397.507 158.076 397.788C158.509 398.078 158.957 398.343 159.421 398.582C161.775 399.795 164.327 400.254 166.926 400.544C172.8 401.196 179.75 400.931 184.559 397.059C185.92 395.964 187.148 394.705 188.233 393.335C189.109 392.229 189.833 391.006 190.388 389.712C190.826 388.688 191.361 387.592 191.438 386.441C191.514 385.213 190.735 384.347 190.536 383.185C190.424 382.533 190.24 381.83 190.154 381.117C190.082 380.521 190.556 379.996 191.157 379.976C192.36 379.94 193.557 380.021 194.423 379.099C196.385 377.005 197.857 374.473 198.836 371.783C199.422 370.157 199.804 368.466 199.941 366.744C200.008 365.913 200.018 365.078 199.972 364.247L199.957 364.258Z" fill="#66372E"/>
<path d="M154.606 258.073C154.606 254.216 152.675 251.765 150.968 248.326C149.384 245.127 147.448 241.244 146.913 237.688C146.301 233.643 145.542 229.618 144.747 225.608C143.061 217.104 141.466 208.601 140.269 200.011C139.662 195.675 139.138 191.329 138.694 186.973C138.251 182.642 137.966 178.296 137.528 173.965C137.105 169.772 136.361 165.65 135.153 161.61C134.017 157.809 132.575 154.09 130.945 150.472C130.532 149.56 130.109 148.658 129.671 147.762C128.581 144.368 127.363 141.016 126.008 137.719C124.816 134.815 123.527 131.952 122.141 129.134C121.789 128.426 121.438 127.718 121.076 127.015C120.755 126.388 120.47 125.68 120.001 125.145C119.583 124.666 118.997 124.498 118.381 124.467C117.55 124.427 116.705 124.478 115.874 124.483C109.088 124.559 102.306 124.641 95.5196 124.717C94.6739 124.727 93.823 124.737 92.9772 124.748C92.2741 124.758 91.4793 124.666 90.7966 124.875C90.2055 125.058 89.854 125.507 89.6502 126.067C89.3903 126.791 89.2732 127.58 89.1051 128.329C88.3357 131.667 87.5715 135.004 86.8021 138.341C86.0532 141.607 85.238 144.868 84.6011 148.159C83.9846 151.343 83.577 154.614 83.9081 157.86C83.9897 158.65 84.112 159.434 84.2801 160.209C84.3107 160.346 84.4024 160.412 84.5094 160.428C85.7016 169.115 87.169 177.766 88.9318 186.356C90.7966 195.44 92.9721 204.458 95.4636 213.395C97.9448 222.291 100.732 231.095 103.819 239.797C106.749 248.051 109.877 256.264 113.607 264.192C114.05 265.14 114.514 266.077 114.977 267.015C124.76 274.703 137.263 277.892 148.477 267.881C149.791 266.709 151.682 269.476 153.022 268.502C154.621 267.331 154.621 262.516 154.621 258.073H154.606Z" fill="#C4653B"/>
<path d="M186.414 329.77C184.988 326.106 183.367 322.504 181.839 318.882C178.685 311.412 175.531 303.943 172.383 296.474C170.798 292.719 169.214 288.964 167.629 285.209C166.151 281.714 164.664 278.203 162.717 274.937C160.613 271.412 158.03 268.232 155.213 265.262C154.504 265.787 144.513 249.432 143.892 250.675C125.509 240.618 113.082 242.661 114.972 267.015C115.288 267.647 115.803 269.119 115.874 269.257C119.604 276.247 123.277 283.263 126.895 290.309C130.512 297.355 134.079 304.427 137.584 311.53C141.089 318.632 144.544 325.76 147.937 332.918C151.33 340.072 154.672 347.256 157.954 354.465C158.58 355.841 159.136 357.614 160.516 358.429C161.174 358.821 161.948 358.908 162.697 358.949C163.675 359.005 164.654 359.04 165.627 359.086C168.984 359.244 172.831 359.825 175.939 358.2C177.365 357.451 178.471 356.248 179.429 354.98C180.519 353.538 181.498 351.999 182.399 350.435C184.193 347.327 185.65 344.015 186.725 340.591C187.28 338.834 187.729 337.005 187.683 335.145C187.637 333.285 187.087 331.487 186.419 329.765L186.414 329.77Z" fill="#C4653B"/>
<path d="M121.876 115.031C121.83 114.909 121.718 114.792 121.575 114.802C116.394 115.23 111.187 115.342 105.995 115.138C100.803 114.935 95.6216 114.415 90.496 113.574C88.351 113.223 85.722 113.126 83.8929 111.852C83.5465 111.608 83.2204 111.322 82.8281 111.164C80.948 110.436 80.622 113.783 80.3163 114.879L79.3177 118.43C79.1495 119.021 78.9864 119.612 78.8183 120.208C78.6553 120.779 78.4311 121.37 78.3648 121.961C78.2477 123.025 79.1648 123.408 79.9902 123.764C81.0194 124.213 82.069 124.62 83.1338 124.977C85.3705 125.731 87.6683 126.271 90.0018 126.607C92.3812 126.954 94.786 127.132 97.1806 127.346C99.667 127.57 102.158 127.789 104.645 128.008C107.08 128.222 109.521 128.426 111.966 128.523C114.417 128.62 116.924 128.666 119.364 128.396C119.823 128.345 120.286 128.238 120.623 127.901C120.974 127.55 121.102 127.051 121.153 126.566C121.3 125.283 121.219 123.968 121.219 122.679C121.219 121.339 121.239 119.984 121.504 118.664C121.744 117.477 122.329 116.234 121.886 115.026L121.876 115.031Z" fill="#13091C"/>
<path d="M95.0204 112.209C93.9097 112.061 92.7582 112.076 91.6424 112.02L88.0912 111.847C87.6735 111.827 87.1283 111.705 86.736 111.893C86.3029 112.102 86.2367 112.627 86.1297 113.045C85.8342 114.206 85.5794 115.383 85.3705 116.565C84.9731 118.807 84.7234 121.079 84.6317 123.352C84.591 124.304 84.5757 125.293 85.1871 126.088C85.6864 126.735 86.4354 127.122 87.1843 127.407C88.2186 127.8 89.314 128.065 90.3891 128.294C90.919 128.406 91.4539 128.503 91.9889 128.584C92.4933 128.661 93.0282 128.778 93.5377 128.727C94.2256 128.661 94.9898 128.014 94.6485 127.26C94.46 126.842 93.8944 126.877 93.5021 126.796C92.9213 126.684 92.3455 126.556 91.7698 126.419C90.6948 126.164 89.6095 125.899 88.5599 125.548C88.0759 125.385 87.6837 125.155 87.597 124.615C87.5002 124.05 87.5665 123.433 87.5817 122.863C87.6021 122.19 87.6378 121.512 87.6887 120.84C87.9842 120.947 88.2899 121.018 88.6007 121.069C89.2172 121.166 89.8745 121.232 90.4961 121.196C91.0208 121.171 91.6475 120.891 91.5406 120.259C91.4387 119.648 90.7202 119.444 90.2107 119.296C89.4465 119.077 88.6772 118.863 87.9129 118.644C88.0607 117.452 88.2542 116.27 88.4988 115.093C88.5548 114.833 88.5854 114.542 88.6924 114.298C88.8198 113.992 89.0898 113.921 89.3904 113.906C89.9967 113.875 90.6234 113.951 91.2348 113.982C92.4984 114.048 95.3006 114.441 96.6304 114.43C97.5017 114.42 95.7897 112.296 95.0255 112.194L95.0204 112.209Z" fill="#FFDBBB"/>
<path d="M106.494 114.761C105.883 114.7 105.241 114.746 104.635 114.823C104.089 114.889 103.814 115.098 103.697 115.643C103.397 116.998 103.137 118.364 102.897 119.729C102.408 122.542 102.041 125.369 101.781 128.212C101.501 128.38 101.404 128.742 101.613 129.033C101.659 129.099 101.72 129.145 101.787 129.185C101.817 129.216 101.853 129.236 101.899 129.252C102.245 129.41 102.724 129.374 103.055 129.399C103.733 129.455 104.41 129.537 105.088 129.557C105.552 129.568 106.036 129.486 106.357 129.119C106.713 128.712 106.749 128.09 106.836 127.58C106.948 126.923 107.05 126.266 107.136 125.609C107.32 124.253 107.452 122.893 107.534 121.528C107.615 120.152 107.646 118.771 107.625 117.391C107.61 116.402 107.824 114.899 106.494 114.761Z" fill="#C4653B"/>
<path d="M87.281 120.636C86.7206 120.493 86.2621 120.014 86.1805 119.434C86.1602 119.296 86.1652 119.133 86.2417 119.006C86.2977 118.914 86.4098 118.843 86.5066 118.802C86.8735 118.654 87.2912 118.725 87.6784 118.685C87.8466 118.669 87.9892 118.557 87.9892 118.374C87.9892 118.221 87.8466 118.048 87.6784 118.063C87.1689 118.119 86.6544 118.043 86.1805 118.272C85.7373 118.486 85.508 118.934 85.5539 119.418C85.6354 120.279 86.2722 121.023 87.1129 121.237C87.5001 121.334 87.6632 120.738 87.276 120.641L87.281 120.636Z" fill="#13091C"/>
<path d="M83.1543 110.787C82.762 110.512 82.1607 110.359 81.6869 110.334C81.1978 110.303 80.7393 110.492 80.4438 110.879C80.1126 111.312 79.9954 111.888 79.8425 112.402C79.6489 113.065 79.4502 113.727 79.2566 114.389C78.472 117.054 77.6466 119.714 76.8977 122.394C76.7295 122.995 76.7142 123.591 77.2034 124.044C77.6568 124.462 78.2478 124.773 78.8032 125.033C79.0885 125.165 79.3789 125.283 79.6744 125.384C79.9139 125.466 80.1992 125.593 80.4438 125.456C80.6476 125.339 80.6832 125.125 80.6119 124.956C80.673 122.47 81.3405 120.07 82.0283 117.696C82.3748 116.494 82.7314 115.286 83.0117 114.068C83.1543 113.462 83.2766 112.851 83.3734 112.234C83.4498 111.75 83.6281 111.139 83.1543 110.803V110.787Z" fill="#C4653B"/>
<path d="M69.831 151.583C72.5161 153.218 75.196 154.854 77.8811 156.489C79.1396 157.254 80.4693 157.967 81.6259 158.884C82.6296 159.679 83.3939 160.688 83.939 161.844C85.009 164.122 85.2332 166.71 85.5491 169.171C85.9108 172.004 86.3235 174.836 86.7718 177.659C87.7042 183.472 88.8149 189.255 90.0937 195.002C91.3573 200.668 92.7839 206.298 94.3888 211.882C95.9224 217.211 97.619 222.5 99.5195 227.712C99.7436 228.329 99.973 228.945 100.202 229.562C100.34 229.934 100.941 229.771 100.798 229.399C98.8418 224.181 97.0943 218.888 95.5148 213.543C93.8589 207.949 92.3916 202.298 91.0873 196.607C89.7626 190.819 88.606 184.991 87.6329 179.132C87.154 176.243 86.7158 173.344 86.3285 170.44C85.9923 167.918 85.814 165.309 85.0039 162.879C84.6268 161.742 84.097 160.662 83.348 159.72C82.4971 158.655 81.361 157.891 80.2044 157.182C77.5143 155.532 74.814 153.896 72.1187 152.256C71.4564 151.853 70.7991 151.451 70.1368 151.048C69.7954 150.839 69.4846 151.374 69.826 151.583H69.831Z" fill="#13091C"/>
<path d="M106.413 128.385C104.976 130.113 104.783 132.884 105.725 134.887C105.893 135.248 106.428 134.933 106.26 134.576C105.445 132.849 105.608 130.322 106.851 128.829C107.106 128.523 106.668 128.085 106.413 128.391V128.385Z" fill="#13091C"/>
<path d="M117.535 148.878C119.482 150.401 121.657 151.583 124.001 152.378C124.378 152.505 124.541 151.909 124.164 151.782C121.932 151.023 119.828 149.897 117.974 148.439C117.663 148.195 117.219 148.633 117.535 148.878Z" fill="#13091C"/>
<path d="M85.2077 126.77C84.5504 129.348 84.1428 131.998 83.7862 134.637C83.3888 137.572 83.0882 140.522 82.9201 143.477C82.8436 144.858 82.7926 146.243 82.8232 147.624C82.8334 148.022 83.4499 148.022 83.4448 147.624C83.3837 145 83.5773 142.366 83.8219 139.752C84.097 136.802 84.4638 133.863 84.9682 130.943C85.2026 129.598 85.4625 128.253 85.7987 126.928C85.8955 126.541 85.2994 126.378 85.2026 126.765L85.2077 126.77Z" fill="#13091C"/>
<path d="M89.7064 163.098C94.725 161.151 99.9321 159.699 105.231 158.772C106.764 158.502 108.303 158.283 109.847 158.099C110.239 158.054 110.244 157.432 109.847 157.478C104.446 158.104 99.1169 159.256 93.9455 160.932C92.4629 161.411 90.9955 161.936 89.5434 162.496C89.1766 162.639 89.3345 163.24 89.7064 163.092V163.098Z" fill="#13091C"/>
<path d="M120.669 275.126C125.978 278.743 130.981 282.794 135.628 287.237C136.947 288.495 138.231 289.784 139.49 291.104C139.765 291.394 140.203 290.956 139.928 290.666C135.459 285.978 130.604 281.663 125.427 277.775C123.97 276.68 122.488 275.62 120.985 274.591C120.653 274.367 120.343 274.902 120.674 275.126H120.669Z" fill="#13091C"/>
<path d="M152.961 262.862C150.113 261.344 147.835 258.848 146.612 255.862C146.465 255.5 145.863 255.658 146.016 256.025C147.3 259.163 149.649 261.803 152.65 263.397C153.001 263.586 153.317 263.051 152.961 262.862Z" fill="#13091C"/>
<path d="M159.706 390.527C160.802 391.77 162.422 392.254 164.012 392.463C165.851 392.708 167.741 392.749 169.596 392.774C171.557 392.799 173.534 392.703 175.455 392.285C177.371 391.867 179.159 391.088 180.779 389.987C182.303 388.953 183.846 387.735 184.916 386.222C186.037 384.632 186.343 382.681 186.939 380.867C188.09 377.372 189.986 374.188 191.514 370.855C192.258 369.235 192.931 367.569 193.369 365.842C193.588 364.976 193.746 364.099 193.838 363.213C193.929 362.316 193.965 361.394 193.766 360.507C193.669 360.064 193.501 359.641 193.267 359.249C193.094 358.964 192.645 359.224 192.819 359.509C193.308 360.324 193.41 361.267 193.384 362.204C193.359 363.091 193.242 363.977 193.063 364.843C192.717 366.525 192.136 368.155 191.448 369.729C190.052 372.944 188.259 375.971 186.97 379.237C186.654 380.031 186.379 380.842 186.139 381.667C185.874 382.584 185.65 383.516 185.293 384.403C184.6 386.14 183.266 387.419 181.829 388.566C180.31 389.778 178.644 390.797 176.785 391.393C174.981 391.974 173.091 392.198 171.206 392.254C169.147 392.315 167.063 392.229 165.01 392.061C163.232 391.918 161.296 391.577 160.058 390.17C159.839 389.921 159.472 390.288 159.691 390.537L159.706 390.527Z" fill="#13091C"/>
<path d="M179.541 363.728C179.154 368.267 178.624 372.817 177.585 377.26C177.457 377.805 177.32 378.35 177.177 378.89C177.106 379.155 177.029 379.425 176.953 379.69C176.892 379.894 176.81 380.088 176.831 380.302C176.892 380.989 177.422 381.662 178.069 381.896C178.471 382.044 178.986 382.059 179.409 382.059C179.852 382.059 180.3 381.998 180.733 381.881C181.605 381.642 182.389 381.173 183.097 380.623C183.948 379.96 184.697 379.181 185.446 378.411C185.813 378.034 186.139 377.616 186.659 377.453C187.123 377.311 187.612 377.29 188.091 377.199C188.417 377.138 188.279 376.638 187.953 376.699C187.179 376.847 186.328 376.832 185.711 377.403C185.039 378.029 184.432 378.732 183.765 379.364C182.466 380.587 180.907 381.687 179.032 381.524C178.599 381.489 178.171 381.463 177.834 381.158C177.61 380.954 177.391 380.628 177.355 380.312C177.335 380.118 177.437 379.909 177.488 379.721C177.564 379.456 177.636 379.191 177.707 378.921C177.845 378.396 177.977 377.871 178.099 377.341C178.599 375.196 178.976 373.021 179.281 370.835C179.613 368.471 179.862 366.102 180.061 363.723C180.091 363.391 179.572 363.391 179.541 363.723V363.728Z" fill="#13091C"/>
<path d="M171.216 378.391C174.079 378.743 177.024 379.043 179.77 377.953C180.076 377.83 179.944 377.331 179.633 377.453C176.922 378.528 174.034 378.218 171.216 377.871C170.885 377.831 170.89 378.35 171.216 378.391Z" fill="#13091C"/>
<path d="M171.97 374.58C173.177 374.901 174.472 374.998 175.715 374.993C177.315 374.982 178.965 374.763 180.412 374.045C180.713 373.897 180.448 373.449 180.152 373.596C178.762 374.284 177.162 374.473 175.623 374.473C174.451 374.473 173.244 374.381 172.108 374.08C171.787 373.994 171.649 374.493 171.97 374.58Z" fill="#13091C"/>
<path d="M172.872 371.197C175.46 372.089 178.349 371.869 180.779 370.621C181.075 370.468 180.815 370.02 180.519 370.173C178.206 371.36 175.465 371.543 173.009 370.698C172.693 370.591 172.556 371.09 172.872 371.197Z" fill="#13091C"/>
<path d="M173.662 367.849C176.077 368.42 178.604 368.048 180.968 367.411C181.289 367.325 181.151 366.825 180.83 366.912C178.558 367.523 176.123 367.895 173.799 367.35C173.473 367.274 173.336 367.773 173.662 367.849Z" fill="#13091C"/>
<path d="M169.142 164.223C168.082 161.864 166.921 159.546 165.647 157.289C165.581 157.157 165.504 157.029 165.428 156.897C162.875 152.418 159.91 148.154 156.507 144.266C156.313 144.037 156.114 143.808 155.911 143.584C154.993 142.559 154.046 141.566 153.062 140.593C152.094 139.64 151.07 138.697 149.817 138.132C148.543 137.551 147.142 137.363 145.746 137.301C144.233 137.24 142.715 137.276 141.206 137.357C138.175 137.505 135.159 137.898 132.193 138.509C130.68 138.82 129.187 139.192 127.71 139.62C126.971 139.829 126.237 140.058 125.509 140.307C124.918 140.506 124.337 140.741 123.848 141.123C123.022 141.775 122.554 143.023 123.216 143.956C123.568 145.688 123.929 147.42 124.286 149.147C124.612 150.737 124.943 152.332 125.28 153.916C125.876 156.754 126.467 159.587 127.078 162.415C128.423 168.702 129.799 174.984 131.2 181.261C131.908 184.41 132.616 187.563 133.33 190.707C133.681 192.256 134.043 193.805 134.394 195.354C134.69 196.627 134.919 197.957 135.48 199.149C135.999 200.265 136.876 201.121 138.083 201.452C139.352 201.799 140.763 201.656 142.022 201.315C144.747 200.586 147.132 198.844 149.358 197.173C154.087 193.616 158.387 189.515 162.422 185.204C164.419 183.085 166.35 180.909 168.245 178.708C169.917 176.762 172.016 174.602 172.189 171.881V171.856C172.337 169.181 170.182 166.521 169.142 164.218V164.223Z" fill="#9C668D"/>
<path d="M169.055 74.2713C167.873 73.1453 166.467 72.2435 165.127 71.3264C159.263 67.3065 153.022 63.8266 146.525 60.948C140.682 58.3546 128.535 54.4366 129.182 54.7219C130.441 55.2773 141.481 64.7641 141.93 65.2379C142.465 65.8035 143.097 66.318 142.786 67.174C142.546 67.8313 141.665 67.7803 141.048 67.9535C140.294 68.1675 135.189 68.5089 132.978 68.9114C132.978 68.9827 131.572 70.8781 131.261 71.6016C130.206 74.0726 129.33 76.6252 128.438 79.1574C126.523 84.5886 124.765 90.076 123.17 95.6091C121.575 101.142 120.149 106.726 118.885 112.341C118.248 115.164 117.657 117.991 117.107 120.834C116.893 121.925 116.394 123.341 117.219 124.299C117.566 124.701 118.055 124.941 118.539 125.145C119.145 125.399 119.762 125.634 120.378 125.868C125.448 127.789 130.945 129.323 136.407 128.477C137.079 128.375 137.747 128.227 138.404 128.054C138.745 127.962 138.654 127.488 138.363 127.448C142.888 120.926 157.143 127.753 151.931 107.878L165.8 87.8749C166.926 86.2496 168.072 84.6396 169.173 82.999C170.11 81.5979 171.032 80.0032 171.027 78.2658C171.027 76.6863 170.176 75.3413 169.061 74.2815L169.055 74.2713Z" fill="#9C668D"/>
<path d="M130.104 76.0291C132.418 78.062 134.833 79.9777 137.151 82.0055C138.43 83.1264 139.647 84.3034 140.88 85.4701C141.961 86.4891 143.122 87.4419 144.039 88.6188C144.956 89.8009 145.558 91.2682 145.109 92.7661C144.849 93.6373 144.294 94.3965 143.754 95.12C143.168 95.9046 142.572 96.6842 141.986 97.4688C139.561 100.704 137.161 103.965 134.838 107.282C132.392 110.772 130.023 114.323 127.873 118.002C127.669 118.348 128.204 118.659 128.408 118.312C132.438 111.409 137.181 104.928 141.966 98.5285C142.577 97.7082 143.194 96.893 143.81 96.0778C144.355 95.3543 144.936 94.636 145.349 93.8208C146.077 92.3789 146.026 90.8046 145.277 89.3831C144.564 88.0278 143.413 86.9528 142.297 85.9287C141.038 84.7721 139.821 83.5748 138.557 82.4284C135.954 80.0694 133.182 77.9092 130.543 75.5909C130.242 75.3311 129.804 75.7642 130.104 76.0291Z" fill="#13091C"/>
<path d="M131.205 119.698C133.513 115.979 136.713 112.861 140.483 110.644C140.824 110.441 140.513 109.906 140.172 110.109C136.31 112.377 133.034 115.576 130.67 119.387C130.461 119.729 130.996 120.04 131.205 119.698Z" fill="#13091C"/>
<path d="M129.829 155.72C134.909 161.691 139.994 167.662 145.073 173.634C146.51 175.325 147.947 177.012 149.389 178.703C149.649 179.009 150.082 178.566 149.827 178.265C144.747 172.294 139.663 166.322 134.583 160.351C133.146 158.66 131.709 156.973 130.267 155.282C130.008 154.976 129.575 155.419 129.829 155.72Z" fill="#13091C"/>
<path d="M138.236 82.78C140.641 81.3891 143.025 79.9574 145.389 78.485C146.561 77.7564 147.723 77.0227 148.879 76.2737C149.725 75.7235 150.663 75.0408 150.775 73.9504C150.892 72.8193 150.138 71.6577 149.588 70.7202C149.027 69.7675 148.385 68.8605 147.703 67.9893C146.256 66.1551 144.589 64.4942 142.842 62.9504C140.987 61.3149 139.021 59.8017 137.018 58.3496C136.697 58.1152 136.387 58.6502 136.708 58.8845C140.162 61.3913 143.54 64.0865 146.347 67.3168C147.061 68.1421 147.733 68.9981 148.345 69.8999C148.956 70.8068 149.572 71.7749 149.97 72.799C150.194 73.3798 150.275 73.9912 149.929 74.5415C149.649 74.9898 149.2 75.3108 148.767 75.6012C147.703 76.3094 146.612 76.9871 145.527 77.6647C143.02 79.2339 140.488 80.7573 137.93 82.2349C137.584 82.4336 137.895 82.9685 138.241 82.7698L138.236 82.78Z" fill="#13091C"/>
<path d="M165.433 156.902C162.88 152.424 159.915 148.159 156.512 144.272C156.033 144.139 155.528 144.124 155.039 144.149C154.153 144.2 153.266 144.328 152.39 144.44C145.186 145.392 138.134 147.242 130.95 148.307C128.938 148.612 126.905 148.775 124.892 149.061C124.694 149.091 124.495 149.117 124.296 149.153C124.622 150.742 124.953 152.337 125.29 153.921C126.462 154.747 127.694 155.47 129.009 156.051C130.247 156.601 131.546 157.029 132.891 157.254C134.45 157.513 136.02 157.457 137.594 157.396C139.179 157.33 140.753 157.34 142.332 157.493C143.907 157.646 145.466 157.906 147.03 158.171C150.077 158.69 153.164 159.256 156.267 159.169C157.999 159.123 159.691 158.828 161.372 158.4C162.804 158.028 164.22 157.6 165.657 157.289C165.591 157.157 165.515 157.029 165.438 156.897L165.433 156.902Z" fill="#13091C"/>
<path d="M139.102 121.991C141.278 121.91 143.448 121.691 145.598 121.344C146.699 121.166 147.789 120.957 148.874 120.707C149.358 120.6 149.837 120.483 150.316 120.356C150.8 120.233 151.442 120.157 151.865 119.887C152.181 119.688 152.247 119.337 152.278 118.99C152.329 118.404 152.354 117.813 152.375 117.227C152.415 116.147 152.426 115.072 152.405 113.992C152.359 111.857 152.186 109.728 151.896 107.608C151.559 105.178 151.06 102.778 150.403 100.414C150.326 100.134 149.863 100.103 149.807 100.414C149.781 100.567 149.751 100.72 149.725 100.872C149.634 100.898 149.552 100.959 149.516 101.071C148.502 104.352 147.82 107.73 147.483 111.149C147.443 111.541 147.412 111.934 147.382 112.331C147.351 112.759 147.382 113.243 147.285 113.661C147.198 114.043 146.75 114.196 146.444 114.369C146.072 114.583 145.7 114.802 145.338 115.026C144.034 115.847 142.796 116.769 141.634 117.783C140.977 118.358 140.33 118.965 139.734 119.602C139.209 120.167 138.71 120.855 138.802 121.665C138.822 121.828 138.929 121.981 139.112 121.976L139.102 121.991Z" fill="#13091C"/>
<path d="M123.756 136.527C121.754 132.864 119.084 129.582 115.925 126.857C115.976 126.821 116.022 126.78 116.073 126.745C116.465 126.449 116.078 125.777 115.681 126.077C114.03 127.32 112.42 128.625 110.861 129.99C110.051 130.703 109.256 131.427 108.476 132.171C107.763 132.848 106.989 133.521 106.357 134.275C105.694 135.06 106.046 135.798 106.54 136.563C107.055 137.363 107.59 138.142 108.15 138.911C109.286 140.476 110.509 141.973 111.808 143.4C113.128 144.842 114.529 146.207 116.007 147.491C116.542 147.955 117.311 148.892 118.116 148.612C118.483 148.485 118.727 148.159 118.972 147.879C119.324 147.476 119.67 147.074 120.016 146.661C121.326 145.086 122.559 143.441 123.695 141.734C124.215 140.955 124.765 140.134 124.724 139.156C124.689 138.208 124.21 137.342 123.761 136.527H123.756Z" fill="#FFA078"/>
<path d="M180.178 142.427C181.294 140.873 182.19 139.156 182.69 137.306C182.832 136.782 182.929 136.257 182.996 135.722C182.496 134.3 181.819 132.945 180.881 131.753C180.03 130.673 179.001 129.751 177.962 128.859C176.958 127.998 175.919 127.172 174.849 126.393C171.15 123.688 167.079 121.487 162.789 119.871C161.974 119.077 161.148 118.287 160.308 117.512C159.151 116.448 157.872 115.235 156.242 115.021C155.386 114.909 154.571 115.138 153.786 115.464C152.925 115.826 152.084 116.254 151.259 116.692C150.428 117.135 149.613 117.604 148.818 118.103C148.054 118.582 147.295 119.214 146.403 119.423C145.456 119.652 144.386 119.525 143.423 119.53C142.419 119.53 141.415 119.54 140.417 119.556C135.933 119.617 131.455 119.785 126.981 120.05C126.788 119.871 126.497 119.851 126.283 120.05C125.911 120.401 126.227 121.018 126.35 121.405C126.696 122.511 127.047 123.616 127.404 124.717C128.133 126.969 128.892 129.21 129.727 131.422C131.383 135.803 133.411 139.991 135.908 143.955C137.217 146.034 138.608 148.057 140.009 150.074C139.698 150.064 139.388 150.059 139.072 150.049C138.669 150.039 138.674 150.671 139.082 150.671C139.51 150.696 140.193 150.732 140.621 150.757C140.682 150.757 140.743 150.747 140.799 150.716C146.235 150.859 151.677 150.951 157.108 150.727C161.775 150.533 166.452 150.11 171.053 149.285C172.653 148.999 174.166 148.337 175.44 147.318C177.223 145.891 178.848 144.271 180.178 142.422V142.427Z" fill="#9C668D"/>
<path d="M142.817 140.379C140.947 136.247 138.735 132.252 136.484 128.319C134.537 124.915 132.351 121.527 129.284 119.026C128.912 118.72 128.53 118.43 128.138 118.16C127.73 117.874 127.297 117.553 126.808 117.431C126.339 117.314 125.881 117.421 125.432 117.599C124.913 117.803 124.398 118.037 123.889 118.282C121.999 119.168 120.195 120.233 118.503 121.456C117.551 122.149 116.628 122.888 115.747 123.672C114.906 124.421 114.02 125.201 113.368 126.123C112.853 126.847 112.624 127.631 112.573 128.436C112.583 128.462 112.593 128.487 112.608 128.513C113.169 129.588 114.015 130.5 114.692 131.508C116.287 133.893 117.714 136.374 118.962 138.962C120.19 141.51 121.275 144.118 122.34 146.737C122.91 148.138 123.466 149.545 124.092 150.925C124.261 151.292 124.434 151.654 124.602 152.021C124.806 152.225 125.025 152.418 125.254 152.597C126.716 153.707 128.479 154.314 130.217 154.838C132.301 155.47 134.384 156.081 136.468 156.703C137.253 156.937 138.129 157.335 138.965 157.284C139.658 157.238 140.198 156.785 140.091 156.046C140.014 155.496 139.775 154.935 139.602 154.41C139.484 154.059 139.352 153.702 139.23 153.351C141.747 153.534 144.264 153.717 146.78 153.875C147 153.886 147.122 153.672 147.086 153.483C146.144 148.974 144.707 144.582 142.812 140.389L142.817 140.379Z" fill="#731C26"/>
<path d="M176.861 146.1C178.084 144.984 179.21 143.767 180.173 142.427C181.289 140.873 182.185 139.156 182.685 137.306C183.255 135.172 183.138 132.965 183.052 130.78C182.848 125.629 182.196 120.508 181.426 115.413C180.693 110.558 179.786 105.717 179.169 100.842C178.741 99.038 178.303 97.2343 177.844 95.4358C177.08 92.4246 176.28 89.4237 175.44 86.433C175.027 84.9605 174.614 83.4881 174.171 82.0309C173.799 80.8081 173.33 79.5292 172.383 78.6274C171.873 78.1434 171.257 77.7868 170.589 77.6339C170.294 77.0837 169.55 76.9003 168.908 76.9359C167.792 77.0022 166.661 77.6084 165.688 78.1128C163.41 79.2898 161.383 80.9253 159.635 82.79C155.722 86.9577 153.251 92.1903 150.861 97.3158C150.245 98.6354 149.608 99.9703 149.287 101.402C148.946 102.91 149.027 104.454 149.139 105.982C149.246 107.491 149.369 109.004 149.603 110.497C149.837 111.989 150.26 113.411 150.724 114.843C151.167 116.218 151.595 117.66 151.432 119.122C151.269 120.549 150.566 121.848 150.398 123.28C150.072 126.031 151.203 128.747 152.818 130.922C154.489 133.174 156.634 135.09 158.794 136.863C161.021 138.692 163.39 140.353 165.856 141.846C168.276 143.308 170.819 144.623 173.544 145.428C174.604 145.739 175.725 145.978 176.861 146.105V146.1Z" fill="#9C668D"/>
<path d="M166.763 130.168C166.646 129.236 166.05 128.609 165.387 127.998C164.694 127.361 163.996 126.729 163.278 126.123C162.249 125.257 161.169 124.452 160.017 123.774C159.319 123.137 158.524 122.653 157.638 122.317C157.429 122.235 157.174 122.485 157.256 122.699C158 124.625 158.85 126.515 159.818 128.339C160.618 129.847 161.597 131.452 163.303 132.033C164.699 132.507 167.002 132.059 166.763 130.168Z" fill="#13091C"/>
<path d="M130.818 120.33C133.085 120.014 135.378 119.841 137.665 119.719C139.938 119.601 142.22 119.535 144.493 119.612C144.89 119.627 144.89 119.005 144.493 118.99C142.174 118.914 139.851 118.98 137.538 119.107C135.235 119.229 132.937 119.413 130.655 119.734C130.262 119.79 130.431 120.386 130.818 120.33Z" fill="#13091C"/>
<path d="M149.639 117.538C150.311 117.354 150.989 117.207 151.677 117.1C152.41 116.988 153.144 116.886 153.735 117.426C154.637 118.246 155.34 119.372 155.967 120.406C157.266 122.556 158.219 124.885 159.258 127.167C159.772 128.293 160.302 129.419 160.919 130.5C161.444 131.422 162.162 132.42 163.273 132.629C163.92 132.751 164.592 132.609 165.219 132.446C165.678 132.329 166.172 132.145 166.503 131.794C167.369 130.882 166.294 129.725 165.718 128.981C164.032 126.795 161.897 124.982 159.472 123.667C159.12 123.479 158.81 124.014 159.161 124.202C161.219 125.323 163.064 126.801 164.592 128.574C164.99 129.032 165.362 129.511 165.713 130.01C166.019 130.443 166.498 131.019 165.958 131.457C165.571 131.778 165 131.88 164.521 131.977C163.854 132.115 163.201 132.099 162.636 131.682C161.744 131.029 161.25 129.852 160.766 128.895C160.231 127.84 159.747 126.76 159.263 125.68C158.305 123.535 157.352 121.369 156.063 119.398C155.712 118.857 155.335 118.338 154.932 117.838C154.56 117.375 154.163 116.855 153.618 116.595C153.022 116.31 152.364 116.386 151.738 116.478C150.979 116.585 150.23 116.748 149.486 116.947C149.104 117.049 149.267 117.65 149.649 117.543L149.639 117.538Z" fill="#13091C"/>
<path d="M150.795 116.672C151.819 116.096 152.859 115.551 153.918 115.036C154.438 114.787 154.978 114.476 155.564 114.425C156.124 114.374 156.644 114.608 157.118 114.878C159.018 115.953 160.827 117.242 162.6 118.506C166.167 121.043 169.56 123.82 172.754 126.811C174.563 128.502 176.306 130.265 177.987 132.084C178.257 132.38 178.695 131.941 178.425 131.646C175.317 128.273 171.98 125.114 168.439 122.2C166.717 120.783 164.949 119.428 163.14 118.129C161.296 116.809 159.411 115.464 157.434 114.343C156.94 114.063 156.405 113.829 155.829 113.803C155.228 113.773 154.662 114.007 154.127 114.257C152.889 114.833 151.677 115.469 150.484 116.142C150.138 116.336 150.449 116.871 150.795 116.677V116.672Z" fill="#13091C"/>
<path d="M170.554 77.3129C167.777 76.5945 165.107 78.2708 162.937 79.8248C160.899 81.2819 159.049 82.9938 157.393 84.8739C153.964 88.7613 151.279 93.3774 149.725 98.3297C148.89 100.994 148.396 103.781 148.385 106.584C148.385 106.981 149.002 106.981 149.007 106.584C149.027 101.682 150.54 96.8624 152.823 92.5622C155.151 88.1856 158.336 84.2013 162.233 81.1291C163.288 80.2986 164.404 79.5242 165.581 78.872C167.048 78.0619 168.709 77.4811 170.391 77.9142C170.778 78.0161 170.941 77.4148 170.554 77.318V77.3129Z" fill="#13091C"/>
<path d="M124.892 152.535C129.386 153.702 134.058 154.11 138.684 153.717C139.077 153.687 139.082 153.065 138.684 153.096C134.109 153.478 129.503 153.091 125.06 151.934C124.673 151.832 124.51 152.433 124.897 152.53L124.892 152.535Z" fill="#13091C"/>
</svg>
