<svg width="22" height="22" viewBox="0 0 22 22" fill="none" xmlns="http://www.w3.org/2000/svg">
<path d="M4.73 6.72367C5.83 6.72367 6.71 5.82992 6.71 4.74367C6.71 3.65742 5.81625 2.76367 4.73 2.76367C3.64375 2.76367 2.75 3.65742 2.75 4.74367C2.75 5.82992 3.64375 6.72367 4.73 6.72367ZM8.59375 8.22242V19.2499H12.0037V13.8049C12.0037 12.3612 12.2788 10.9724 14.0525 10.9724C15.8263 10.9724 15.8263 12.6224 15.8263 13.8874V19.2499H19.25V13.1999C19.25 10.2299 18.6175 7.94742 15.1525 7.94742C13.4888 7.94742 12.375 8.85492 11.9213 9.72117H11.88V8.20867H8.6075L8.59375 8.22242ZM3.025 8.22242H6.44875V19.2499H3.025V8.22242Z" fill="#2964FF"/>
</svg>
