<svg width="150" height="434" viewBox="0 0 150 434" fill="none" xmlns="http://www.w3.org/2000/svg">
<path d="M133.056 183.767H107.098L103.395 165.583L100.949 153.544L97.7474 137.821L95.6786 82.6022H119.368C119.368 82.6022 123.571 109.593 126.056 136.573C126.257 138.73 126.526 140.884 126.854 143.022L133.052 183.763L133.056 183.767Z" fill="#612F4F"/>
<path d="M115.708 159.866C115.97 159.719 116.136 159.53 116.132 159.28C116.086 157.369 116.04 155.458 115.989 153.543H100.949L102.324 160.316H112.823C113.32 160.316 114.93 160.293 115.708 159.866Z" fill="#331029"/>
<path d="M135.06 225.583C134.701 228.576 133.58 231.782 130.702 233.234C129.393 233.889 127.875 234.12 126.461 233.65C126.222 233.573 125.991 233.477 125.775 233.361C124.592 234.286 123.186 234.902 121.645 234.821C121.194 234.802 120.751 234.717 120.328 234.59C119.384 235.16 118.27 235.465 117.172 235.361C116.799 235.33 116.448 235.257 116.101 235.149C115.15 235.696 113.948 235.835 112.938 235.449C111.447 234.879 110.415 233.469 110.399 231.859C110.399 231.608 110.469 231.377 110.6 231.184C110.457 229.482 111.574 227.902 113.104 227.124C114.98 226.161 117.249 225.833 119.299 225.413C123.783 224.516 128.341 223.972 132.914 223.795C133.407 223.776 133.754 223.999 133.954 224.315C134.54 224.412 135.137 224.951 135.06 225.583Z" fill="#B5513A"/>
<path d="M114.93 231.038C114.903 230.98 114.899 230.953 114.93 231.038Z" fill="#B5513A"/>
<path d="M88.3319 162.443L147.111 161.272C148.698 161.241 150 162.516 150 164.103V225.995C150 227.536 148.767 228.796 147.222 228.827L88.4436 229.998C86.8564 230.029 85.5542 228.753 85.5542 227.166V165.275C85.5542 163.734 86.787 162.474 88.3319 162.443Z" fill="#AEB1BD"/>
<path d="M144.576 227.841C144.518 227.841 144.456 227.825 144.402 227.791C144.256 227.694 144.21 227.498 144.306 227.351C144.564 226.947 144.703 226.481 144.703 225.999V164.108C144.703 163.668 144.587 163.237 144.371 162.859C144.283 162.705 144.337 162.513 144.487 162.424C144.637 162.335 144.834 162.389 144.922 162.539C145.196 163.013 145.338 163.557 145.338 164.104V225.995C145.338 226.6 145.165 227.186 144.841 227.694C144.78 227.791 144.68 227.841 144.572 227.841H144.576Z" fill="#6F7385"/>
<path d="M114.976 203.099C114.04 204.213 112.719 205.002 111.166 205.06C109.637 205.114 108.153 204.351 107.183 203.28C104.744 200.587 105.029 195.791 107.113 192.998C109.764 189.45 115.165 189.477 116.521 193.969C117.411 196.927 117.068 200.614 114.98 203.095L114.976 203.099Z" fill="#6F7385"/>
<path d="M125.79 232.013C125.694 232.175 125.559 232.309 125.393 232.417C125.305 232.525 125.201 232.618 125.085 232.687C122.292 234.243 119.033 234.71 115.908 234.055C115.762 234.024 115.631 233.958 115.523 233.881C115.408 233.881 115.284 233.87 115.165 233.835C111.258 232.814 109.525 228.253 109.375 224.581C109.305 222.686 110.222 220.559 112.187 219.993C113.435 219.634 114.918 220.205 115.631 221.272C116.467 220.848 117.449 220.875 118.316 221.253C120.385 222.146 120.77 224.342 121.73 226.134C122.597 227.76 123.826 229.193 125.336 230.244C125.902 230.649 126.172 231.362 125.79 232.005V232.013Z" fill="#B5513A"/>
<path d="M125.371 233.292C125.27 233.292 125.17 233.246 125.109 233.153C124.461 232.217 124.157 231.03 124.273 229.898C124.292 229.724 124.461 229.597 124.619 229.613C124.793 229.632 124.92 229.786 124.904 229.963C124.804 230.946 125.066 231.978 125.629 232.791C125.729 232.937 125.694 233.134 125.548 233.234C125.494 233.273 125.428 233.292 125.367 233.292H125.371Z" fill="#632718"/>
<path d="M119.765 234.066C119.707 234.066 119.646 234.051 119.592 234.016C117.219 232.483 115.258 229.694 114.599 226.912C114.333 225.787 113.705 223.148 114.907 221.73C115.023 221.596 115.223 221.58 115.354 221.692C115.489 221.807 115.504 222.008 115.392 222.139C114.398 223.314 114.973 225.729 115.215 226.762C115.924 229.751 118.093 232.29 119.935 233.477C120.081 233.573 120.123 233.77 120.031 233.916C119.969 234.012 119.869 234.063 119.765 234.063V234.066Z" fill="#632718"/>
<path d="M115.23 234.848C115.165 234.848 115.099 234.829 115.042 234.787C113.431 233.619 112.225 231.932 111.64 230.032C111.586 229.863 111.682 229.686 111.852 229.636C112.021 229.582 112.198 229.678 112.249 229.848C112.796 231.616 113.921 233.188 115.419 234.274C115.562 234.378 115.593 234.575 115.489 234.717C115.427 234.802 115.331 234.848 115.23 234.848Z" fill="#632718"/>
<path d="M41.7349 422.238C40.9683 425.836 39.6006 429.496 36.5224 431.526C31.7028 434.697 26.4787 432.466 22.0483 429.654C18.0608 427.123 13.9155 422.919 14.0657 417.849V417.819C14.3277 410.495 17.3327 404.585 17.7989 397.797C17.7989 397.778 17.8335 396.221 17.8528 395.47C17.8528 395.458 17.8528 395.427 17.8528 395.427C17.8528 395.416 17.8528 395.408 17.8567 395.4C17.8759 394.642 17.899 393.89 17.953 393.143C18.0069 392.33 18.346 391.39 19.0548 391.012C19.0857 390.122 19.1165 389.233 19.1434 388.35C19.2051 386.613 19.2629 384.875 19.3206 383.142C25.0725 380.11 31.6104 378.78 38.1019 378.569C38.1019 378.569 36.7998 383.693 35.5978 388.489C35.0546 390.673 34.5306 392.785 34.1569 394.326C34.3033 396.579 34.5691 397.701 35.1431 399.889C35.8674 402.659 36.9308 405.317 38.2561 407.879C40.6138 412.429 42.8483 416.983 41.7311 422.238H41.7349Z" fill="#59222C"/>
<path d="M31.568 430.27C28.721 430.32 26.0126 429.08 23.7473 427.797C19.5673 425.427 16.4428 422.291 14.7053 418.732C14.636 418.593 14.6938 418.423 14.8363 418.354C14.975 418.285 15.1445 418.343 15.2138 418.485C16.9013 421.945 19.9487 424.996 24.0285 427.307C27.4689 429.257 31.9764 431.118 36.3105 428.147C38.5836 426.591 40.1593 423.879 41.1301 419.86C41.1648 419.71 41.315 419.614 41.4691 419.652C41.6194 419.687 41.7119 419.841 41.6772 419.991C40.6717 424.152 39.0189 426.972 36.6265 428.61C34.9352 429.769 33.2324 430.239 31.5719 430.27H31.568Z" fill="#0E091F"/>
<path d="M32.4541 430.212C32.4541 430.212 32.4541 430.212 32.4503 430.212C32.2962 430.212 32.169 430.085 32.169 429.931C32.169 423.555 31.1558 417.198 30.1773 411.05C29.3605 405.918 28.5129 400.609 28.2548 395.308C28.2587 395.235 28.5592 392.099 28.1701 390.388C28.1624 390.361 28.1624 390.331 28.1624 390.304L28.9599 379.597C28.9714 379.443 29.1101 379.331 29.2604 379.339C29.4145 379.351 29.53 379.486 29.5185 379.64L28.7249 390.304C29.1217 392.107 28.8289 395.189 28.8135 395.32C29.0677 400.551 29.9114 405.841 30.7282 410.961C31.7144 417.133 32.7315 423.513 32.7277 429.931C32.7277 430.085 32.6044 430.209 32.4503 430.212H32.4541Z" fill="#0E091F"/>
<path d="M24.5486 391.899C23.3812 391.922 22.2101 391.787 21.0736 391.49C20.9233 391.452 20.8347 391.298 20.8733 391.147C20.9118 390.997 21.0659 390.908 21.2161 390.947C24.7682 391.872 28.6631 391.143 31.6373 389.001C31.7606 388.913 31.9378 388.94 32.0303 389.067C32.1228 389.194 32.0919 389.367 31.9648 389.46C29.8073 391.012 27.1914 391.856 24.5486 391.902V391.899Z" fill="#0E091F"/>
<path d="M31.2522 394.965C31.2522 394.965 31.2368 394.965 31.2291 394.965C28.8135 394.819 26.3671 394.838 23.9593 395.027C23.7859 395.042 23.6703 394.923 23.6588 394.769C23.6472 394.615 23.7628 394.48 23.9169 394.468C26.3556 394.279 28.8251 394.256 31.2676 394.407C31.4217 394.414 31.5411 394.549 31.5295 394.703C31.5218 394.85 31.3986 394.965 31.256 394.965H31.2522Z" fill="#0E091F"/>
<path d="M23.023 388.593C24.7297 388.501 26.4364 388.031 28.0352 387.487C29.5416 386.975 31.0788 386.551 32.666 386.405C33.8102 386.301 34.9545 386.374 36.0833 386.563C37.1273 382.413 38.102 378.565 38.102 378.565C31.6143 378.777 25.0765 380.106 19.3207 383.138C19.2668 384.748 19.2128 386.366 19.155 387.98C20.4225 388.527 21.6168 388.662 23.0192 388.589L23.023 388.593Z" fill="#0E091F"/>
<path d="M80.2489 409.539L69.2614 409.74L69.8623 418C69.8893 418.37 70.0935 418.705 70.4094 418.897L72.8944 420.415C73.2064 420.604 73.5647 420.704 73.9307 420.696L79.6941 420.592C80.1102 420.585 80.4454 420.242 80.4377 419.822L80.2489 409.539Z" fill="#0E091F"/>
<path d="M74.0155 420.011C73.8575 420.011 73.7265 419.888 73.7227 419.726L73.6187 414.12C73.6187 413.962 73.742 413.831 73.9038 413.827C74.0617 413.827 74.1927 413.951 74.1965 414.109L74.3006 419.714C74.3006 419.872 74.1773 420.003 74.0155 420.007V420.011Z" fill="#605675"/>
<path d="M110.368 430.682C110.368 430.682 110.353 430.694 110.345 430.702C109.937 430.991 109.463 431.237 108.924 431.434C107.332 432.004 105.537 431.996 103.861 431.934C99.2536 431.75 94.2106 430.332 90.2502 428.259C85.3035 425.682 81.0117 421.837 78.026 417.148C77.5097 416.343 76.8741 415.627 76.1613 414.987C74.2813 413.292 72.2124 411.813 69.9895 410.576C69.9433 410.549 69.897 410.518 69.8585 410.48C69.4771 410.333 69.1689 409.979 69.2344 409.489C69.8662 404.774 71.1337 400.155 72.9983 395.77C72.694 393.825 73.1601 391.775 74.2543 390.134V385.7V384.825V378.588C80.9077 377.32 87.9001 378.276 93.7946 381.639C93.7137 383.535 93.6289 385.43 93.548 387.325C93.5287 387.776 93.5018 388.246 93.4555 388.724C93.4016 389.356 93.3168 389.995 93.1704 390.612C93.0356 391.174 92.8468 391.714 92.5771 392.203C95.3471 398.386 98.6025 404.943 102.274 410.657C105.911 414.471 109.505 418.655 111.108 423.659C111.474 424.796 111.732 425.975 111.867 427.2C112.013 428.533 111.466 429.889 110.364 430.679L110.368 430.682Z" fill="#59222C"/>
<path d="M93.8022 381.643C93.7213 383.538 93.6365 385.434 93.5556 387.329C93.5364 387.78 93.5094 388.25 93.4632 388.728C91.664 389.086 89.6299 388.774 87.7768 388.142C86.151 387.587 84.8566 386.447 83.3849 385.646C82.0442 384.914 80.5879 384.332 79.016 384.182C77.3825 384.024 75.7491 384.259 74.262 384.821V378.584C80.9154 377.316 87.9078 378.272 93.8022 381.635V381.643Z" fill="#0E091F"/>
<path d="M105.734 429.546C105.56 429.546 105.387 429.546 105.218 429.538C100.675 429.349 95.4936 427.92 91.356 425.716C86.2243 422.981 81.9172 418.986 78.9045 414.163C77.9644 412.656 76.5043 411.489 75.0904 410.36C73.6842 409.231 72.1586 408.18 70.4249 407.135C70.2862 407.055 70.2439 406.877 70.3248 406.739C70.4057 406.604 70.5829 406.558 70.7216 406.638C72.4784 407.694 74.0232 408.761 75.4448 409.902C76.8318 411.011 78.3998 412.263 79.3937 413.854C82.3525 418.589 86.5864 422.515 91.6295 425.204C95.6939 427.369 100.783 428.775 105.241 428.96C106.47 429.01 107.772 428.779 108.908 428.305C109.517 428.051 110.33 427.596 110.723 426.868C110.8 426.73 110.973 426.676 111.116 426.753C111.255 426.83 111.308 427.003 111.231 427.146C110.757 428.024 109.825 428.552 109.128 428.841C108.072 429.276 106.886 429.523 105.73 429.542L105.734 429.546Z" fill="#0E091F"/>
<path d="M108.111 429.188C107.964 429.188 107.837 429.08 107.818 428.933C107.81 428.86 106.866 421.455 99.1844 412.949C91.4022 404.331 89.4258 400.143 89.3449 399.97C89.3295 399.935 89.3179 399.893 89.3179 399.854C89.3179 399.827 89.2563 397.019 88.5667 395.971C88.5282 395.913 88.5128 395.847 88.5205 395.778C88.532 395.682 89.58 385.965 88.9674 380.568C88.9481 380.41 89.0637 380.268 89.2216 380.248C89.3796 380.237 89.5222 380.345 89.5414 380.503C90.1232 385.665 89.2139 394.692 89.1022 395.743C89.7803 396.891 89.8805 399.338 89.892 399.777C90.1424 400.286 92.3538 404.527 99.6082 412.56C107.425 421.213 108.38 428.791 108.388 428.864C108.407 429.022 108.292 429.164 108.134 429.184C108.126 429.184 108.115 429.184 108.107 429.184L108.111 429.188Z" fill="#0E091F"/>
<path d="M82.599 396.949C82.4719 396.949 82.3563 396.868 82.3178 396.741C82.2716 396.587 82.3602 396.429 82.5143 396.383C85.4114 395.532 88.5358 395.239 91.5408 395.539C91.6988 395.555 91.8144 395.697 91.799 395.855C91.7836 396.013 91.641 396.133 91.4831 396.113C88.5474 395.821 85.5039 396.106 82.6761 396.938C82.6491 396.945 82.626 396.949 82.599 396.949Z" fill="#0E091F"/>
<path d="M91.4445 392.199C91.4175 392.199 91.3944 392.199 91.3675 392.191C88.3201 391.405 85.1841 390.901 82.0443 390.689C81.8863 390.677 81.763 390.542 81.7746 390.381C81.7861 390.223 81.9402 390.107 82.0828 390.111C85.2573 390.323 88.428 390.831 91.51 391.629C91.6641 391.667 91.7566 391.825 91.7181 391.979C91.6834 392.107 91.5716 392.195 91.4445 392.195V392.199Z" fill="#0E091F"/>
<path d="M114.726 373.784C114.733 375.976 111.559 379.501 109.887 380.718C103.854 385.099 94.3263 385.735 88.3163 381.135C81.4857 375.903 75.8186 378.969 71.5191 381.897C60.7126 389.275 53.4467 385.272 42.8174 379.913C38.3407 377.66 35.6747 377.621 29.6724 381.828C22.1137 387.129 6.15249 382.394 7.01161 371.665C8.1828 357.06 11.8736 312.713 15.8648 265.253C15.9997 263.646 16.1345 262.032 16.2693 260.422C16.3194 259.832 16.3656 259.239 16.4157 258.65C16.6854 255.467 16.9551 252.289 17.2248 249.122C19.0933 227.078 20.9772 205.526 22.6338 187.562C23.7202 175.869 24.7103 165.691 25.5425 157.886C26.4941 148.959 27.2453 143.126 27.6999 141.643C30.9053 131.203 45.075 65.2349 45.075 65.2349L57.1875 63.4357L84.7064 59.3559L87.5073 58.9398C87.5073 58.9398 90.1078 59.8721 93.0666 61.8639C93.8062 62.357 94.5652 62.9234 95.3087 63.5591C97.6395 65.5239 99.8509 68.1667 100.887 71.5339C103.584 80.31 101.446 148.108 101.446 148.108C101.446 148.108 102.733 149.799 104.466 154.707C104.844 155.786 105.245 157.015 105.657 158.413C105.741 158.691 105.822 158.98 105.907 159.272C106.003 159.608 106.1 159.958 106.196 160.32C106.273 160.578 106.342 160.848 106.416 161.118C109.532 172.887 113.038 194.304 113.543 231.666C114.352 292.333 114.687 364.307 114.726 373.788V373.784Z" fill="#FFE4D7"/>
<path d="M34.5267 205.685C34.4304 208.474 33.5636 211.101 31.8145 212.715C31.1018 213.378 30.4122 212.477 30.4199 211.548C28.8249 209.025 27.7231 205.985 27.3031 202.714C27.1182 201.239 27.0412 199.744 27.1221 198.257C27.1914 196.901 27.2839 195.286 27.8656 194.119C28.4705 192.909 29.607 192.54 30.5393 193.337C31.4524 194.127 31.9802 195.733 32.5041 196.951C33.6291 199.605 34.623 202.576 34.5228 205.685H34.5267Z" fill="#D19A80"/>
<path d="M55.1649 252.362C54.691 255.806 52.21 258.23 49.5555 259.281C46.7085 260.414 43.5417 260.321 40.5791 260.464C37.3005 260.61 34.0181 260.707 30.7357 260.726C26.3977 260.753 22.0636 260.668 17.7256 260.483C17.0629 262.059 16.4465 263.646 15.8687 265.249C16.0035 263.642 16.1383 262.028 16.2731 260.418C16.3232 259.828 16.3695 259.235 16.4195 258.646C16.4195 258.638 16.4273 258.638 16.4273 258.634C16.6892 255.46 16.9589 252.285 17.2286 249.118C18.8813 248.783 20.5457 248.509 22.2023 248.244C25.685 247.685 29.187 247.227 32.7005 247.011C39.666 246.568 46.7085 247.019 53.4929 249.06C54.2942 249.299 54.3405 250.37 53.9167 250.944C54.5138 250.802 55.292 251.399 55.1649 252.366V252.362Z" fill="#D19A80"/>
<path d="M93.3941 159.692C93.6714 160.101 94.1569 160.316 94.65 160.316H106.2C105.595 158.097 105.01 156.24 104.466 154.699C101.627 154.507 98.7722 154.43 95.929 154.468C95.3011 154.476 94.677 154.938 94.5806 155.485C94.2917 155.532 94.0143 155.697 93.8294 156.013C93.1591 157.15 92.6351 158.571 93.3941 159.696V159.692Z" fill="#D19A80"/>
<path d="M60.2927 152.007C60.1771 154.596 60.0615 157.185 59.9459 159.773C59.9074 160.498 59.3372 161.022 58.5706 161.06C50.8038 161.445 43.0216 161.569 35.2394 161.438C35.2394 161.438 32.0764 170.322 31.5371 195.626C31.5255 196.327 30.8436 196.912 30.1694 196.912C29.9383 196.912 29.7533 196.866 29.5723 196.785C28.9751 197.159 28.1121 197.151 27.6575 196.4C25.8969 193.503 24.144 190.586 22.6415 187.558C23.7279 175.866 24.718 165.687 25.5502 157.882C28.1507 155.736 31.2751 154.245 34.5922 153.243C41.758 149.992 50.1527 149.163 57.8771 151.205C58.6284 150.427 60.3582 150.693 60.2927 152.007Z" fill="#D19A80"/>
<path d="M93.972 61.4132C92.9781 61.9217 91.9533 62.3879 90.9246 62.8348C91.5526 62.2184 91.541 60.947 90.4315 60.6504C85.2575 59.2673 79.9448 58.4159 74.6013 58.1C71.9854 57.9459 69.3656 57.9189 66.742 58.0345C64.4305 58.1308 61.8261 58.1385 59.765 59.3444C57.6384 60.5926 56.4749 63.2624 57.6577 65.5431C57.8426 65.9014 58.12 66.0941 58.4166 66.1596C58.3973 66.2289 58.3704 66.2944 58.3588 66.3637C58.2625 66.9493 58.5437 67.3847 58.9829 67.6544C60.0886 70.5785 61.1481 73.5257 62.1574 76.496C59.7496 89.641 58.2317 102.948 57.6345 116.293C57.3263 123.278 57.2686 130.266 57.4689 137.259C57.519 138.973 57.5845 140.695 57.6615 142.417C57.7232 143.735 57.6692 145.187 57.9774 146.501C61.2097 148.023 64.8504 147.981 68.2715 146.894C71.9623 145.727 74.5127 142.213 74.3046 138.345C74.3046 138.322 74.3046 138.299 74.3046 138.28C74.2853 137.925 74.1428 137.644 73.9463 137.444C73.1296 125.543 72.3205 113.658 71.5038 101.757C71.6386 101.507 71.6964 101.179 71.6078 100.802C72.2435 100.794 72.8792 100.378 72.8984 99.5537C73.1565 89.6526 72.1973 79.7245 70.0784 70.0545C78.8738 71.1872 88.0121 68.9681 95.2087 63.6438C96.3336 62.8078 95.3243 60.7351 93.9797 61.4093L93.972 61.4132Z" fill="#D19A80"/>
<path d="M77.0129 116.282C77.0129 116.282 76.9937 116.282 76.986 116.282C76.6894 116.27 76.4389 116.07 76.3619 115.785C75.8765 113.943 74.2198 108.465 73.0101 104.466L72.1356 101.569C72.0855 101.399 72.1818 101.222 72.3475 101.172C72.5131 101.122 72.6942 101.218 72.7443 101.384L73.6188 104.281C74.8285 108.287 76.489 113.77 76.9744 115.623L77.3404 115.731L77.0399 115.63C77.2133 115.118 77.3867 114.606 77.5523 114.093C81.6091 101.788 83.6009 91.6906 83.8205 82.3173C83.9437 77.1124 83.5315 72.1118 82.5915 67.4502C82.5568 67.2768 82.6685 67.1112 82.8419 67.0765C83.0114 67.0418 83.1809 67.1535 83.2156 67.3269C84.1633 72.0309 84.5832 77.0816 84.4561 82.3327C84.2327 91.7715 82.2332 101.927 78.1572 114.294C77.9915 114.806 77.8181 115.322 77.6409 115.839C77.5446 116.112 77.2942 116.289 77.0091 116.289L77.0129 116.282Z" fill="#D19A80"/>
<path d="M48.6927 351.543C48.6657 351.543 48.6349 351.543 48.6079 351.531C48.4384 351.485 48.3382 351.308 48.3883 351.138C62.6929 300.092 72.2935 247.431 76.9205 194.62C76.9359 194.447 77.0823 194.319 77.2672 194.331C77.4406 194.346 77.5716 194.5 77.5562 194.674C72.9254 247.523 63.317 300.223 49.0047 351.308C48.9662 351.447 48.8391 351.539 48.6965 351.539L48.6927 351.543Z" fill="#D19A80"/>
<path d="M91.9494 369.442C91.9494 369.442 91.9301 369.442 91.9224 369.442C91.749 369.427 91.6181 369.276 91.6296 369.099C96.6688 306.437 98.4371 242.793 96.8807 179.938C96.8768 179.761 97.0155 179.618 97.1889 179.61H97.1966C97.37 179.61 97.5087 179.749 97.5164 179.922C99.0728 242.8 97.3045 306.464 92.2614 369.149C92.2499 369.315 92.1074 369.442 91.9456 369.442H91.9494Z" fill="#D19A80"/>
<path d="M77.7449 374.423C77.7449 374.423 77.7102 374.423 77.6948 374.423C77.5215 374.396 77.402 374.235 77.429 374.061C85.87 319.609 91.7837 265.091 94.5306 216.402C94.5421 216.229 94.6769 216.09 94.8657 216.102C95.0391 216.113 95.1739 216.264 95.1662 216.437C92.4194 265.145 86.5018 319.682 78.0569 374.158C78.0338 374.315 77.899 374.427 77.7449 374.427V374.423Z" fill="#D19A80"/>
<path d="M86.783 154.152C86.7329 154.152 86.6867 154.141 86.6405 154.118C86.4825 154.037 86.4209 153.848 86.5018 153.69C91.383 144.036 95.825 134.023 99.7123 123.925C99.7739 123.759 99.9588 123.679 100.124 123.744C100.29 123.806 100.371 123.991 100.306 124.156C96.4106 134.273 91.957 144.305 87.0681 153.979C87.0103 154.091 86.8986 154.152 86.783 154.152Z" fill="#D19A80"/>
<path d="M119.172 89.7566C119.056 91.0665 118.913 92.3648 118.779 93.6515C118.393 97.3654 117.866 101.06 117.184 104.728C116.482 108.53 115.616 111.666 114.595 115.399C114.818 117.283 115.018 119.163 115.192 121.055C115.396 123.22 115.569 125.393 115.72 127.562C115.72 127.631 115.727 127.704 115.731 127.766C116.378 137.109 116.606 146.47 116.81 155.824C116.822 156.275 116.829 156.718 116.841 157.169C116.852 157.947 116.301 158.359 115.704 158.402C115.693 158.402 115.677 158.409 115.673 158.402C115.623 158.409 115.569 158.409 115.519 158.402C108.33 158.452 101.141 158.371 93.9449 158.144C93.5481 158.132 93.2514 157.978 93.0395 157.747C92.7776 157.535 92.6042 157.215 92.6081 156.772C92.7236 148.882 92.8315 140.992 92.8854 133.102C92.924 126.117 92.924 119.14 92.8353 112.163C92.766 106.161 92.6697 100.162 92.269 94.1716C92.2575 93.8711 92.2305 93.5629 92.2112 93.2586C91.6064 84.6635 90.2888 75.9759 87.2761 67.9163C86.7945 66.6257 86.2667 65.3544 85.6888 64.0946C85.6503 63.9906 85.6002 63.8904 85.554 63.7941C84.9376 62.4495 84.2557 61.1281 83.516 59.8298C86.2282 59.04 88.9211 58.177 91.5525 57.1445C95.0044 58.8281 98.4524 60.5194 101.904 62.203C102.455 62.4726 102.648 63.1931 102.455 63.7517C107.267 66.5911 111.752 70.6208 115.793 74.4888C118.178 76.4344 119.172 79.6359 119.364 82.61C119.518 84.9678 119.383 87.3757 119.164 89.7604L119.172 89.7566Z" fill="#612F4F"/>
<path d="M88.9212 67.1573C91.5102 75.895 92.6466 85.0564 92.2691 94.1677C92.2575 93.8672 92.2306 93.559 92.2113 93.2547C91.6064 84.6596 90.2889 75.972 87.2762 67.9124C86.7946 66.6218 86.2668 65.3505 85.6889 64.0907C85.6504 63.9867 85.6003 63.8865 85.5541 63.7902C85.7082 63.744 85.8546 63.7016 86.0087 63.6554C86.8254 63.3934 87.2954 63.1815 88.0852 62.7307C88.4319 62.5381 88.771 62.3185 89.0946 62.0951C89.4529 61.8446 89.5492 61.7676 89.8844 61.4787C90.2003 61.209 90.4931 60.92 90.7781 60.6234C90.9207 60.4693 91.0556 60.3152 91.1904 60.1611C91.2482 60.0917 91.306 60.0185 91.3637 59.9492C91.383 59.9299 91.4292 59.8721 91.4601 59.8336C91.4678 59.8259 91.4716 59.822 91.4716 59.8143C91.8299 59.352 92.6043 58.3427 93.213 58.3427C93.2785 58.3427 93.3401 58.3503 93.3979 58.3735C93.8024 60.8275 93.1398 63.3934 91.4369 65.2156C90.7126 65.9861 89.8497 66.6372 88.9174 67.1573H88.9212Z" fill="#331029"/>
<path d="M116.941 157.824C116.768 157.824 116.625 157.685 116.621 157.512C116.247 131.045 115.053 103.048 105.125 77.3126C105.063 77.147 105.144 76.9659 105.306 76.9004C105.468 76.8388 105.653 76.9197 105.718 77.0815C115.685 102.917 116.883 130.979 117.257 157.504C117.257 157.681 117.118 157.824 116.945 157.828H116.941V157.824Z" fill="#331029"/>
<path d="M114.448 115.234C114.421 115.234 114.391 115.234 114.364 115.222C114.194 115.176 114.094 114.999 114.144 114.829C116.964 104.747 118.44 96.6141 119.071 87.6376C119.083 87.4604 119.249 87.3294 119.411 87.3409C119.584 87.3525 119.719 87.5066 119.707 87.6799C119.068 96.7027 117.588 104.87 114.757 114.999C114.718 115.137 114.591 115.23 114.448 115.23V115.234Z" fill="#331029"/>
<path d="M95.0429 124.229C95.0237 124.229 95.0005 124.229 94.9813 124.222C94.8079 124.187 94.6962 124.021 94.7309 123.848C96.9576 112.633 98.7799 101.199 100.144 89.8566C100.818 84.2357 101.211 78.0061 101.276 71.8497C101.276 71.5569 101.149 71.2795 100.93 71.0984C98.098 68.8138 94.7154 67.2574 91.1479 66.5986C90.9823 66.5678 90.8706 66.4137 90.8899 66.248C90.9091 66.0824 91.0517 65.9514 91.2212 65.9668C95.5669 66.1902 98.1481 66.4561 101.072 66.98C101.157 66.9954 101.238 66.9453 101.253 66.8644C101.384 66.1864 101.631 64.9304 101.77 64.3063C101.808 64.1329 101.978 64.0251 102.147 64.0636C102.32 64.1021 102.428 64.2716 102.39 64.4411C102.255 65.0614 102.008 66.3135 101.877 66.9839C101.796 67.4038 101.388 67.6812 100.96 67.6041C98.8416 67.2266 96.9653 66.9877 94.4381 66.8028C96.9307 67.6542 99.273 68.9409 101.334 70.6053C101.704 70.9058 101.924 71.3719 101.916 71.8573C101.85 78.0407 101.457 84.2896 100.776 89.9336C99.4079 101.291 97.5856 112.745 95.355 123.975C95.3242 124.125 95.1932 124.233 95.0429 124.233V124.229Z" fill="#331029"/>
<path d="M63.8333 117.903C63.71 117.934 63.5752 117.95 63.4365 117.934C63.4095 120.427 63.371 122.912 63.3132 125.408C63.2246 129.091 63.0936 132.767 62.9279 136.442C62.7623 140.175 62.5542 143.901 62.3038 147.622C62.1035 150.712 61.8801 153.802 61.6219 156.895C61.6219 156.972 61.6142 157.057 61.6027 157.134C61.6027 157.173 61.595 157.211 61.595 157.25C61.5372 157.943 60.6896 158.367 60.0771 158.24C60.0077 158.228 59.9422 158.209 59.8844 158.182L38.1867 158.24L29.5377 158.267C29.2565 158.267 27.3263 156.784 25.35 154.83C23.8205 153.312 22.2602 151.521 21.4049 149.911C19.3168 145.973 17.6063 141.782 16.0576 137.602C14.4818 133.368 13.1488 129.045 12.047 124.661C8.74921 111.539 6.69962 98.0357 10.6331 84.8329C11.6425 81.4465 13.0679 78.1525 15.1753 75.3247C17.1863 72.6279 19.7175 70.4628 22.4798 68.6097C25.0802 66.8684 29.0061 64.4258 32.3886 62.3647C32.3809 62.3184 32.377 62.2683 32.3693 62.2221C32.3193 61.7791 32.6583 61.3284 33.0127 61.1088C34.5152 60.1764 36.6303 59.0091 38.9572 57.9265C39.3309 57.7609 39.7085 57.5913 40.0899 57.4257C43.2182 56.0619 46.5969 54.96 49.3245 54.856C49.9332 54.829 50.5072 54.856 51.0389 54.9408C51.089 54.9485 51.1429 54.96 51.193 54.96C52.3449 55.1218 53.0114 54.9138 53.5816 55.0756C53.6009 55.0833 53.6201 55.0871 53.6394 55.0949C53.6856 55.1064 53.7242 55.1257 53.7627 55.1411C53.832 55.1719 53.9052 55.2104 53.9745 55.249C53.9861 55.2567 53.9938 55.2605 54.0054 55.2682C54.2558 55.4416 54.4985 55.7113 54.7875 56.1543C55.1535 56.7129 55.4501 57.3101 55.6928 57.9265C55.7814 58.1577 55.8739 58.3965 55.9509 58.6315C56.3477 59.8066 56.5866 61.0394 56.7792 62.2491C57.176 64.7032 57.5112 67.165 57.8734 69.6191C58.6323 74.8124 59.3951 80.0018 60.1541 85.1874C61.6836 95.5701 63.2053 105.945 64.7271 116.332C64.8311 117.017 64.5653 117.707 63.8295 117.911L63.8333 117.903Z" fill="#612F4F"/>
<path d="M62.9239 136.442C62.7582 140.175 62.5502 143.901 62.2998 147.622C60.5699 148.2 58.6706 148.308 56.8522 147.884C53.5159 147.102 50.0948 143.958 46.508 145.226C45.5179 145.573 45.0787 144.636 45.1866 143.719C45.3407 142.433 45.5025 139.932 45.8107 138.942C45.9186 138.596 45.9224 138.962 46.1728 138.453C47.109 136.538 49.4899 136.057 51.5048 135.93C54.3711 135.745 57.2682 135.775 60.1346 135.949C61.0977 136.007 62.0763 136.134 62.9239 136.442Z" fill="#331029"/>
<path d="M55.9547 57.4951C55.87 57.6377 55.7891 57.7763 55.6966 57.9189C55.2227 58.7202 54.7412 59.5331 54.2442 60.3345C53.8859 60.9432 53.6856 61.5287 52.5529 61.7098C51.8402 61.8177 51.0889 61.8639 50.3608 61.8909C45.6067 62.0257 41.2302 60.3999 38.9572 57.9189C39.3309 57.7532 39.7084 57.5837 40.0898 57.418C43.2181 56.0542 46.5968 54.9524 49.3244 54.8484C49.6981 54.8484 50.0565 54.8753 50.4032 54.9061C50.6921 54.9331 50.9541 54.9524 51.1929 54.9524C52.3102 54.9986 52.9613 54.8676 53.5816 55.068C53.6008 55.0757 53.62 55.0795 53.6393 55.0872C53.6855 55.0988 53.7241 55.1181 53.7626 55.1335C53.832 55.1643 53.9051 55.2028 53.9745 55.2413C53.986 55.249 53.9938 55.2529 54.0053 55.2606C54.2057 55.3762 54.4099 55.538 54.6333 55.7537C55.2035 56.2931 55.6234 56.8864 55.9509 57.4951H55.9547Z" fill="#331029"/>
<path d="M41.5037 117.672C41.0607 121.194 40.5868 124.707 40.2902 128.24C39.5775 136.816 38.7106 150.072 38.1905 158.232L29.5415 158.259C29.2603 158.259 27.3301 156.776 25.3538 154.823C25.8931 152.611 26.4286 150.404 26.968 148.192L30.6741 132.971C31.3021 130.374 31.9339 127.785 32.5619 125.196C33.1668 122.704 33.6946 120.173 34.3996 117.699C34.912 115.9 36.1333 113.743 38.3177 113.939C39.8163 114.074 41.1878 115.345 41.1377 116.786C41.3882 117.017 41.5422 117.333 41.5037 117.672Z" fill="#331029"/>
<path d="M52.6761 94.3835C52.549 94.3835 52.4296 94.3064 52.3795 94.1832C49.8445 87.7301 47.8527 80.8108 46.0266 74.2769C45.9418 73.9725 46.0767 73.6528 46.3541 73.4948C48.0685 72.5201 49.6172 71.2257 51.112 69.962C49.232 70.4397 47.2594 70.8211 45.5142 71.1332C45.0673 71.2141 44.605 71.0638 44.2814 70.7287C41.3265 67.6466 37.682 65.1502 33.7408 63.5128C33.579 63.4435 33.5019 63.2585 33.5674 63.0967C33.6329 62.9349 33.8217 62.8579 33.9835 62.9234C38.0017 64.5954 41.7233 67.1419 44.7399 70.2856C44.9132 70.4667 45.1636 70.5514 45.3986 70.5052C47.5676 70.1122 50.0911 69.623 52.3333 68.9642C52.4758 68.9218 52.6338 68.9873 52.7031 69.1183C52.7725 69.2531 52.7416 69.4149 52.6261 69.5112C52.2909 69.7925 51.9557 70.0737 51.6244 70.355C50.0757 71.6649 48.4768 73.0171 46.67 74.0419C48.4614 80.6144 50.4494 87.5182 52.9767 93.9404C53.0421 94.1061 52.9613 94.2872 52.7956 94.3526C52.7571 94.3681 52.7185 94.3758 52.68 94.3758L52.6761 94.3835Z" fill="#331029"/>
<path d="M61.4369 228.264C61.3021 229.971 61.1711 231.682 61.044 233.388C60.8321 236.201 60.5662 239.009 60.3813 241.822C59.9691 248.213 58.1969 256.103 50.3299 255.891H10.6985C10.6407 255.899 10.583 255.899 10.5252 255.899C10.4597 255.899 10.398 255.891 10.3326 255.887C7.18885 255.702 4.54981 253.248 3.37478 250.028C2.42319 247.431 2.38468 244.773 2.8624 242.157H2.36926C1.47161 242.157 0.631773 241.097 1.09023 239.579C1.96476 236.659 2.847 234.675 4.07212 231.878C6.22956 226.966 8.23288 221.946 11.13 217.404C13.5571 213.594 16.2963 210.119 21.139 209.999C23.0075 209.953 24.8837 209.999 26.7522 209.999H53.9745C54.0246 209.999 54.0785 209.999 54.1209 210.007C57.3147 210.096 60.0654 212.827 61.1056 215.821C62.0572 218.544 61.9609 221.503 61.7451 224.339C61.645 225.649 61.5448 226.958 61.4408 228.264H61.4369Z" fill="#59222C"/>
<path d="M35.8133 230.191C34.5959 228.28 32.6234 226.511 30.2155 226.588C28.0041 226.662 25.7427 228.176 25.5693 230.487C25.4614 230.726 25.4499 231.015 25.6002 231.312C26.6866 233.469 28.3855 235.307 30.4428 236.578C32.2998 237.726 35.3779 238.909 36.9267 236.636C38.2481 234.694 36.9151 231.909 35.8171 230.187L35.8133 230.191Z" fill="#0E091F"/>
<path d="M27.5802 244.017C27.3876 245.682 27.014 247.354 25.889 248.644C24.8873 249.796 23.2808 250.532 21.759 250.108C20.765 249.831 19.9483 249.153 19.5284 248.259C18.6423 248.105 17.787 247.766 17.0435 247.211C16.0302 246.46 15.2443 245.431 14.7936 244.268C12.4435 242.114 11.203 238.108 10.4749 235.422C9.09949 230.352 8.88757 225.032 9.77366 219.862C9.94703 218.845 11.2646 219.033 11.5805 219.831C14.547 218.116 18.2031 216.707 21.2505 218.933C23.8394 220.817 24.9759 224.331 25.889 227.255C27.0332 230.884 27.6612 234.683 27.7844 238.485C27.8422 240.331 27.7844 242.191 27.5802 244.025V244.017Z" fill="#0E091F"/>
<path d="M34.9118 242.835H4.4996C4.32238 242.835 4.17981 242.692 4.17981 242.515C4.17981 242.338 4.32238 242.195 4.4996 242.195H34.9118C36.8959 242.195 38.6565 241.005 39.3962 239.167L48.3419 216.938C49.7018 213.563 52.9303 211.382 56.5671 211.382C56.7444 211.382 56.8869 211.525 56.8869 211.702C56.8869 211.879 56.7444 212.022 56.5671 212.022C53.1884 212.022 50.1911 214.048 48.9313 217.18L39.9857 239.41C39.1496 241.494 37.154 242.839 34.9118 242.839V242.835Z" fill="#0E091F"/>
<path d="M42.2933 247.258H3.89079C3.71357 247.258 3.57104 247.115 3.57104 246.938C3.57104 246.761 3.71357 246.618 3.89079 246.618H42.2933C42.4705 246.618 42.613 246.761 42.613 246.938C42.613 247.115 42.4705 247.258 42.2933 247.258Z" fill="#0E091F"/>
<path d="M51.212 255.09C51.1735 255.09 51.1311 255.082 51.0926 255.067C48.6809 254.084 46.481 252.651 44.5548 250.798C42.3126 248.64 41.3687 246.367 41.5844 243.644C41.9158 239.46 43.4568 234.925 44.8168 230.922C45.0363 230.275 45.2521 229.64 45.4601 229.015C47.1321 223.988 49.9676 217.369 49.9946 217.304C50.0639 217.142 50.2527 217.069 50.4145 217.138C50.5763 217.207 50.6495 217.396 50.5802 217.558C50.5532 217.623 47.7293 224.219 46.065 229.22C45.8569 229.844 45.6412 230.483 45.4216 231.131C44.0732 235.095 42.5475 239.591 42.2201 243.698C42.0197 246.217 42.902 248.328 44.9978 250.34C46.8663 252.135 48.9968 253.526 51.3353 254.477C51.4971 254.543 51.578 254.728 51.5087 254.893C51.4586 255.016 51.3392 255.09 51.2159 255.09H51.212Z" fill="#0E091F"/>
<path d="M59.3913 217.978C59.3027 219.561 58.7826 221.187 58.1508 222.636C57.8618 223.302 57.542 224.046 57.0258 224.562C56.3785 225.205 55.4385 225.425 54.6487 224.905C52.8419 223.707 53.8397 220.721 54.3983 219.122C54.9685 217.485 56.0704 213.528 58.4898 215.474C59.2487 216.082 59.4375 217.061 59.3913 217.978Z" fill="#0E091F"/>
<path d="M55.3421 222.917C55.2149 222.917 55.084 222.89 54.9568 222.836C54.4675 222.624 54.2441 222.054 54.4598 221.569C54.5292 221.414 61.4484 205.28 80.3607 141.774C98.7413 80.0519 85.6734 60.4577 85.5386 60.2651C85.2342 59.8297 85.3382 59.2287 85.7736 58.9205C86.2089 58.6123 86.8099 58.7202 87.1181 59.1555C87.6883 59.9646 100.853 79.7129 82.2099 142.321C63.2437 206.008 56.2975 222.181 56.2282 222.335C56.0702 222.697 55.7158 222.913 55.3459 222.913L55.3421 222.917Z" fill="#0E091F"/>
<path d="M89.2255 40.7556L89.2179 40.7633C87.4264 43.3792 85.2035 45.4673 82.8187 47.1316C74.2352 53.1185 63.5674 53.5885 63.5674 53.5885L46.6161 50.3832L63.4133 2.07185L77.4983 0.684937L80.2337 2.07185C83.4159 4.12142 97.4546 28.697 89.2217 40.7556H89.2255Z" fill="#6784BA"/>
<path d="M89.2258 40.7555L89.2181 40.7632C87.4267 43.3791 85.2037 45.4672 82.819 47.1315C81.7518 47.3627 80.6461 47.4782 79.5173 47.459C78.1304 47.432 77.9108 45.629 78.8547 45.0627C78.5734 44.8392 78.3847 44.5041 78.3847 44.0918C78.3847 43.4446 78.9741 42.7473 79.6714 42.8051C82.9923 43.0825 86.3479 42.3736 89.2258 40.7555Z" fill="#331029"/>
<path d="M76.1423 39.4611V59.1593C76.1423 60.5925 74.216 60.7774 73.6998 59.7372C71.708 61.101 69.5352 62.1643 67.2121 62.8732C65.7134 63.3355 64.1724 63.6244 62.6121 63.7785C61.2637 63.9134 59.8613 63.8672 58.7942 62.9811C58.2163 62.9117 57.6885 62.4995 57.6885 61.7482V31.3707C57.6885 29.8027 59.9769 29.7179 60.2312 31.1087C66.0139 31.9486 72.336 33.216 75.7532 38.4864C75.784 38.5364 75.8033 38.5827 75.8303 38.6328C76.0152 38.8331 76.1385 39.1066 76.1385 39.4611H76.1423Z" fill="#B5513A"/>
<path d="M76.1423 39.4957V52.6215C75.4797 53.4112 74.7785 54.1779 74.0273 54.8945C73.5341 55.3761 72.9216 55.3298 72.4708 55.0409C72.074 55.1102 71.6425 54.9754 71.3073 54.6942C66.9886 51.0381 63.3479 46.5999 60.5779 41.6647C60.2196 41.0175 60.4623 40.3972 60.9131 40.0467C61.0864 39.6306 61.464 39.2954 62.038 39.2684C65.3782 39.1066 68.7261 39.0874 72.0663 39.2376C73.4301 39.2954 74.7824 39.3801 76.1385 39.4957H76.1423Z" fill="#632718"/>
<path d="M89.8343 64.0444C87.0066 65.4583 83.859 66.1402 80.7346 66.4022C78.5771 66.5833 76.4235 66.5255 74.2854 66.3136C70.6408 65.9591 67.0309 65.1424 63.4634 64.264C63.2246 64.2062 62.9819 64.1408 62.743 64.083C62.6775 64.1485 62.6082 64.1985 62.5234 64.2563C61.9571 64.5915 61.0594 64.422 60.7628 63.7747C60.6665 63.5628 60.5779 63.351 60.4854 63.1314C60.4469 63.0736 60.4199 63.0081 60.4007 62.9464C58.956 59.6833 57.7077 56.3354 56.6868 52.9105C56.3478 51.7393 57.5035 51.0535 58.3781 51.3502C61.2097 51.3386 63.9951 50.7993 66.6842 49.8785C69.0689 49.0579 71.3497 47.9368 73.5148 46.6192C75.6299 45.3324 78.1225 44.0611 80.6729 44.2923C84.0516 44.6005 85.6967 46.2147 88.2162 50.857C88.7363 51.8125 89.1023 52.9182 89.1755 54.0316C90.8398 54.2358 92.3424 54.987 93.2092 56.7476C94.7117 59.7681 92.4002 62.7615 89.8305 64.0406L89.8343 64.0444Z" fill="#6784BA"/>
<path d="M74.2854 66.3138C70.6408 65.9593 67.0309 65.1426 63.4635 64.2642C62.3847 63.2047 61.4216 62.049 60.5779 60.8123C60.0385 60.0225 60.7012 59.1287 61.5102 58.9091C60.5895 57.8034 59.7226 56.6592 58.929 55.4765C57.9774 54.0549 60.42 52.7719 61.3715 54.1781C64.6424 59.0401 69.069 63.1855 74.2854 66.3099V66.3138Z" fill="#331029"/>
<path d="M81.1043 56.1853C78.2456 56.1853 75.4179 55.7229 72.8289 55.1951C69.9896 54.6134 66.6879 53.8082 63.7638 52.2325C63.6097 52.1478 63.5519 51.9551 63.6328 51.801C63.7176 51.6469 63.9064 51.5892 64.0643 51.6701C66.9191 53.2072 70.1591 53.997 72.9561 54.5672C77.5599 55.5072 82.9265 56.2315 87.7923 54.4632C87.958 54.4015 88.1391 54.4902 88.2007 54.652C88.2624 54.8176 88.1776 54.9987 88.0119 55.0603C85.7659 55.8771 83.4235 56.1814 81.1043 56.1814V56.1853Z" fill="#314C7A"/>
<path d="M84.3982 29.6948C84.2942 33.0542 83.8704 34.9959 83.0922 38.2591C82.1984 42.0038 80.7344 45.6676 76.1729 46.0721C70.8525 46.546 62.5888 45.9758 58.8133 41.6647C57.7846 40.4897 57.0334 39.3147 56.4824 38.132C56.2898 37.7274 56.1242 37.3152 55.9816 36.9107C55.0108 34.1946 54.9915 31.4554 55.1032 28.7009C55.1148 28.4774 55.1726 28.2848 55.2651 28.1153C55.0455 25.326 55.1957 22.5521 55.7967 19.9285C56.1049 18.584 56.5287 17.2895 57.0835 16.049C57.9233 14.1651 59.0637 12.4314 60.5392 10.8942C61.2635 10.1353 62.0764 9.43024 62.9741 8.77915C63.3208 8.52874 63.6752 8.28602 64.0528 8.05487C64.0643 8.04716 64.0797 8.03563 64.099 8.02792C64.1259 8.00866 64.1568 7.98938 64.1876 7.97012C64.2146 7.95856 64.2377 7.9393 64.2647 7.92389C64.5536 7.75053 64.8502 7.58487 65.1507 7.44232C65.7941 7.12256 66.4606 6.86442 67.1502 6.66024C67.3352 6.60245 67.5239 6.55236 67.7088 6.50612C73.01 5.18084 79.1086 7.18804 81.4895 12.4352C82.8456 15.4171 82.9612 18.6803 82.7763 21.9049C84.2749 23.7811 84.4791 27.3332 84.4021 29.6909L84.3982 29.6948Z" fill="#B5513A"/>
<path d="M70.3131 9.71918C69.0996 9.94263 67.9091 10.2662 66.7456 10.6823C66.4683 10.7863 66.1948 10.8942 65.9097 11.0021C65.8519 11.029 65.8211 11.0406 65.8056 11.0483C65.7479 11.0753 65.69 11.0945 65.6322 11.1177C65.5167 11.1677 65.4011 11.2255 65.2856 11.2794C65.2201 11.3064 65.1584 11.3372 65.0929 11.368C64.2839 12.7819 63.5133 14.2151 62.7929 15.6714C59.4912 22.3672 57.1951 29.5445 55.9777 36.9068C55.0069 34.1907 54.9876 31.4516 55.0993 28.697C55.1109 28.4735 55.1687 28.2809 55.2611 28.1114C55.0416 25.3221 55.1918 22.5483 55.7928 19.9246C56.101 18.5801 56.5248 17.2856 57.0796 16.0451C58.1082 14.2536 59.264 12.5238 60.5353 10.8903C61.0939 10.166 61.6718 9.46488 62.2767 8.77527C62.4038 8.62117 62.5387 8.4748 62.6735 8.32455C62.9509 8.01634 63.2629 7.90075 63.5673 7.92001C63.7329 7.92771 63.8947 7.97007 64.0488 8.04713C64.0565 8.05483 64.0604 8.05484 64.0681 8.0587C64.0758 8.04714 64.0797 8.03174 64.0951 8.02018C64.2107 7.82755 64.334 7.62721 64.4534 7.43458C64.6152 7.17646 64.7731 6.92605 64.935 6.67178C65.4666 5.84347 66.476 5.97063 67.0115 6.49843C67.0577 6.54851 67.1001 6.60241 67.1463 6.6525C67.3698 6.97226 67.4468 7.38449 67.2426 7.81598C68.0247 7.57712 68.8222 7.38063 69.6312 7.23038C70.3362 7.09554 70.9796 7.41534 71.2108 8.12806C71.4111 8.74447 70.9719 9.58047 70.3131 9.70761V9.71918Z" fill="#632718"/>
<path d="M58.2161 24.9254C57.8886 23.8698 57.33 22.9105 56.3746 22.2324C54.0708 20.5951 50.6998 21.4504 49.1896 23.5423C46.9936 26.5859 48.6463 31.3939 51.1621 33.9366C52.1098 34.892 53.6007 35.5238 55.0609 35.2927C55.3151 35.2542 55.5424 35.1886 55.7582 35.1116C56.5171 31.702 57.1528 28.254 58.2161 24.9254Z" fill="#632718"/>
<path d="M72.9793 31.0779C72.8946 31.0779 72.8098 31.0433 72.7482 30.9778C72.6288 30.8506 72.6364 30.6465 72.7636 30.5271C72.9408 30.3614 73.1141 30.2034 73.2836 30.0493C74.6051 28.8473 75.4758 28.0537 75.0019 26.347C74.7322 25.3723 74.424 24.309 74.1158 23.2457C73.8076 22.1785 73.4994 21.1113 73.2259 20.1366C73.1797 19.9671 73.2798 19.7899 73.4455 19.7437C73.6188 19.6975 73.7922 19.7976 73.8384 19.9671C74.1081 20.9418 74.4163 22.0051 74.7246 23.0684C75.0328 24.1356 75.3409 25.2028 75.6145 26.1775C76.1924 28.2617 75.0443 29.3096 73.7113 30.5193C73.5457 30.6696 73.3723 30.8275 73.195 30.9932C73.1334 31.051 73.0564 31.0779 72.9793 31.0779Z" fill="#632718"/>
<path d="M72.3591 33.4627C70.9221 33.4627 69.4851 33.2623 68.1058 32.8578C67.9363 32.8077 67.84 32.6305 67.8901 32.461C67.9402 32.2914 68.1135 32.1952 68.283 32.2452C71.1262 33.0774 74.2353 33.0119 77.0361 32.0565C77.2018 31.9987 77.3828 32.0873 77.4406 32.2568C77.4984 32.4225 77.4098 32.6035 77.2403 32.6613C75.6723 33.193 74.0118 33.4627 72.3552 33.4627H72.3591Z" fill="#632718"/>
<path d="M75.2446 22.0744C75.1599 22.0744 75.0751 22.0397 75.0135 21.9742C74.894 21.8471 74.8979 21.6468 75.0289 21.5235C75.7917 20.8069 76.8319 20.3754 77.8836 20.3408C78.92 20.3061 79.9987 20.6721 80.8077 21.3386C80.9426 21.4503 80.9618 21.6506 80.8501 21.7855C80.7384 21.9203 80.5381 21.9396 80.4032 21.8278C79.7136 21.2577 78.8005 20.9572 77.9067 20.9764C77.0091 21.0073 76.123 21.3733 75.4681 21.9858C75.4064 22.0436 75.3294 22.0706 75.2485 22.0706L75.2446 22.0744Z" fill="#0E091F"/>
<path d="M62.4502 22.0089C62.3616 22.0089 62.2768 21.9743 62.2152 21.9049C62.0996 21.7739 62.1073 21.5736 62.2383 21.4541C63.213 20.5796 64.4805 20.0633 65.7095 20.0364C67.0271 20.0133 68.3331 20.5449 69.1845 21.4696C69.3039 21.6005 69.2962 21.8009 69.1652 21.9203C69.0342 22.0397 68.8339 22.032 68.7145 21.901C67.9825 21.1074 66.8537 20.6489 65.721 20.6721C64.6384 20.6952 63.5212 21.1536 62.6582 21.928C62.5966 21.9819 62.5234 22.0089 62.4463 22.0089H62.4502Z" fill="#0E091F"/>
<path d="M67.9286 21.2924C67.9094 21.2115 67.8785 21.1345 67.84 21.0574C67.3738 20.1675 66.0871 20.1829 65.359 20.7762C64.442 21.5236 63.6022 23.5346 65.4861 23.7658C66.769 23.9237 68.2176 22.4289 67.9286 21.2924Z" fill="#0E091F"/>
<path d="M79.4401 21.6853C79.4401 21.5967 79.4362 21.5043 79.417 21.4157C79.2282 20.3678 78.0955 20.1289 77.3096 20.622C76.3233 21.2423 75.0982 23.2341 76.6932 23.8582C77.7796 24.282 79.4131 22.9682 79.4362 21.6892L79.4401 21.6853Z" fill="#0E091F"/>
<path d="M67.2274 14.3616C65.8366 14.038 64.0722 14.3347 63.2015 14.9588C62.1728 15.6946 61.6912 17.5978 63.1783 18.2258C64.0991 18.6149 65.5284 18.3259 66.5185 18.3799C67.6473 18.4415 69.0689 18.0678 69.1614 16.7233C69.2384 15.606 68.2676 14.6043 67.2274 14.3616Z" fill="#0E091F"/>
<path d="M81.5474 16.9236C81.2662 18.6919 78.7775 18.1834 77.5562 18.299C76.2579 18.4146 74.9095 17.3474 75.4681 15.8641C75.9496 14.5928 77.5485 14.2075 78.7312 14.2653C79.1434 14.2846 79.5981 14.4001 80.0218 14.6005C80.9465 15.032 81.7247 15.8487 81.5436 16.9274L81.5474 16.9236Z" fill="#0E091F"/>
<path d="M81.5474 12.235C80.5843 11.6648 79.5094 11.2063 78.3998 10.8673C71.2687 8.70217 64.0297 10.2278 57.6923 14.0264C58.2894 12.9939 58.979 12.0038 59.7419 11.0638C62.3423 7.84691 65.8405 5.24257 69.9203 3.50891C70.0089 3.54744 70.1053 3.58211 70.217 3.60908C73.9386 4.55682 77.1169 6.5139 79.3591 9.02963C80.2452 10.0197 80.9772 11.0984 81.5513 12.235H81.5474Z" fill="#59222C"/>
<path d="M80.0989 1.96788C77.6679 0.353646 74.7169 -0.282051 71.8236 0.114764C71.4691 0.164847 71.1186 0.211073 70.7641 0.253451C68.5104 0.534689 66.2528 0.823623 64.0106 1.1588C59.8844 1.7675 55.5233 2.32231 51.7208 4.12916C48.2766 5.76266 45.8148 8.74068 44.3431 12.2041C42.7289 15.9758 42.3514 20.0672 42.1896 24.1278C41.315 26.8786 40.9028 29.7372 40.9491 32.6228C38.9303 36.9261 36.9424 41.5415 36.0678 46.2108C35.1085 51.3463 36.7305 57.7493 42.6056 58.7278C46.0498 59.298 49.2822 58.0074 52.3604 56.6012C52.9883 56.3123 53.1424 55.3992 52.815 54.8406C52.4374 54.1934 51.69 54.0893 51.0621 54.3783C50.7346 54.5324 50.3994 54.6788 50.0719 54.8213C50.0719 54.8098 50.0796 54.7944 50.0796 54.7751C51.3471 44.951 53.7434 35.2695 57.1491 25.9732C58.7171 21.7123 60.4199 17.4359 62.6891 13.4909C64.7772 9.87333 67.4701 6.45997 71.1185 4.31408C72.7906 3.33553 74.6668 2.59969 76.5931 2.24525C77.7989 2.0218 79.024 1.95246 80.2337 2.06419C80.2106 2.04493 80.1644 2.01025 80.0989 1.96788Z" fill="#6784BA"/>
<path d="M75.2562 134.076C75.2562 135.544 75.2408 137.004 75.2138 138.468C75.1792 140.345 74.1737 142.074 72.5363 143.053L72.5055 143.072V143.08C72.0239 143.377 71.5038 143.635 70.9645 143.843C68.3832 144.837 65.4206 144.59 62.9665 143.377C60.8129 144.779 58.3396 145.573 55.5657 145.126C53.1039 144.721 51.4088 142.961 49.1589 142.113C48.2458 141.766 47.2827 141.624 46.3388 141.666C45.8649 141.685 45.3949 141.747 44.9365 141.859C44.6321 141.932 44.3509 141.685 44.3817 141.381C44.4511 140.707 44.5166 140.029 44.5782 139.355C45.0289 134.743 45.4373 130.124 45.8187 125.501C46.8743 112.533 47.6564 99.5343 48.1572 86.5126C48.6388 74.0996 48.8699 61.6712 48.8391 49.2389C48.8468 48.6418 48.8391 48.0369 48.8391 47.4398C48.8391 47.2703 48.8584 47.1123 48.9046 46.9813C49.0896 46.3264 49.6867 46.1068 50.1721 46.3071C52.2987 45.4596 54.7798 45.7023 56.8717 46.7733C59.268 47.9984 60.863 50.2907 61.934 52.5676C63.2208 55.299 64.1762 58.1731 64.9621 61.0625C65.2819 62.2568 65.5708 63.4588 65.8212 64.6685C67.1003 69.2415 68.2445 73.8492 69.2578 78.4877C71.7619 89.9067 73.484 101.499 74.4241 113.138C74.9904 120.103 75.2639 127.088 75.2601 134.076H75.2562Z" fill="#6784BA"/>
<path d="M78.7467 1.74828C77.6988 1.69434 76.6432 1.79453 75.6145 2.00642C74.5012 2.23372 73.5034 2.55731 72.4978 3.08897C72.4632 3.10823 72.4246 3.1275 72.3899 3.14677L72.0625 3.32783C71.9161 3.40873 71.8583 3.62062 71.9469 3.76317C72.0432 3.90957 72.2281 3.96352 72.3822 3.87876C72.6249 3.74392 72.8638 3.60522 73.1142 3.48579C74.7631 2.70372 76.8512 2.29151 78.712 2.38782C78.9085 2.39553 79.0356 2.26067 79.0472 2.08731C79.0549 1.91009 78.9201 1.76369 78.7467 1.75214V1.74828Z" fill="#314C7A"/>
<path d="M81.5474 11.3875C81.428 11.3875 81.3124 11.3181 81.2585 11.2025C79.8908 8.25918 76.7933 4.72638 72.9484 3.46659C72.7828 3.41265 72.6903 3.23157 72.7443 3.06591C72.7982 2.90025 72.9793 2.80777 73.1449 2.86171C77.1709 4.17929 80.4109 7.86233 81.8363 10.9328C81.9095 11.0908 81.8402 11.2796 81.6822 11.3567C81.6399 11.3759 81.5936 11.3875 81.5474 11.3875Z" fill="#314C7A"/>
<path d="M48.5888 57.7262C48.5888 57.7262 48.5695 57.7262 48.558 57.7262C48.3846 57.7107 48.2536 57.5528 48.2729 57.3794C49.0049 49.9016 50.7539 42.5585 53.4661 35.5507C53.5278 35.385 53.7127 35.308 53.8783 35.3696C54.044 35.4313 54.1249 35.6162 54.0595 35.7818C51.3665 42.7357 49.6328 50.0249 48.9047 57.4449C48.8893 57.6106 48.7506 57.7339 48.5888 57.7339V57.7262Z" fill="#314C7A"/>
<path d="M49.3399 52.0821C49.2782 52.0821 49.2166 52.0629 49.1626 52.0282C45.9188 49.863 40.348 41.8381 40.7987 33.5512C40.8103 33.3779 40.949 33.2315 41.1339 33.2507C41.3072 33.2584 41.4421 33.4087 41.4344 33.5859C40.9952 41.6301 46.3772 49.4046 49.5132 51.4965C49.6596 51.5928 49.6981 51.7932 49.6018 51.9396C49.5402 52.032 49.44 52.0821 49.336 52.0821H49.3399Z" fill="#314C7A"/>
<path d="M47.7219 48.9616C47.5909 48.9616 47.4715 48.8807 47.4252 48.7535C44.6514 41.2217 43.0411 33.324 42.6442 25.2798C42.6365 25.1026 42.7713 24.9562 42.9447 24.9446C43.1142 24.9331 43.2684 25.0717 43.2761 25.2451C43.6729 33.2238 45.2678 41.06 48.0186 48.5301C48.0802 48.6958 47.9954 48.8768 47.8298 48.9384C47.7951 48.95 47.7566 48.9577 47.718 48.9577L47.7219 48.9616Z" fill="#314C7A"/>
<path d="M56.9219 47.0507C56.8603 47.0507 56.8025 47.0353 56.7486 46.9968C56.2862 46.6925 55.7854 46.4497 55.2615 46.2802C54.0672 45.8911 52.6687 45.8295 50.8618 46.0914C50.6884 46.1145 50.5267 45.9951 50.4997 45.8218C50.4766 45.6484 50.596 45.4866 50.7693 45.4635C52.6802 45.1899 54.1673 45.2593 55.4579 45.6792C56.0397 45.868 56.5906 46.1338 57.0991 46.4728C57.2455 46.5691 57.2879 46.7656 57.1877 46.912C57.1261 47.0045 57.0259 47.0546 56.9219 47.0546V47.0507Z" fill="#314C7A"/>
<path d="M63.6832 57.4795C63.5484 57.4795 63.4251 57.3947 63.3788 57.2599C62.8009 55.48 62.1422 53.7001 61.4102 51.9703C61.3408 51.8085 61.4179 51.6236 61.5797 51.5542C61.7415 51.4849 61.9264 51.5619 61.9958 51.7237C62.7355 53.4728 63.4058 55.2681 63.9837 57.0672C64.0376 57.2329 63.9452 57.414 63.7795 57.4679C63.7448 57.4795 63.714 57.4833 63.6832 57.4833V57.4795Z" fill="#314C7A"/>
<path d="M62.6929 141.693C62.6929 141.693 62.6737 141.693 62.6621 141.693C62.4888 141.678 62.3578 141.52 62.3732 141.346C65.0122 113.527 66.5147 90.1379 65.2742 66.4292C65.2665 66.2558 65.4013 66.1056 65.5747 66.094C65.7519 66.094 65.9022 66.2211 65.9099 66.3945C67.1504 90.1418 65.6479 113.558 63.0089 141.404C62.9935 141.57 62.8547 141.693 62.6929 141.693Z" fill="#314C7A"/>
<path d="M55.0919 136.962C54.9186 136.962 54.7722 136.82 54.7722 136.642C54.7683 133.707 54.7722 130.802 54.7722 127.924C54.7799 108.584 54.7876 90.3152 53.1271 72.2466C53.1117 72.0732 53.2388 71.9152 53.4161 71.8998C53.5856 71.8806 53.7474 72.0116 53.7628 72.1888C55.4233 90.2843 55.4156 108.569 55.4079 127.924C55.4079 130.802 55.4079 133.707 55.4079 136.642C55.4079 136.82 55.2653 136.962 55.0919 136.962Z" fill="#314C7A"/>
<path d="M6.69189 205.746C8.48719 220.028 34.1376 214.071 34.1107 201.843C34.0722 185.358 6.98469 191.626 6.98469 191.626L6.69189 205.746Z" fill="#331029"/>
<path d="M27.2146 210.215C27.0605 210.246 26.8871 210.242 26.7215 210.207C24.3945 214.954 19.7252 218.521 14.5204 219.465C13.8346 219.588 13.1373 219.319 12.9254 218.59C12.8599 218.379 12.8676 218.14 12.9254 217.909C12.9062 217.839 12.8946 217.762 12.8792 217.685C12.2628 213.305 11.6464 208.928 11.0222 204.544C10.8412 203.257 10.664 201.974 10.4829 200.688C10.0784 197.821 9.67387 194.951 9.26935 192.085C9.23082 191.788 9.34638 191.507 9.53901 191.283C9.48892 190.852 9.64305 190.405 10.1439 190.12C13.0102 188.444 15.9959 186.772 19.3631 186.418C22.1716 186.129 25.1843 186.918 27.1684 188.987C27.8233 189.669 27.5228 190.563 26.9295 190.979C26.9488 191.037 26.9603 191.095 26.9758 191.152C27.1029 193.002 27.2377 194.859 27.3687 196.712C27.5228 198.946 27.6846 201.177 27.8426 203.411C27.9659 205.172 28.0853 206.933 28.2163 208.693C28.2664 209.387 27.9659 210.061 27.2146 210.211V210.215Z" fill="#B5513A"/>
<path d="M27.8464 203.415C25.5387 202.452 23.0615 201.936 20.5265 201.943C17.2172 201.955 13.8963 202.868 11.0222 204.544C10.8412 203.257 10.664 201.974 10.4829 200.687C13.7923 197.991 17.9607 196.388 22.2409 196.195C23.9245 196.118 25.7044 196.253 27.3687 196.708C27.5228 198.942 27.6846 201.173 27.8426 203.407L27.8464 203.415Z" fill="#632718"/>
<path d="M36.9616 228.345C36.01 226.704 35.513 224.82 35.2318 222.971C34.6231 218.933 34.8697 214.769 33.5945 210.827C32.4194 207.21 29.7688 203.87 25.8122 202.799C25.6967 202.764 25.5849 202.756 25.4771 202.752C25.2883 202.652 25.0687 202.594 24.8299 202.575C22.0136 202.344 19.1203 202.776 16.5083 203.82C16.3619 203.877 16.2232 203.954 16.096 204.058C16.0498 204.078 16.0074 204.097 15.9612 204.124C10.2556 207.664 9.12286 214.487 9.56976 220.459C9.79707 223.506 10.2093 226.561 10.7294 229.57C11.1917 232.294 11.8274 235.01 12.9177 237.576C13.9771 240.053 15.4373 242.353 17.4444 244.214C18.2612 245.87 19.7483 247.192 21.5127 247.754C21.559 247.797 21.5975 247.839 21.6438 247.881C22.3141 248.937 23.2156 249.804 24.6257 249.985C25.8777 250.147 26.968 249.553 27.4958 248.66C27.6807 248.656 27.8695 248.633 28.066 248.59C30.0346 248.182 31.0171 246.256 31.0363 244.491C31.0479 243.52 30.7898 242.557 30.5817 241.609C30.3506 240.511 30.1425 239.406 29.9615 238.292C29.6263 236.197 29.3797 234.089 29.2256 231.974C29.1832 231.385 29.1485 230.799 29.1254 230.214C30.0616 232.814 32.6583 236.543 35.7557 236.551C37.7206 236.551 39.2847 235.164 39.3232 233.276C39.3656 231.319 37.8862 229.944 36.9539 228.349L36.9616 228.345Z" fill="#B5513A"/>
<path d="M29.4376 230.11C29.2642 230.11 29.1217 229.971 29.1179 229.794C29.0832 226.893 29.1564 223.953 29.3374 221.056C29.349 220.883 29.48 220.74 29.6765 220.759C29.8498 220.771 29.9847 220.921 29.9731 221.098C29.7959 223.98 29.7227 226.908 29.7535 229.79C29.7535 229.967 29.6148 230.11 29.4376 230.114V230.11Z" fill="#632718"/>
<path d="M26.1668 247.997C26.0281 247.997 25.901 247.905 25.8625 247.766C23.3622 238.994 22.1178 229.867 22.1717 220.644C22.1717 220.471 22.3143 220.328 22.4915 220.328C22.6687 220.328 22.8074 220.471 22.8074 220.648C22.7535 229.809 23.9863 238.874 26.4712 247.593C26.5213 247.762 26.4211 247.939 26.2516 247.986C26.2208 247.993 26.1938 247.997 26.163 247.997H26.1668Z" fill="#632718"/>
<path d="M21.5513 246.113C21.4087 246.113 21.2816 246.017 21.243 245.874C18.9777 236.944 17.7218 228.931 17.402 221.383C17.3943 221.206 17.533 221.06 17.7064 221.052C17.899 221.052 18.03 221.183 18.0377 221.356C18.3536 228.861 19.6057 236.832 21.8594 245.72C21.9018 245.89 21.8017 246.063 21.6283 246.105C21.6013 246.113 21.5744 246.117 21.5513 246.117V246.113Z" fill="#632718"/>
<path d="M17.352 242.835C17.221 242.835 17.1016 242.754 17.0515 242.623C14.6398 235.927 13.8731 228.692 13.407 221.865C13.3954 221.692 13.5264 221.538 13.7036 221.526C13.8693 221.511 14.0311 221.646 14.0426 221.823C14.5088 228.599 15.2678 235.784 17.6525 242.407C17.7103 242.573 17.6255 242.754 17.4599 242.815C17.4252 242.827 17.3867 242.835 17.352 242.835Z" fill="#632718"/>
<path d="M9.9281 203.3C11.5077 202.205 13.2645 201.381 15.0983 200.815C21.3317 198.634 28.3434 198.819 34.1107 201.847C33.9913 199.651 33.0397 182.434 31.491 163.641C36.1063 149.575 46.62 96.2712 46.62 96.2712C28.7055 72.651 10.6408 84.8213 10.6408 84.8213C6.66111 100.813 2.928 124.202 0.994008 137.186C0.00389684 143.82 -0.261936 150.539 0.265866 157.227C1.95715 178.578 5.63633 199.886 6.69193 205.746C7.69745 204.841 8.78389 204.024 9.9281 203.3Z" fill="#612F4F"/>
<path d="M5.53223 184.372C5.47444 184.372 5.41668 184.356 5.36659 184.326C5.21634 184.233 5.1701 184.037 5.26257 183.886C7.80912 179.76 12.0739 176.829 16.9628 175.846C21.8517 174.864 26.9179 175.915 30.8668 178.736C31.0093 178.84 31.044 179.036 30.94 179.179C30.8398 179.321 30.6356 179.352 30.4969 179.252C26.6944 176.532 21.8094 175.519 17.0899 176.466C12.3744 177.414 8.25988 180.242 5.80579 184.218C5.74415 184.314 5.6401 184.368 5.53608 184.368L5.53223 184.372Z" fill="#331029"/>
<path d="M30.8129 160.578C30.6472 160.578 30.5047 160.447 30.497 160.278C29.8459 149.726 27.8772 139.274 24.6449 129.207C24.591 129.041 24.6834 128.86 24.8491 128.806C25.0148 128.752 25.1959 128.845 25.2498 129.01C28.5014 139.127 30.4777 149.633 31.1327 160.235C31.1442 160.409 31.0094 160.563 30.836 160.574C30.8283 160.574 30.8206 160.574 30.8167 160.574L30.8129 160.578Z" fill="#331029"/>
<path d="M43.7344 110.68C43.5996 110.68 43.4763 110.595 43.4339 110.464C41.2071 103.791 34.9274 87.7494 24.7528 82.8681C21.2315 81.1807 17.5523 81.0227 13.8153 82.4058C13.6497 82.4675 13.4686 82.3827 13.407 82.217C13.3453 82.0514 13.4301 81.8703 13.5957 81.8087C17.4984 80.364 21.3432 80.5296 25.0302 82.2941C35.4244 87.2793 41.7889 103.514 44.0426 110.264C44.0966 110.429 44.008 110.611 43.8423 110.664C43.8076 110.676 43.7768 110.68 43.7421 110.68H43.7344Z" fill="#331029"/>
<path d="M40.7603 125.119C40.7372 125.119 40.7141 125.119 40.6948 125.112C40.5214 125.073 40.4136 124.907 40.4482 124.734C41.6695 119.021 43.3339 110.741 44.6707 104.092L45.5028 99.9619C45.5375 99.7886 45.707 99.6768 45.8766 99.7115C46.0499 99.7462 46.1616 99.9157 46.1269 100.085L45.2948 104.215C43.958 110.869 42.2936 119.144 41.0724 124.865C41.0415 125.015 40.9067 125.115 40.7603 125.115V125.119Z" fill="#331029"/>
</svg>
